<svg width="90" height="102" viewBox="0 0 90 102" fill="none" xmlns="http://www.w3.org/2000/svg">
<path d="M43.2216 27.2463V27.196C43.2216 27.196 43.2216 27.196 43.2216 27.2463C43.121 26.8439 43.121 26.4918 43.121 26.1397C43.121 26.0894 43.121 26.0391 43.121 25.9888C43.121 25.8883 43.121 25.7877 43.121 25.6871C43.121 25.5362 43.0707 25.335 43.0707 25.1841C43.0707 25.0835 43.0204 25.0332 43.0204 24.9326C42.9701 24.7817 42.9197 24.6811 42.8191 24.5805C42.7688 24.5302 42.7688 24.4799 42.7688 24.4296C43.4732 25.0332 43.8758 25.9888 43.9764 26.8942C44.1273 26.3912 44.1777 25.7877 44.1777 25.2847C44.1777 25.2847 44.1777 25.2847 44.1777 25.2344C44.1777 23.6752 42.9701 21.7136 41.4606 21.7136C41.3599 21.7136 41.3096 21.7639 41.3096 21.8645C41.3096 22.0154 41.4606 22.3675 41.4606 22.9207C41.4606 23.6249 41.209 24.3291 41.209 24.6811C41.209 24.6811 41.209 24.6811 41.209 24.7314C41.209 25.8883 42.165 26.9445 43.2216 27.2463Z" fill="#72863B"/>
<path d="M53.9388 26.9945C54.6936 26.24 56.1528 25.9382 56.2031 24.6808C56.1528 25.7874 55.4987 26.7933 54.593 27.3969C55.0961 27.246 55.6496 27.0448 56.1025 26.743C57.461 25.9383 58.5176 23.9264 57.7629 22.6187C57.6119 22.3169 57.4107 22.8199 56.7566 23.2222C56.1528 23.5743 55.398 23.7252 55.0961 23.9264C54.0395 24.5299 53.6369 25.888 53.9388 26.9945Z" fill="#72863B"/>
<path d="M46.2403 24.2784C45.9887 24.1778 46.0893 24.5802 45.7874 25.1334C45.5358 25.6364 45.083 26.0388 44.932 26.2903C44.4792 27.095 44.7811 28.2015 45.4352 28.8051C45.6365 28.0004 46.4918 27.1956 45.9887 26.2903C46.4415 27.0447 46.3409 28.0004 46.039 28.8051C46.3409 28.5033 46.5925 28.1512 46.7937 27.7489C47.3975 26.6423 47.2466 24.8317 46.2403 24.2784Z" fill="#72863B"/>
<path d="M37.7879 30.5153C37.7376 30.7668 38.0898 30.5656 38.744 30.6662C39.2974 30.7668 39.8006 31.0686 40.1025 31.1189C41.0082 31.2698 41.9642 30.6662 42.3667 29.8615C41.5114 29.9118 40.505 29.3585 39.8006 30.1129C40.4044 29.4591 41.3101 29.2076 42.1655 29.3082C41.7629 29.1573 41.3604 29.0064 40.9579 28.9058C39.6497 28.6543 37.9892 29.3585 37.7879 30.5153Z" fill="#72863B"/>
<path d="M36.7814 26.039C37.0833 26.4916 37.2846 27.0449 37.4355 27.2964C37.989 28.0005 39.096 28.252 39.901 27.9502C39.2469 27.397 38.8947 26.2904 37.8884 26.391C38.7941 26.3407 39.5991 26.7934 40.1526 27.397C40.0017 26.9946 39.8004 26.5922 39.5488 26.2402C38.7941 25.2342 37.1336 24.5804 36.1776 25.2845C36.0267 25.4354 36.4292 25.536 36.7814 26.039Z" fill="#72863B"/>
<path d="M34.4165 35.495C34.2152 34.6399 34.6681 33.5334 33.7121 32.9298C34.5675 33.4328 34.9197 34.3381 35.0203 35.1932C35.1713 34.7908 35.2719 34.3381 35.2719 33.8855C35.3222 32.6281 34.3159 31.0186 32.9573 30.918C32.6554 30.918 32.9573 31.2197 32.9573 31.8736C32.9573 32.4269 32.7058 33.0304 32.6554 33.3322C32.6051 34.2879 33.4605 35.1932 34.4165 35.495Z" fill="#72863B"/>
<path d="M30.7935 38.3615C31.2464 39.1663 32.454 39.4681 33.41 39.1663C32.8062 38.5627 32.5546 37.3556 31.4476 37.4059C32.454 37.4059 33.259 37.9089 33.7622 38.613C33.6616 38.2107 33.5106 37.758 33.259 37.3556C32.6049 36.2491 30.8942 35.4443 29.6866 36.1485C29.435 36.2994 29.8878 36.4 30.1897 37.0035C30.5419 37.5065 30.6929 38.1101 30.7935 38.3615Z" fill="#72863B"/>
<path d="M34.6181 41.5808C34.3162 41.2287 34.0143 40.927 33.6621 40.6755C32.6055 39.9713 30.6935 39.9713 29.9387 41.0779C29.7878 41.3293 30.1903 41.2287 30.7438 41.6311C31.1966 41.9329 31.5488 42.4862 31.8004 42.6371C32.5552 43.14 33.7628 42.9388 34.5175 42.285C33.7124 41.9832 33.008 41.0276 32.0017 41.4802C32.8571 41.0276 33.8131 41.1784 34.6181 41.5808Z" fill="#72863B"/>
<path d="M35.4732 38.764C35.5235 39.3173 35.3223 39.9208 35.3223 40.2226C35.3726 41.1279 36.2783 41.9327 37.2846 42.1339C37.033 41.3291 37.3349 40.1723 36.3286 39.6693C37.2343 40.122 37.6871 40.9771 37.8381 41.8321C37.9387 41.3794 37.989 40.9268 37.9387 40.5244C37.9387 39.2167 36.7311 37.7078 35.4229 37.7581C35.121 37.7581 35.4229 38.1101 35.4732 38.764Z" fill="#72863B"/>
<path d="M37.1336 44.7996C36.5801 45.9565 36.9323 47.8677 38.1399 48.421C38.3915 48.5719 38.2405 48.1192 38.5424 47.5157C38.794 47.0127 39.2468 46.56 39.3475 46.3085C39.75 45.4535 39.3475 44.347 38.5424 43.6931C38.3915 44.5482 37.5361 45.4032 38.1902 46.3085C37.6367 45.5038 37.5864 44.5482 37.8883 43.6931C37.5864 43.9949 37.3348 44.3973 37.1336 44.7996Z" fill="#72863B"/>
<path d="M33.9131 45.8058C34.1144 44.8502 34.7685 44.146 35.5736 43.7437C35.1207 43.7939 34.6679 43.8442 34.2653 43.9951C33.0577 44.3975 31.9005 45.9567 32.3533 47.2141C32.4539 47.5159 32.6552 47.1135 33.259 46.862C33.8125 46.6609 34.4163 46.7112 34.7182 46.6106C35.5736 46.3088 36.127 45.2023 36.0264 44.1963C35.322 44.6993 34.1144 44.6993 33.9131 45.8058Z" fill="#72863B"/>
<path d="M43.1715 35.1427C43.4734 34.8409 43.7753 34.4888 43.9766 34.1367C44.6307 33.0805 44.6307 31.2698 43.6244 30.6662C43.4231 30.5154 43.4734 30.9177 43.1212 31.471C42.8193 31.9237 42.3665 32.326 42.2155 32.5775C41.7627 33.332 41.9639 34.4385 42.5677 35.1427C42.8193 34.3379 43.725 33.5835 43.2722 32.6781C43.6747 33.4326 43.5238 34.3882 43.1715 35.1427Z" fill="#72863B"/>
<path d="M38.5421 34.4384C38.2906 34.539 38.6931 34.6899 38.8943 35.2432C39.0956 35.7462 39.0956 36.2994 39.1962 36.5509C39.5485 37.3557 40.6554 37.7077 41.6617 37.5568C41.1586 36.903 41.1083 35.7965 40.0013 35.6959C40.9573 35.7462 41.7121 36.3497 42.1146 37.0539C42.0643 36.6515 41.9636 36.2491 41.8127 35.8468C41.3598 34.7905 39.8 33.8852 38.5421 34.4384Z" fill="#72863B"/>
<path d="M45.9892 36.6013C45.6369 36.9031 45.1841 37.1043 45.0331 37.2552C44.4797 37.7582 44.379 38.6635 44.6809 39.3174C45.0835 38.7641 45.9388 38.3617 45.8382 37.557C45.9388 38.2611 45.6369 38.9653 45.1338 39.5186C45.4357 39.3677 45.7376 39.1665 46.0395 38.915C46.7942 38.2108 47.2471 36.8025 46.5929 36.0481C46.3917 35.8972 46.3414 36.2493 45.9892 36.6013Z" fill="#72863B"/>
<path d="M52.379 28.3022C52.2784 27.4472 52.7816 26.3909 51.9765 25.7874C52.6809 26.3406 52.9325 27.246 52.9325 28.101C53.0835 27.6986 53.2344 27.2963 53.2847 26.8436C53.4357 25.5862 52.6809 23.9767 51.4734 23.8258C51.2218 23.7755 51.4733 24.1276 51.3727 24.7814C51.3224 25.3347 51.0205 25.888 51.0205 26.1394C50.9199 27.0448 51.574 27.9501 52.379 28.3022Z" fill="#72863B"/>
<path d="M55.0459 28.6544C54.7943 28.5538 54.9453 28.9562 54.6434 29.5094C54.3918 30.0124 53.9892 30.4651 53.8886 30.7165C53.4861 31.5213 53.8383 32.6278 54.4924 33.1811C54.6434 32.3763 55.4484 31.5213 54.8949 30.6662C55.3981 31.4207 55.3478 32.326 55.0962 33.1308C55.3478 32.7787 55.5994 32.4266 55.8006 32.0243C56.3038 30.968 56.1025 29.1573 55.0459 28.6544Z" fill="#72863B"/>
<path d="M54.9957 36.6014C55.4989 35.8972 56.5555 35.4445 56.3543 34.4386C56.5052 35.2936 56.1027 36.1487 55.5492 36.8025C55.9014 36.6014 56.3039 36.3499 56.6058 36.0984C57.5115 35.2433 58.0147 33.5333 57.2096 32.6279C57.0587 32.4267 57.0084 32.8291 56.5052 33.2818C56.1027 33.6338 55.5492 33.8853 55.3479 34.0865C54.6938 34.6901 54.5932 35.7966 54.9957 36.6014Z" fill="#72863B"/>
<path d="M61.9393 32.1754C62.4928 31.5215 63.5494 31.1191 63.4991 30.1635C63.5997 31.0688 63.1469 31.8736 62.4928 32.4772C62.8953 32.3263 63.2978 32.1251 63.5997 31.8233C64.6061 31.0688 65.2099 29.4091 64.5054 28.4534C64.3545 28.2522 64.2538 28.6546 63.7507 29.057C63.2978 29.4091 62.7443 29.5599 62.4928 29.7611C61.7883 30.2138 61.5871 31.3203 61.9393 32.1754Z" fill="#72863B"/>
<path d="M63.952 38.3615C64.5558 37.8082 65.7131 37.5568 65.7634 36.5508C65.7131 37.4562 65.1596 38.2106 64.4552 38.7136C64.8577 38.613 65.3105 38.4621 65.6627 38.2609C66.7697 37.6574 67.6251 36.0479 67.0213 35.0419C66.8703 34.7904 66.7697 35.1928 66.2162 35.5449C65.7131 35.7964 65.1596 35.9473 64.908 36.0479C64.1029 36.4502 63.7507 37.5065 63.952 38.3615Z" fill="#72863B"/>
<path d="M66.0655 39.8202C66.0655 39.5687 65.7636 39.8202 65.1095 39.7699C64.556 39.7196 64.0026 39.5184 63.7007 39.4681C62.795 39.4178 61.9396 40.122 61.6377 40.977C62.4428 40.8261 63.5497 41.2285 64.1535 40.4238C63.6504 41.1279 62.7447 41.48 61.8893 41.5303C62.2918 41.6812 62.7447 41.7818 63.1472 41.7818C64.4051 41.8824 66.0152 40.977 66.0655 39.8202Z" fill="#72863B"/>
<path d="M60.3299 40.625C60.6821 40.3735 60.984 40.0717 61.2859 39.7196C62.0909 38.764 62.2922 36.9533 61.3865 36.1989C61.1852 36.048 61.1852 36.4504 60.7827 36.9533C60.4305 37.3557 59.9273 37.7078 59.7261 37.909C59.1726 38.6131 59.2229 39.7196 59.7261 40.4741C60.0783 39.7196 61.0846 39.0658 60.7324 38.1101C61.0846 39.0155 60.833 39.9208 60.3299 40.625Z" fill="#72863B"/>
<path d="M60.0275 32.1248C59.7256 32.4769 59.3231 32.7284 59.1721 32.9295C58.7193 33.4828 58.7696 34.4384 59.1721 35.042C59.474 34.4384 60.2791 33.8852 60.0275 33.1307C60.2791 33.8349 60.0778 34.539 59.6753 35.1426C59.9772 34.9414 60.2288 34.6899 60.43 34.4384C61.0841 33.6337 61.2351 32.1751 60.4803 31.5715C60.3797 31.3703 60.3797 31.7224 60.0275 32.1248Z" fill="#72863B"/>
<path d="M62.2414 44.5986C61.8892 44.1459 61.7382 43.5927 61.537 43.3412C60.9835 42.637 59.8765 42.4358 59.0211 42.7376C59.6753 43.2909 60.0778 44.3471 61.0338 44.2968C60.1281 44.3974 59.323 43.9447 58.7192 43.2909C58.8702 43.6932 59.0715 44.0956 59.3734 44.3974C60.1281 45.4033 61.8389 46.0069 62.7445 45.3027C63.0464 45.1519 62.6439 45.1016 62.2414 44.5986Z" fill="#72863B"/>
<path d="M60.1783 25.7873C59.9267 26.6424 59.1719 27.2459 58.4172 27.5477C58.8197 27.5477 59.2726 27.4974 59.7254 27.3968C60.933 27.095 62.1406 25.737 61.8387 24.5802C61.7884 24.3287 61.5368 24.6808 60.933 24.8317C60.3795 24.9826 59.7757 24.9323 59.5241 24.9826C58.6688 25.2341 58.065 26.1897 58.0146 27.0447C58.7694 26.6927 59.8764 26.743 60.1783 25.7873Z" fill="#72863B"/>
<path d="M58.1656 28.5537C57.7631 28.9058 57.2096 29.1573 57.0084 29.3585C56.3543 29.962 56.2033 31.0686 56.6058 31.8733C57.109 31.1692 58.1656 30.7165 57.9644 29.7105C58.1153 30.5656 57.7128 31.4206 57.1593 32.0745C57.5618 31.8733 57.9141 31.6218 58.216 31.3703C59.1216 30.5656 59.6248 28.8052 58.8701 27.8999C58.6688 27.749 58.6185 28.1514 58.1656 28.5537Z" fill="#72863B"/>
<path d="M49.0083 24.9325C49.2096 24.1781 49.9643 23.4739 49.5115 22.6692C49.914 23.3733 49.8637 24.2284 49.5618 24.9325C49.8134 24.6308 50.065 24.329 50.2662 23.9769C50.8197 22.971 50.6688 21.3615 49.7631 20.8585C49.5618 20.7579 49.6624 21.11 49.3605 21.613C49.1089 22.0656 48.7064 22.4177 48.6058 22.6189C48.2033 23.4236 48.4548 24.3793 49.0083 24.9325Z" fill="#72863B"/>
<path d="M55.0967 21.3111C55.147 22.1158 54.7445 22.82 54.191 23.3733C54.5432 23.2224 54.8954 23.0715 55.1973 22.82C56.103 22.1661 56.7068 20.6572 56.0527 19.8022C55.9018 19.601 55.8515 20.0034 55.3483 20.3052C54.9458 20.6069 54.4426 20.7578 54.2413 20.9087C53.5872 21.4117 53.386 22.3673 53.6375 23.1218C54.191 22.5685 55.147 22.2164 55.0967 21.3111Z" fill="#72863B"/>
<path d="M47.1966 19.6514C46.6431 20.1544 46.5928 21.0598 46.945 21.7136C47.2972 21.1603 48.1526 20.7077 48.0017 19.9029C48.1526 20.6071 47.8507 21.3112 47.3979 21.8645C47.6998 21.7136 48.0017 21.4621 48.2532 21.2609C49.008 20.5568 49.3602 19.1485 48.6558 18.4443C48.5048 18.2934 48.4545 18.6455 48.1023 18.9976C47.8004 19.2994 47.3475 19.5006 47.1966 19.6514Z" fill="#72863B"/>
<path d="M44.1776 22.4175C44.4292 23.1216 45.2342 23.5743 45.9387 23.524C45.5864 22.9204 45.5864 22.0151 44.7814 21.8139C45.4858 22.0151 45.989 22.5683 46.2909 23.1719C46.2909 22.8198 46.1902 22.4678 46.0896 22.1157C45.7877 21.16 44.6304 20.2044 43.7247 20.5062C43.5235 20.5565 43.8254 20.7577 43.9763 21.2606C44.1273 21.7133 44.1273 22.2163 44.1776 22.4175Z" fill="#72863B"/>
<path d="M34.7183 29.3081C35.2215 29.8614 36.1271 29.962 36.7813 29.6602C36.2278 29.2578 35.8756 28.4028 35.0202 28.5034C35.7246 28.4028 36.429 28.7046 36.9322 29.2075C36.7813 28.9058 36.58 28.604 36.3787 28.3022C35.7246 27.5477 34.3158 27.0951 33.561 27.7489C33.4101 27.8998 33.7623 27.9501 34.0642 28.3525C34.4164 28.7046 34.5673 29.1572 34.7183 29.3081Z" fill="#72863B"/>
<path d="M51.4735 20.8081C51.6748 21.4117 52.3289 21.7637 52.9327 21.7637C52.6308 21.2608 52.6308 20.5063 51.9767 20.3554C52.5805 20.5063 52.983 20.959 53.2346 21.5123C53.2346 21.2105 53.1843 20.9087 53.0837 20.6572C52.8321 19.8525 51.8761 19.098 51.1213 19.3495C50.9704 19.3998 51.1716 19.5507 51.3226 19.9531C51.4232 20.2548 51.4232 20.6572 51.4735 20.8081Z" fill="#72863B"/>
<path d="M38.5925 24.0271C39.0957 24.3289 39.8504 24.2283 40.3033 23.8259C39.7498 23.6247 39.2466 23.0212 38.6428 23.323C39.1963 23.0715 39.8001 23.1721 40.3033 23.4236C40.102 23.2224 39.9007 23.0212 39.6491 22.8703C38.9447 22.4176 37.7371 22.4176 37.2843 23.0715C37.1836 23.2224 37.4855 23.1721 37.8377 23.4236C38.1396 23.6247 38.3912 23.9265 38.5925 24.0271Z" fill="#72863B"/>
<path d="M38.6431 31.9237C38.2909 31.6722 37.7374 31.5214 37.2342 31.5716C36.882 31.5716 36.5298 31.7225 36.3285 31.974C36.3285 32.0243 36.2782 32.0243 36.3285 32.0243C36.2279 32.1752 36.5298 32.1249 36.8317 32.3764C36.882 32.4267 36.9826 32.477 37.0329 32.5776C37.2342 32.7788 37.3348 32.98 37.4355 33.0806C37.8883 33.4829 38.6431 33.4326 39.1462 33.1308C39.0959 33.1308 39.0959 33.0806 39.0456 33.0806C39.0959 33.0303 39.1462 33.0303 39.1966 32.98C38.794 32.8291 38.4418 32.4267 37.989 32.3261C38.4418 32.3261 38.8443 32.477 39.1966 32.7285C39.1462 32.6279 39.0456 32.5273 38.9953 32.477C39.0959 32.5273 39.1462 32.5273 39.2469 32.5776C39.0959 32.3261 38.8947 32.1249 38.6431 31.9237Z" fill="#72863B"/>
<path d="M49.8133 28.0507C49.7629 27.5981 50.0145 26.9945 49.5617 26.6424C49.9642 26.9442 50.1151 27.4472 50.1151 27.9501C50.2158 27.7489 50.2661 27.4975 50.3164 27.246C50.417 26.5418 49.9642 25.6365 49.3101 25.5359C49.1591 25.5359 49.3101 25.7371 49.2598 26.0892C49.2095 26.3909 49.0585 26.6927 49.0585 26.8436C49.0082 27.3466 49.3604 27.8495 49.8133 28.0507Z" fill="#72863B"/>
<path d="M52.782 39.0658C52.7317 38.764 52.6814 38.5126 52.5304 38.2108C52.1782 37.4563 51.2222 36.7522 50.4674 37.054C50.3165 37.1042 50.5681 37.2551 50.719 37.6575C50.87 38.0096 50.87 38.412 50.9706 38.5629C51.2222 39.1161 51.8763 39.4179 52.4801 39.3676C52.1279 38.9149 52.0776 38.1102 51.4235 38.0096C52.0272 38.1102 52.5304 38.5629 52.782 39.0658Z" fill="#72863B"/>
<path d="M52.1781 35.6457C52.0775 35.0925 52.3794 34.338 51.8259 33.9356C52.3291 34.2877 52.5303 34.8913 52.5303 35.4445C52.631 35.1931 52.6813 34.8913 52.7316 34.5895C52.7819 33.7345 52.2284 32.6782 51.4234 32.6279C51.2221 32.6279 51.4234 32.8291 51.3731 33.2818C51.3227 33.6339 51.1718 34.0362 51.1718 34.2374C51.1215 34.841 51.5743 35.4445 52.1781 35.6457Z" fill="#72863B"/>
<path d="M46.3917 43.341C46.593 43.1398 46.7439 42.8883 46.8948 42.5866C47.2471 41.8321 47.0961 40.625 46.3917 40.2729C46.2407 40.1723 46.2911 40.4741 46.1401 40.8765C45.9892 41.2286 45.6873 41.5303 45.6369 41.6812C45.3854 42.2345 45.5866 42.9386 46.0395 43.341C46.1401 42.7878 46.6936 42.2345 46.3414 41.6309C46.593 42.1339 46.593 42.7878 46.3917 43.341Z" fill="#72863B"/>
<path d="M36.2278 35.0923C36.3284 35.4444 36.3284 35.8468 36.3788 36.048C36.5297 36.6515 37.1838 37.0539 37.7876 37.0539C37.536 36.5509 37.536 35.7965 36.8819 35.5953C37.4354 35.7462 37.8379 36.2492 38.0895 36.8024C38.0895 36.5007 38.0392 36.1989 37.9889 35.9474C37.7876 35.1426 36.8819 34.3379 36.0768 34.5391C35.8756 34.4888 36.1272 34.6397 36.2278 35.0923Z" fill="#72863B"/>
<path d="M40.5549 45.4534C40.253 46.2079 40.4543 47.415 41.209 47.7168C41.36 47.7671 41.2594 47.5156 41.4606 47.1132C41.6116 46.7611 41.8632 46.4594 41.9135 46.3085C42.1651 45.7552 41.8632 45.0511 41.4103 44.6487C41.3097 45.2019 40.8065 45.8055 41.209 46.3588C40.8568 45.8558 40.8568 45.2522 41.0078 44.699C40.8065 44.9505 40.6556 45.2019 40.5549 45.4534Z" fill="#72863B"/>
<path d="M58.3671 38.3616C58.5683 38.1604 58.7193 37.909 58.8702 37.6575C59.2728 36.903 59.1721 35.6959 58.4174 35.3438C58.2664 35.2432 58.3168 35.545 58.1155 35.8971C57.9645 36.2492 57.6626 36.5007 57.562 36.7018C57.2601 37.2551 57.4614 37.9593 57.9142 38.4119C58.0652 37.8587 58.6187 37.3054 58.2664 36.7018C58.6187 37.1545 58.5683 37.8084 58.3671 38.3616Z" fill="#72863B"/>
<path d="M54.5431 43.7437C54.2915 43.8945 54.0902 44.0957 53.889 44.3472C53.3858 45.0011 53.2349 46.2082 53.8387 46.7112C53.9896 46.8118 53.9393 46.5603 54.2412 46.2082C54.4928 45.9064 54.845 45.7052 54.9456 45.5543C55.3481 45.1017 55.2978 44.2969 54.9456 43.8442C54.694 44.3472 54.0399 44.7999 54.2915 45.4537C54.0902 44.7999 54.2412 44.1963 54.5431 43.7437Z" fill="#72863B"/>
<path d="M63.3986 35.8972C63.5999 35.696 63.8514 35.4948 64.0024 35.2433C64.5056 34.5391 64.5559 33.332 63.9018 32.8794C63.7508 32.7788 63.8011 33.0805 63.5495 33.3823C63.3483 33.6841 62.9961 33.9356 62.8954 34.0865C62.5432 34.5894 62.6439 35.3439 62.9961 35.7966C63.1973 35.2936 63.8514 34.7906 63.5999 34.1871C63.8011 34.7906 63.6502 35.3942 63.3986 35.8972Z" fill="#72863B"/>
<path d="M57.1592 42.989C57.2599 43.6429 56.958 44.4476 57.6121 44.9003C57.0586 44.4979 56.807 43.8441 56.7567 43.1902C56.6561 43.492 56.6058 43.8441 56.5554 44.1458C56.5051 45.1015 57.1592 46.3086 58.1153 46.3589C58.3165 46.3589 58.1153 46.1074 58.1656 45.6547C58.1656 45.2524 58.3668 44.7997 58.3668 44.5985C58.3668 43.8441 57.8134 43.1902 57.1592 42.989Z" fill="#72863B"/>
<path d="M61.3357 27.7995C61.0338 28.051 60.6816 28.2019 60.5306 28.3025C60.0778 28.7049 59.9772 29.4593 60.1784 30.0126C60.5306 29.5599 61.2351 29.2581 61.1848 28.6043C61.2854 29.2078 60.9835 29.7611 60.581 30.1635C60.8325 30.0629 61.0841 29.912 61.3357 29.7108C61.9898 29.1575 62.3923 28.0007 61.8389 27.3972C61.7382 27.2463 61.6879 27.4977 61.3357 27.7995Z" fill="#72863B"/>
<path d="M46.9951 29.7108C46.9951 30.4652 47.5989 31.0688 48.3537 31.0688C49.1084 31.0688 49.7122 30.4652 49.7122 29.7108C49.7122 28.9563 49.1084 28.3528 48.3537 28.3528C47.5989 28.3528 46.9951 28.9563 46.9951 29.7108Z" fill="#72863B"/>
<path d="M55.2979 39.1663C55.2979 39.7699 55.7507 40.2226 56.3545 40.2226C56.9583 40.2226 57.4111 39.7699 57.4111 39.1663C57.4111 38.5628 56.9583 38.1101 56.3545 38.1101C55.7507 38.1101 55.2979 38.5628 55.2979 39.1663Z" fill="#72863B"/>
<path d="M39.4478 40.6248C39.4478 41.1781 39.9006 41.6308 40.4541 41.6308C41.0076 41.6308 41.4604 41.1781 41.4604 40.6248C41.4604 40.0716 41.0076 39.6189 40.4541 39.6189C39.9006 39.6189 39.4478 40.0716 39.4478 40.6248Z" fill="#72863B"/>
<path d="M48.4042 34.2874C47.1966 31.2193 44.7311 29.2074 42.1649 27.2961C45.838 31.9737 48.2029 34.1868 48.2532 40.826C48.2532 50.2817 44.1776 43.7935 44.1776 39.3674C44.1776 37.7076 44.5801 35.9975 45.3349 34.5892C43.9763 35.746 42.6681 37.607 42.7184 40.0715C42.7687 45.9059 45.3852 41.9325 38.2906 42.4858C28.3279 43.2402 45.9387 41.6307 46.4921 49.8794C46.4921 50.2315 46.9953 52.4445 46.5425 55.2611C46.4921 55.5126 46.4921 55.7138 46.4921 55.9653C46.4921 56.7197 46.4418 57.7257 46.4418 58.8322C46.3915 61.3973 46.2909 64.4151 46.2909 65.6726C46.2909 68.3886 46.4418 75.6816 46.1902 72.9656C45.7374 67.3323 45.7374 61.9003 45.7374 58.8322C45.7374 58.631 45.7374 58.3795 45.7374 58.1783C45.7374 56.9209 45.7374 56.2168 45.7374 56.1665C45.6871 56.0659 45.2846 56.1162 45.1336 56.1162C42.2656 56.4682 41.6115 58.3795 41.6115 58.3795C41.6115 58.3795 38.9447 66.0749 39.6491 69.8975C40.3535 73.72 43.0203 74.7763 44.1273 75.2289C45.2342 75.6816 46.6934 75.2792 46.6934 75.2792C48.1023 75.4804 48.8067 75.1283 50.2659 74.3739C51.725 73.5691 53.2849 70.7525 53.6874 67.7347C54.0899 64.7169 53.4861 61.85 52.4798 59.2346C51.8257 57.4239 50.4168 56.6694 49.3099 56.2671C48.9073 53.7522 48.6054 50.2315 48.7564 49.4267C49.7124 44.045 55.851 41.8822 57.5114 41.8319C59.0712 41.7816 60.0776 42.0834 61.0839 42.4858C62.694 43.1899 59.8763 41.1277 57.3102 41.1277C51.5741 41.1277 54.5428 43.7935 54.5428 38.0596C54.5428 36.1484 53.9893 34.2371 52.7817 32.7282C53.2849 33.9353 53.7377 35.1927 53.6371 36.5004C53.4358 39.468 49.6118 48.8231 50.0646 37.3052C50.2156 33.382 51.3225 29.5595 55.4485 27.95C52.1276 28.0506 49.3099 31.2193 48.4042 34.2874Z" fill="#7A695D"/>
<path d="M43.0205 0.387711L42.7186 0.186523L0.0503166 32.9297V100.73L0 100.78L0.0503166 100.83V101.836H1.05664L1.10696 101.887L1.15728 101.836H89.06V33.2818L43.0205 0.387711ZM42.7186 1.39365L47.1968 4.61264L7.39651 34.5392L1.81139 32.7788L42.7186 1.39365ZM1.05664 99.7238V34.0865L6.84303 35.8972V93.9899L1.05664 99.7238ZM88.0537 100.78H2.11329L8.20157 94.7444H88.0537V100.78ZM88.0537 93.7384H8.3022V35.696L48.4547 5.51798L88.0537 33.7847V93.7384Z" fill="#7A695D"/>
<path d="M18.3656 85.6407C18.3656 85.9927 18.3153 86.2945 18.2147 86.546C18.1141 86.7975 18.0134 86.9484 17.8625 87.0993C17.7115 87.2502 17.5606 87.3508 17.3593 87.401C16.9568 87.5016 16.6046 87.5016 16.202 87.401C16.0008 87.3508 15.8498 87.2502 15.6989 87.0993C15.5479 86.9484 15.4473 86.7975 15.3467 86.546C15.246 86.2945 15.1957 85.9927 15.1957 85.6407V81.8684H14.3403V85.4395C14.3403 86.2442 14.5416 86.8981 14.9441 87.401C15.3467 87.904 15.9505 88.1555 16.7555 88.1555C17.5606 88.1555 18.2147 87.904 18.6172 87.401C19.0198 86.8981 19.221 86.2442 19.221 85.4395V81.8684H18.3656V85.6407Z" fill="#7A695D"/>
<path d="M22.8436 83.0254C22.7932 83.0254 22.6926 83.0254 22.6423 83.0254C22.5417 83.0254 22.3907 83.0254 22.1894 83.0757C22.0385 83.0757 21.8372 83.126 21.636 83.2266C21.4347 83.2769 21.2837 83.3775 21.0825 83.5284C21.0322 83.5787 20.9818 83.6289 20.9315 83.6792V83.2769H20.1265V88.1054H20.9818V85.4396C20.9818 85.2384 21.0322 85.0373 21.0825 84.8361C21.1831 84.6349 21.2837 84.484 21.4347 84.3331C21.5856 84.1822 21.7366 84.0816 21.9882 83.981C22.1894 83.8804 22.441 83.8301 22.6926 83.8301C22.7429 83.8301 22.7429 83.8301 22.7932 83.8301C22.8435 83.8301 22.8435 83.8301 22.8939 83.8301L23.1958 83.8804L23.2964 83.1763L23.1454 83.126C22.9945 83.0757 22.9442 83.0254 22.8436 83.0254Z" fill="#7A695D"/>
<path d="M28.3283 83.7795C28.0767 83.528 27.8252 83.3771 27.5233 83.2262C27.2214 83.0753 26.8692 83.025 26.5169 83.025C26.366 83.025 26.215 83.025 26.0138 83.0753C25.8125 83.0753 25.6112 83.1256 25.41 83.2262C25.2087 83.3268 25.0074 83.4274 24.8062 83.5783C24.7055 83.6286 24.6552 83.7292 24.5546 83.7795V81.5161H23.6992V88.0547H24.5546V87.5014C24.6049 87.5517 24.7055 87.602 24.7559 87.6523C24.9571 87.8032 25.1081 87.9038 25.3093 87.9541C25.5106 88.0547 25.7119 88.105 25.9131 88.105C26.1144 88.105 26.3157 88.1553 26.4666 88.1553C26.8188 88.1553 27.1207 88.105 27.4226 87.9541C27.7245 87.8032 27.9761 87.6523 28.2277 87.4511C28.4793 87.2499 28.6805 86.9482 28.7812 86.6464C28.9321 86.3446 28.9824 85.9925 28.9824 85.5901C28.9824 85.2381 28.9321 84.886 28.7812 84.5842C28.7309 84.2824 28.5799 84.031 28.3283 83.7795ZM28.0767 86.3446C27.9761 86.5458 27.8755 86.747 27.6742 86.8979C27.5233 87.0488 27.322 87.1996 27.1207 87.2499C26.6679 87.4511 26.1144 87.4511 25.6616 87.2499C25.4603 87.1493 25.259 87.0488 25.1081 86.8979C24.9571 86.747 24.8062 86.5458 24.7055 86.3446C24.6049 86.1434 24.5546 85.8919 24.5546 85.5901C24.5546 85.3387 24.6049 85.0872 24.7055 84.886C24.8062 84.6848 24.9068 84.4836 25.1081 84.2824C25.259 84.1315 25.4603 83.9807 25.6616 83.8801C25.8628 83.7795 26.1144 83.7292 26.366 83.7292C26.6176 83.7292 26.8692 83.7795 27.0704 83.8801C27.2717 83.9807 27.4729 84.1315 27.6239 84.2824C27.7748 84.4333 27.9258 84.6345 28.0264 84.886C28.1271 85.0872 28.1774 85.3387 28.1774 85.6404C28.2277 85.8919 28.1774 86.1434 28.0767 86.3446Z" fill="#7A695D"/>
<path d="M33.8629 83.7798C33.8126 83.7295 33.712 83.6289 33.6114 83.5787C33.4101 83.4278 33.2088 83.3272 33.0076 83.2266C32.8063 83.126 32.605 83.0757 32.4038 83.0757C32.2025 83.0757 32.0516 83.0254 31.9006 83.0254C31.5484 83.0254 31.1962 83.0757 30.8943 83.2266C30.5924 83.3775 30.2905 83.5284 30.0892 83.7798C29.8376 84.0313 29.6867 84.2828 29.5357 84.5846C29.3848 84.8864 29.3345 85.2384 29.3345 85.5905C29.3345 85.9426 29.3848 86.2947 29.5357 86.6468C29.6867 86.9485 29.888 87.2503 30.0892 87.4515C30.3408 87.6527 30.5924 87.8539 30.8943 87.9545C31.1962 88.1054 31.4981 88.1557 31.8503 88.1557C32.0012 88.1557 32.2025 88.1557 32.4038 88.1054C32.605 88.0551 32.8063 88.0048 33.0076 87.9545C33.2088 87.8539 33.4101 87.7533 33.561 87.6527C33.6114 87.6024 33.712 87.5521 33.7623 87.5018V88.0551H34.7183V83.2266H33.8629V83.7798ZM33.712 86.345C33.6114 86.5462 33.5107 86.7473 33.3095 86.8982C33.1585 87.0491 32.9573 87.2 32.756 87.2503C32.3031 87.4515 31.7497 87.4515 31.2968 87.2503C31.0955 87.1497 30.8943 87.0491 30.7433 86.8982C30.5924 86.7473 30.4414 86.5462 30.3408 86.345C30.2402 86.1438 30.1898 85.8923 30.1898 85.5905C30.1898 85.339 30.2402 85.0876 30.3408 84.8361C30.4414 84.6349 30.5421 84.4337 30.7433 84.2325C30.8943 84.0816 31.0955 83.9307 31.2968 83.8301C31.4981 83.7295 31.7497 83.6792 32.0012 83.6792C32.2528 83.6792 32.5044 83.7295 32.7057 83.8301C32.9069 83.9307 33.1082 84.0816 33.2591 84.2325C33.4101 84.3834 33.561 84.5846 33.6617 84.8361C33.7623 85.0373 33.8126 85.2887 33.8126 85.5905C33.8629 85.8923 33.8126 86.1438 33.712 86.345Z" fill="#7A695D"/>
<path d="M39.8506 83.9305C39.6997 83.679 39.4481 83.4778 39.1462 83.3269C38.8443 83.176 38.4921 83.0754 38.0392 83.0754C37.5864 83.0754 37.2342 83.176 36.882 83.3772C36.731 83.4778 36.5801 83.5784 36.4291 83.7293V83.3269H35.5737V88.1554H36.4291V85.7412C36.4291 85.4897 36.4794 85.2382 36.5801 85.037C36.6807 84.8358 36.7813 84.6346 36.9323 84.4334C37.0832 84.2826 37.2342 84.1317 37.4354 84.0311C37.6367 83.9305 37.838 83.8802 37.9889 83.8802C38.2405 83.8802 38.4921 83.9305 38.643 83.9808C38.794 84.0814 38.9449 84.182 39.0456 84.3329C39.1462 84.4837 39.2468 84.6849 39.2971 84.8861C39.3475 85.1376 39.3978 85.3891 39.3978 85.6406V88.1554H40.2532V85.7412C40.2532 85.4394 40.2028 85.1376 40.1525 84.8358C40.1525 84.4335 40.0016 84.182 39.8506 83.9305Z" fill="#7A695D"/>
<path d="M41.7627 81.8683C41.5615 82.1198 41.4608 82.3713 41.4608 82.7234V83.5281H40.6055V84.2323H41.4608V88.0045H42.3162V84.2323H43.7251V83.5281H42.3162V82.7737C42.3162 82.6228 42.3162 82.5222 42.3665 82.4719C42.3665 82.4216 42.4169 82.3713 42.4672 82.321C42.5175 82.2707 42.5678 82.2707 42.6684 82.2707C42.7691 82.2707 42.8697 82.2707 43.0207 82.2707H43.7754V81.5665H42.6684C42.2659 81.5162 41.964 81.6168 41.7627 81.8683Z" fill="#7A695D"/>
<path d="M48.3039 83.7798C48.2535 83.7295 48.1529 83.6289 48.0523 83.5787C47.851 83.4278 47.6498 83.3272 47.4485 83.2266C47.2472 83.126 47.046 83.0757 46.8447 83.0757C46.6434 83.0757 46.4925 83.0254 46.3415 83.0254C45.9893 83.0254 45.6371 83.0757 45.3352 83.2266C45.0333 83.3775 44.7314 83.5284 44.5301 83.7798C44.2786 84.0313 44.1276 84.2828 43.9767 84.5846C43.8257 84.8864 43.7754 85.2384 43.7754 85.5905C43.7754 85.9426 43.8257 86.2947 43.9767 86.6468C44.1276 86.9485 44.3289 87.2503 44.5301 87.4515C44.7817 87.6527 45.0333 87.8539 45.3352 87.9545C45.6371 88.1054 45.939 88.1557 46.2912 88.1557C46.4422 88.1557 46.6434 88.1557 46.8447 88.1054C47.046 88.0551 47.2472 88.0048 47.4485 87.9545C47.6498 87.8539 47.851 87.7533 48.002 87.6527C48.0523 87.6024 48.1529 87.5521 48.2032 87.5018V88.0551H49.0586V83.2266H48.3039V83.7798ZM48.2032 86.345C48.1026 86.5462 48.002 86.7473 47.8007 86.8982C47.6498 87.0491 47.4485 87.2 47.2472 87.2503C46.7944 87.4515 46.2409 87.4515 45.788 87.2503C45.5868 87.1497 45.3855 87.0491 45.2346 86.8982C45.0836 86.7473 44.9327 86.5462 44.832 86.345C44.7314 86.1438 44.6811 85.8923 44.6811 85.5905C44.6811 85.339 44.7314 85.0876 44.832 84.8361C44.9327 84.6349 45.0333 84.4337 45.2346 84.2325C45.3855 84.0816 45.5868 83.9307 45.788 83.8301C45.9893 83.7295 46.2409 83.6792 46.4925 83.6792C46.7441 83.6792 46.9956 83.7295 47.1969 83.8301C47.3982 83.9307 47.5994 84.0816 47.7504 84.2325C47.9013 84.3834 48.0523 84.5846 48.1529 84.8361C48.2535 85.0373 48.3039 85.2887 48.3039 85.5905C48.3039 85.8923 48.2536 86.1438 48.2032 86.345Z" fill="#7A695D"/>
<path d="M52.8323 83.0254C52.782 83.0254 52.6814 83.0254 52.6311 83.0254C52.5304 83.0254 52.3795 83.0254 52.1782 83.0757C52.0273 83.0757 51.826 83.126 51.6247 83.2266C51.4235 83.2769 51.2725 83.3775 51.0713 83.5284C51.021 83.5787 50.9706 83.6289 50.9203 83.6792V83.2769H50.0649V88.1054H50.9203V85.4396C50.9203 85.2384 50.9706 85.0373 51.021 84.8361C51.1216 84.6349 51.2222 84.484 51.3732 84.3331C51.5241 84.1822 51.6751 84.0816 51.9266 83.981C52.1279 83.8804 52.3795 83.8301 52.6311 83.8301C52.6311 83.8301 52.6814 83.8301 52.7317 83.8301C52.782 83.8301 52.782 83.8301 52.8323 83.8301L53.1342 83.8804L53.2349 83.1763L53.0839 83.126C52.933 83.0757 52.8827 83.0254 52.8323 83.0254Z" fill="#7A695D"/>
<path d="M60.4304 83.7798C60.2795 83.5787 60.0782 83.3775 59.7763 83.2266C59.5247 83.0757 59.1725 83.0254 58.77 83.0254C58.4178 83.0254 58.1159 83.126 57.814 83.3272C57.6127 83.4781 57.4617 83.6289 57.3108 83.8804C57.2605 83.8301 57.2605 83.7798 57.2102 83.7295C57.1095 83.5787 57.0089 83.4781 56.8579 83.3775C56.707 83.2769 56.556 83.1763 56.4051 83.126C56.2038 83.0757 56.0026 83.0254 55.751 83.0254C55.6504 83.0254 55.4994 83.0254 55.3485 83.0757C55.1975 83.126 55.0466 83.1763 54.8956 83.2266C54.7447 83.2769 54.644 83.3775 54.4931 83.5284V83.2266H53.6377V88.0551H54.4931V85.5905C54.4931 85.3893 54.4931 85.1378 54.5434 84.9367C54.5937 84.7355 54.644 84.5343 54.7447 84.3331C54.8453 84.1822 54.9962 84.0313 55.1472 83.9307C55.2981 83.8301 55.4994 83.7798 55.751 83.7798C55.9019 83.7798 56.0529 83.8301 56.2038 83.8804C56.3045 83.9307 56.4554 84.0313 56.5057 84.1822C56.6064 84.3331 56.6567 84.484 56.707 84.6349C56.7573 84.8361 56.7573 84.987 56.7573 85.1881V88.0551H57.6127V85.1881C57.6127 84.987 57.663 84.7858 57.7133 84.5846C57.7636 84.4337 57.8643 84.2828 57.9649 84.1319C58.0655 84.0313 58.1662 83.9307 58.3171 83.8301C58.4681 83.7798 58.5687 83.7295 58.7196 83.7295C58.9209 83.7295 59.1222 83.7798 59.2228 83.8301C59.3738 83.8804 59.4744 83.981 59.575 84.0816C59.6757 84.1822 59.726 84.3331 59.7763 84.5343C59.8266 84.7355 59.8266 84.9367 59.8266 85.1379V88.0048H60.682V85.2887C60.682 85.0373 60.6317 84.7355 60.5814 84.484C60.682 84.2325 60.5814 83.981 60.4304 83.7798Z" fill="#7A695D"/>
<path d="M66.3167 83.0254C65.9142 83.0254 65.562 83.0757 65.2097 83.2266C64.8575 83.3775 64.6059 83.5284 64.3544 83.7798C64.1028 84.0313 63.9518 84.2828 63.8009 84.5846C63.6499 84.8864 63.5996 85.2384 63.5996 85.5905C63.5996 85.9426 63.6499 86.2947 63.8009 86.5965C63.9518 86.8982 64.1028 87.2 64.3544 87.4012C64.6059 87.6527 64.9078 87.8036 65.2097 87.9545C65.562 88.0551 65.9142 88.1557 66.3167 88.1557C66.6186 88.1557 66.9205 88.1054 67.2224 88.0048C67.5243 87.9042 67.7759 87.8036 67.9771 87.6527L68.1281 87.5521L67.6752 86.8479L67.5243 86.9988C67.3733 87.1497 67.1721 87.2503 66.9708 87.3006C66.7695 87.3509 66.5683 87.4012 66.367 87.4012C66.0651 87.4012 65.7632 87.3509 65.562 87.2503C65.3104 87.1497 65.1594 86.9988 64.9582 86.8479C64.8072 86.697 64.7066 86.4959 64.6059 86.2947C64.5053 86.0935 64.5053 85.842 64.5053 85.5905C64.5053 85.339 64.5556 85.0876 64.6563 84.8361C64.7569 84.6349 64.8575 84.4337 65.0085 84.2325C65.1594 84.0816 65.3607 83.9307 65.562 83.8301C65.7632 83.7295 66.0148 83.6792 66.3167 83.6792C66.5683 83.6792 66.7695 83.7295 66.9205 83.7798C67.0714 83.8301 67.2727 83.9307 67.3733 84.0313L67.5243 84.1319L67.9771 83.4781L67.8262 83.3775C67.6249 83.2769 67.4237 83.1763 67.1721 83.0757C66.9205 83.0757 66.6186 83.0254 66.3167 83.0254Z" fill="#7A695D"/>
<path d="M68.9838 87.4515C69.2354 87.6527 69.4869 87.8539 69.7888 88.0048C70.0907 88.1557 70.3926 88.2059 70.7448 88.2059C70.8958 88.2059 71.0971 88.206 71.2983 88.1557C71.4996 88.1054 71.7009 88.0551 71.9021 88.0048C72.1034 87.9042 72.3047 87.8036 72.4556 87.703C72.5059 87.6527 72.5562 87.6024 72.6569 87.5521V88.1054H73.5626V83.2769H72.6569V83.7798C72.6065 83.7295 72.5059 83.6289 72.4556 83.5787C72.2543 83.4278 72.0531 83.3272 71.8518 83.2266C71.6505 83.126 71.4493 83.0757 71.248 83.0757C71.0467 83.0757 70.8958 83.0254 70.7448 83.0254C70.3926 83.0254 70.0404 83.0757 69.7385 83.2266C69.4366 83.3775 69.1347 83.5284 68.9335 83.7798C68.6819 84.0313 68.5309 84.2828 68.38 84.5846C68.229 84.8864 68.1787 85.2384 68.1787 85.5905C68.1787 85.9426 68.229 86.2947 68.38 86.6468C68.5309 86.9485 68.7322 87.2 68.9838 87.4515ZM69.185 84.8864C69.2857 84.6852 69.3863 84.484 69.5876 84.2828C69.7385 84.1319 69.9398 83.981 70.141 83.8804C70.3423 83.7798 70.5939 83.7295 70.8455 83.7295C71.0971 83.7295 71.3486 83.7798 71.5499 83.8804C71.7512 83.981 71.9524 84.0816 72.1034 84.2828C72.2543 84.4337 72.4053 84.6349 72.5059 84.8864C72.6066 85.0876 72.6569 85.339 72.6569 85.6408C72.6569 85.8923 72.6066 86.1438 72.5059 86.345C72.4053 86.5462 72.3047 86.7473 72.1537 86.8982C72.0028 87.0491 71.8015 87.2 71.6002 87.2503C71.1474 87.4515 70.5939 87.4515 70.1914 87.2503C69.9901 87.1497 69.7888 87.0491 69.6379 86.8982C69.4869 86.7473 69.336 86.5462 69.2354 86.345C69.1347 86.1438 69.0844 85.8923 69.0844 85.6408C69.0844 85.3893 69.1347 85.1379 69.185 84.8864Z" fill="#7A695D"/>
<path d="M74.9212 88.0547H75.8269V84.2824H77.2358V83.528H75.8269V82.7735C75.8269 82.6226 75.8269 82.522 75.8773 82.4717C75.8773 82.4215 75.9276 82.3712 75.9779 82.3209C76.0282 82.2706 76.0785 82.2706 76.1792 82.2706C76.2798 82.2706 76.3804 82.2706 76.5314 82.2706H77.3364V81.5161H76.2295C75.8269 81.5161 75.525 81.6167 75.3238 81.8682C75.1225 82.1197 75.0219 82.4215 75.0219 82.7735V83.528H74.1665V84.2824H75.0219V88.0547H74.9212Z" fill="#7A695D"/>
<path d="M78.0907 87.4515C78.3423 87.6527 78.5939 87.8539 78.8958 87.9545C79.1977 88.1054 79.5499 88.1557 79.9021 88.1557C80.6569 88.1557 81.2607 88.0048 81.7135 87.6527L81.8141 87.5521L81.4116 86.8479L81.2607 86.9988C81.1097 87.1497 80.9084 87.2503 80.6569 87.3006C80.4556 87.3509 80.204 87.4012 79.9524 87.4012C79.7009 87.4012 79.4493 87.3509 79.248 87.3006C79.0467 87.2 78.8455 87.0994 78.6945 86.9485C78.5436 86.7976 78.4429 86.6467 78.3423 86.4456C78.292 86.2947 78.2417 86.1438 78.2417 85.9929H82.267L82.3173 85.842C82.3173 85.7414 82.3173 85.6408 82.3173 85.4899C82.3173 85.339 82.3173 85.1881 82.267 85.0876C82.2167 84.7858 82.116 84.484 81.9651 84.2325C81.8141 83.981 81.6632 83.7798 81.4619 83.5787C81.2607 83.3775 81.0091 83.2769 80.7072 83.1763C80.4556 83.0757 80.1034 83.0254 79.7512 83.0254C79.399 83.0254 79.0467 83.0757 78.7448 83.2266C78.4429 83.3775 78.1914 83.5284 77.9398 83.7798C77.7385 84.0313 77.5372 84.2828 77.4366 84.5846C77.336 84.8864 77.2354 85.2384 77.2354 85.5905C77.2354 85.9426 77.2857 86.2947 77.4366 86.5965C77.6379 86.9485 77.8391 87.2503 78.0907 87.4515ZM78.3926 84.7355C78.4933 84.5343 78.5939 84.3331 78.7448 84.1822C78.8958 84.0313 79.0467 83.9307 79.248 83.8301C79.6505 83.6792 80.1537 83.6792 80.5059 83.8301C80.7072 83.9307 80.8581 84.0313 81.0091 84.1822C81.16 84.3331 81.2607 84.484 81.311 84.6852C81.3613 84.8361 81.4116 85.0373 81.4116 85.2384H78.2417C78.292 85.0876 78.3423 84.9367 78.3926 84.7355Z" fill="#7A695D"/>
</svg>
