<svg width="90" height="102" viewBox="0 0 90 102" fill="none" xmlns="http://www.w3.org/2000/svg">
<g clip-path="url(#clip0_90_402)">
<g opacity="0.91">
<path opacity="0.91" d="M43.2298 35.8501C43.0198 34.9601 43.3198 33.7901 42.7098 33.0501L42.5298 32.8501C43.3698 33.5901 43.0298 34.8501 43.2298 35.8501Z" fill="#5F4A3E"/>
<path opacity="0.91" d="M41.4297 31.54C41.4297 32.23 41.1797 32.95 41.1797 33.29C41.1797 32.93 41.4297 32.22 41.4297 31.54Z" fill="#5F4A3E"/>
<path opacity="0.91" d="M41.4099 30.3501C42.9199 30.3501 44.1299 32.2701 44.1399 33.8501C44.1399 32.2701 42.9199 30.3301 41.4099 30.3301C41.2899 30.3301 41.2599 30.3901 41.2699 30.4901C41.2699 30.3901 41.3099 30.3501 41.4099 30.3501Z" fill="#5F4A3E"/>
<path opacity="0.91" d="M41.27 30.46C41.27 30.62 41.42 30.98 41.43 31.54C41.4106 31.1757 41.3571 30.8142 41.27 30.46Z" fill="#5F4A3E"/>
<path opacity="0.91" d="M42.3599 32.6899C42.4972 32.7753 42.619 32.8836 42.7199 33.0099C43.4127 33.6639 43.84 34.5505 43.9199 35.4999C44.0604 34.961 44.1343 34.4069 44.1399 33.8499C44.1326 34.3903 44.0587 34.9277 43.9199 35.4499C43.8848 34.902 43.7263 34.3691 43.4561 33.8912C43.186 33.4132 42.8112 33.0026 42.3599 32.6899Z" fill="#5F4A3E"/>
<path opacity="0.91" d="M43.2297 35.8501C43.0297 34.8501 43.3697 33.6301 42.5497 32.9201C42.4897 32.9201 42.4297 32.8201 42.3597 32.7801C42.2897 32.7401 42.5297 32.8501 42.5297 32.8501L42.6997 32.9801C42.5988 32.8537 42.477 32.7455 42.3397 32.6601C42.791 32.9727 43.1658 33.3833 43.4359 33.8613C43.7061 34.3393 43.8646 34.8722 43.8997 35.4201C44.0385 34.8978 44.1124 34.3604 44.1197 33.8201C44.1197 32.2401 42.8997 30.3201 41.3897 30.3201C41.2897 30.3201 41.2497 30.3201 41.2497 30.4301C41.332 30.7581 41.3855 31.0927 41.4097 31.4301V31.4801C41.4097 32.1601 41.1697 32.8701 41.1597 33.2301C41.1838 33.8294 41.3971 34.4057 41.769 34.8764C42.1408 35.3471 42.6522 35.6879 43.2297 35.8501Z" fill="#5F4A3E"/>
<path opacity="0.91" d="M53.9097 35.58C54.6897 34.85 56.1197 34.52 56.1597 33.24C56.1137 33.7905 55.943 34.3233 55.6606 34.798C55.3782 35.2727 54.9915 35.6769 54.5297 35.98C55.061 35.8352 55.5717 35.6235 56.0497 35.35C57.4097 34.55 58.4597 32.52 57.6997 31.21C57.5297 30.93 57.3597 31.43 56.6997 31.84C56.0397 32.25 55.3397 32.35 55.0397 32.53C54.5627 32.8625 54.1988 33.3328 53.9969 33.878C53.7949 34.4232 53.7645 35.0171 53.9097 35.58Z" fill="#5F4A3E"/>
<path opacity="0.91" d="M45.7796 33.71C45.5196 34.2 45.0696 34.61 44.9396 34.86C44.7517 35.2793 44.6979 35.7465 44.7856 36.1976C44.8733 36.6487 45.0983 37.0616 45.4296 37.38C45.6496 36.56 46.4796 35.76 45.9796 34.88C46.1675 35.2699 46.265 35.6972 46.265 36.13C46.265 36.5628 46.1675 36.9901 45.9796 37.38C46.2758 37.0607 46.5341 36.7084 46.7496 36.33C47.3396 35.24 47.2196 33.44 46.1696 32.87C45.9896 32.75 46.0796 33.15 45.7796 33.71Z" fill="#5F4A3E"/>
<path opacity="0.91" d="M37.77 39.1301C37.77 39.3801 38.09 39.1301 38.71 39.2801C39.33 39.4301 39.79 39.6701 40.06 39.7201C40.5166 39.7676 40.9768 39.6731 41.3777 39.4494C41.7786 39.2257 42.1007 38.8837 42.3 38.4701C41.46 38.4701 40.44 37.9801 39.76 38.7201C40.0628 38.4072 40.4322 38.1665 40.8408 38.0159C41.2493 37.8653 41.6866 37.8086 42.12 37.8501C41.7259 37.6721 41.3134 37.5379 40.89 37.4501C39.66 37.2701 37.98 37.9501 37.77 39.1301Z" fill="#5F4A3E"/>
<path opacity="0.91" d="M36.7898 34.6299C37.1098 35.0699 37.2999 35.6299 37.4599 35.8699C37.7595 36.2187 38.1584 36.4678 38.6033 36.5839C39.0482 36.7 39.518 36.6777 39.9498 36.5199C39.3098 35.9699 38.9498 34.8699 37.9498 34.9399C38.3803 34.9268 38.8082 35.0098 39.2026 35.1828C39.597 35.3557 39.9479 35.6144 40.2299 35.9399C40.061 35.5522 39.8461 35.1862 39.5899 34.8499C38.8599 33.8499 37.1699 33.1799 36.2099 33.8499C35.9999 34.0199 36.4098 34.1099 36.7898 34.6299Z" fill="#5F4A3E"/>
<path opacity="0.91" d="M34.3997 44.0801C34.2197 43.2301 34.6597 42.0801 33.7097 41.5201C34.0977 41.7761 34.4191 42.1211 34.6469 42.5264C34.8748 42.9317 35.0026 43.3855 35.0197 43.8501C35.1576 43.4256 35.2416 42.9855 35.2697 42.5401C35.2697 41.2601 34.2697 39.6501 32.9397 39.6001C32.6397 39.6001 32.9397 39.9201 32.9397 40.6001C32.9397 41.2801 32.6697 41.7601 32.6597 42.0401C32.7071 42.517 32.8992 42.968 33.2102 43.3326C33.5212 43.6972 33.9362 43.958 34.3997 44.0801Z" fill="#5F4A3E"/>
<path opacity="0.91" d="M30.2597 45.62C30.4637 46.0635 30.644 46.5174 30.7998 46.98C31.0935 47.3802 31.5045 47.679 31.9758 47.8349C32.4472 47.9908 32.9553 47.9961 33.4298 47.85C32.8098 47.23 32.5798 46.05 31.4298 46.07C31.8871 46.0738 32.337 46.1864 32.7421 46.3985C33.1473 46.6107 33.4961 46.9163 33.7597 47.29C33.6533 46.8564 33.4885 46.4393 33.2698 46.05C32.6198 44.94 30.8798 44.14 29.7098 44.83C29.5298 44.94 29.9297 45.06 30.2597 45.62Z" fill="#5F4A3E"/>
<path opacity="0.91" d="M34.6098 50.2101C34.3199 49.8593 33.9835 49.5498 33.6098 49.2901C32.5598 48.5601 30.6098 48.5701 29.8798 49.6801C29.7098 49.9201 30.1498 49.8501 30.6898 50.2201C31.0599 50.5352 31.4137 50.869 31.7498 51.2201C32.1919 51.4638 32.7004 51.5594 33.2007 51.4928C33.7011 51.4262 34.1669 51.2009 34.5298 50.8501C33.7098 50.5501 32.9998 49.5801 31.9998 50.0601C32.4166 49.8805 32.8695 49.8006 33.3225 49.8267C33.7756 49.8527 34.2164 49.984 34.6098 50.2101Z" fill="#5F4A3E"/>
<path opacity="0.91" d="M35.4699 47.35C35.4699 47.91 35.3099 48.52 35.3299 48.8C35.4171 49.2925 35.6573 49.745 36.0163 50.0933C36.3753 50.4415 36.835 50.6678 37.3299 50.74C37.0599 49.91 37.3899 48.74 36.3899 48.26C36.7973 48.4712 37.1486 48.7763 37.4146 49.1502C37.6807 49.524 37.8539 49.9559 37.9199 50.41C38.0192 49.974 38.0595 49.5267 38.0399 49.08C37.9599 47.8 36.7799 46.29 35.4299 46.37C35.0999 46.39 35.4299 46.69 35.4699 47.35Z" fill="#5F4A3E"/>
<path opacity="0.91" d="M37.1296 53.4C36.5796 54.56 36.8996 56.45 38.1296 57.02C38.3896 57.15 38.2496 56.72 38.5296 56.13C38.8096 55.54 39.2196 55.13 39.3396 54.91C39.4993 54.4432 39.5079 53.9379 39.3643 53.4659C39.2207 52.9938 38.9322 52.5789 38.5396 52.28C38.3796 53.14 37.5396 54 38.1796 54.91C37.9267 54.528 37.7669 54.0919 37.7131 53.6369C37.6592 53.1819 37.7129 52.7206 37.8696 52.29C37.5701 52.6219 37.3208 52.9959 37.1296 53.4Z" fill="#5F4A3E"/>
<path opacity="0.91" d="M33.25 55.4999C33.78 55.3199 34.42 55.3299 34.69 55.2399C35.1333 55.0302 35.5 54.6869 35.7385 54.2583C35.977 53.8297 36.0754 53.3373 36.02 52.8499C35.29 53.3199 34.09 53.3199 33.89 54.4099C33.989 53.9691 34.1911 53.5581 34.4796 53.2104C34.7682 52.8628 35.135 52.5885 35.55 52.4099C35.1006 52.4248 34.6558 52.5057 34.23 52.6499C33.02 53.0599 31.89 54.6499 32.33 55.8799C32.43 56.1199 32.63 55.7099 33.25 55.4999Z" fill="#5F4A3E"/>
<path opacity="0.91" d="M43.1699 43.7501C43.4837 43.4522 43.7592 43.1162 43.9899 42.7501C44.6499 41.6901 44.6399 39.8801 43.6199 39.2501C43.3999 39.1201 43.4699 39.5301 43.1299 40.0701C42.7899 40.6101 42.3699 40.9301 42.2299 41.1601C42.0124 41.5646 41.9246 42.0262 41.9782 42.4823C42.0319 42.9384 42.2245 43.367 42.5299 43.7101C42.7999 42.9101 43.6699 42.1501 43.2299 41.2501C43.4077 41.6447 43.4946 42.0742 43.4843 42.5069C43.4739 42.9396 43.3664 43.3645 43.1699 43.7501Z" fill="#5F4A3E"/>
<path opacity="0.91" d="M38.5298 43.03C38.2498 43.15 38.6598 43.3 38.8998 43.85C39.0326 44.284 39.1427 44.7246 39.2298 45.17C39.484 45.5727 39.858 45.8857 40.2992 46.0651C40.7404 46.2444 41.2267 46.2811 41.6898 46.17C41.1798 45.53 41.1198 44.41 40.0298 44.33C40.4641 44.3642 40.8835 44.5042 41.2513 44.7378C41.6191 44.9714 41.9241 45.2914 42.1398 45.67C42.0944 45.2583 41.9935 44.8546 41.8398 44.47C41.5545 43.8711 41.0624 43.3955 40.4541 43.1309C39.8459 42.8663 39.1624 42.8304 38.5298 43.03Z" fill="#5F4A3E"/>
<path opacity="0.91" d="M45.9697 45.1999C45.6297 45.5099 45.1597 45.7099 44.9697 45.8599C44.7055 46.1312 44.5305 46.4767 44.4679 46.8502C44.4054 47.2237 44.4583 47.6073 44.6197 47.9499C45.0297 47.3799 45.8997 46.9499 45.7697 46.1599C45.8079 46.515 45.7667 46.8742 45.6491 47.2114C45.5315 47.5487 45.3404 47.8556 45.0897 48.1099C45.41 47.9474 45.7089 47.7459 45.9797 47.5099C46.7497 46.8199 47.1797 45.3899 46.5297 44.6599C46.4097 44.5099 46.3597 44.8499 45.9697 45.1999Z" fill="#5F4A3E"/>
<path opacity="0.91" d="M52.3698 36.92C52.2898 36.08 52.7698 35.03 51.9898 34.39C52.311 34.6814 52.563 35.041 52.7274 35.4424C52.8918 35.8438 52.9643 36.2769 52.9398 36.71C53.0998 36.3047 53.2106 35.8817 53.2698 35.45C53.4298 34.22 52.6598 32.58 51.4798 32.45C51.2198 32.45 51.4798 32.77 51.3798 33.45C51.2798 34.13 51.0398 34.55 51.0098 34.82C51.0005 35.2659 51.1251 35.7043 51.3675 36.0786C51.61 36.453 51.9591 36.7461 52.3698 36.92Z" fill="#5F4A3E"/>
<path opacity="0.91" d="M55.02 37.2701C54.79 37.1601 54.91 37.5701 54.64 38.1401C54.37 38.7101 53.98 39.0801 53.86 39.3301C53.6931 39.7673 53.668 40.246 53.7882 40.6982C53.9085 41.1505 54.168 41.5535 54.53 41.8501C54.7 41.0301 55.53 40.1701 54.94 39.3301C55.1593 39.7032 55.2904 40.1215 55.3233 40.5531C55.3563 40.9846 55.2901 41.418 55.13 41.8201C55.411 41.4877 55.6495 41.1215 55.84 40.7301C56.33 39.5701 56.11 37.7801 55.02 37.2701Z" fill="#5F4A3E"/>
<path opacity="0.91" d="M54.9696 45.2199C55.4596 44.5299 56.5095 44.0499 56.3395 43.0599C56.3929 43.4881 56.3486 43.9229 56.2101 44.3316C56.0715 44.7403 55.8423 45.1124 55.5396 45.4199C55.9302 45.2295 56.2935 44.9873 56.6195 44.6999C57.5395 43.8699 58.0396 42.1299 57.2396 41.2399C57.0696 41.0499 57.0195 41.4599 56.5495 41.8899C56.1697 42.1728 55.7759 42.4365 55.3695 42.6799C55.0526 43.0124 54.8446 43.4337 54.7731 43.8875C54.7017 44.3412 54.7702 44.806 54.9696 45.2199Z" fill="#5F4A3E"/>
<path opacity="0.91" d="M61.9196 40.7499C62.4596 40.1099 63.5496 39.7499 63.4696 38.7499C63.4834 39.1819 63.4009 39.6116 63.2279 40.0077C63.0549 40.4038 62.7959 40.7564 62.4696 41.0399C62.87 40.8756 63.2493 40.6641 63.5996 40.4099C64.5996 39.6599 65.2396 37.9699 64.5196 37.0199C64.3596 36.8099 64.2796 37.2199 63.7696 37.5999C63.2596 37.9799 62.7696 38.1299 62.5296 38.2899C62.1914 38.5904 61.9521 38.9862 61.8432 39.4253C61.7343 39.8644 61.7609 40.3262 61.9196 40.7499Z" fill="#5F4A3E"/>
<path opacity="0.91" d="M63.9397 46.99C64.5597 46.42 65.6897 46.18 65.7397 45.18C65.6985 45.6105 65.5612 46.0262 65.338 46.3966C65.1147 46.767 64.8112 47.0825 64.4497 47.32C64.8667 47.2061 65.2693 47.0451 65.6497 46.84C66.7397 46.23 67.5897 44.64 67.0097 43.6C66.8797 43.37 66.7397 43.77 66.1897 44.08C65.6397 44.39 65.1097 44.47 64.8697 44.6C64.4876 44.8542 64.1932 45.2202 64.0268 45.6479C63.8603 46.0756 63.8299 46.5443 63.9397 46.99Z" fill="#5F4A3E"/>
<path opacity="0.91" d="M66.0896 48.4199C66.0896 48.1599 65.7696 48.4199 65.0896 48.4199C64.4096 48.4199 63.9696 48.1499 63.6996 48.1399C63.2404 48.144 62.7937 48.2905 62.4211 48.5592C62.0486 48.8278 61.7686 49.2054 61.6196 49.6399C62.4496 49.4999 63.5296 49.9099 64.1096 49.0899C63.8447 49.4317 63.5051 49.7085 63.1169 49.8991C62.7287 50.0897 62.3021 50.1892 61.8696 50.1899C62.2803 50.3279 62.7073 50.4119 63.1396 50.4399C64.4296 50.4799 66.0196 49.6099 66.0896 48.4199Z" fill="#5F4A3E"/>
<path opacity="0.91" d="M60.3496 49.2601C60.7189 49.0066 61.0549 48.7075 61.3496 48.3701C62.1396 47.3701 62.3496 45.6201 61.4396 44.8601C61.2296 44.7001 61.2496 45.1101 60.8496 45.6101C60.4496 46.1101 59.9796 46.3601 59.8496 46.6101C59.5858 46.9867 59.4443 47.4353 59.4443 47.8951C59.4443 48.3549 59.5858 48.8035 59.8496 49.1801C60.2196 48.4201 61.1896 47.7901 60.8496 46.8301C60.954 47.2467 60.9633 47.6815 60.8768 48.1021C60.7902 48.5228 60.61 48.9186 60.3496 49.2601Z" fill="#5F4A3E"/>
<path opacity="0.91" d="M60.5297 40.0999C60.3597 39.9699 60.3697 40.3099 60.0397 40.7199C59.7097 41.1299 59.3297 41.3399 59.1897 41.5099C58.9719 41.8186 58.855 42.1871 58.855 42.5649C58.855 42.9427 58.9719 43.3112 59.1897 43.6199C59.4897 42.9999 60.2897 42.4799 60.0197 41.6899C60.1153 42.0276 60.1344 42.3823 60.0756 42.7283C60.0167 43.0743 59.8815 43.4028 59.6797 43.6899C59.9679 43.4786 60.2297 43.2335 60.4597 42.9599C61.0997 42.1999 61.2897 40.7199 60.5297 40.0999Z" fill="#5F4A3E"/>
<path opacity="0.91" d="M62.25 53.19C61.92 52.75 61.73 52.19 61.56 51.95C61.2569 51.6063 60.8553 51.3642 60.4098 51.2569C59.9642 51.1495 59.4964 51.182 59.07 51.35C59.71 51.89 60.07 52.98 61.07 52.89C60.6362 52.9068 60.2041 52.8256 59.8059 52.6525C59.4077 52.4794 59.0536 52.2188 58.77 51.89C58.94 52.2896 59.1547 52.6687 59.41 53.02C60.16 54.02 61.85 54.65 62.8 53.93C63.05 53.78 62.64 53.7 62.25 53.19Z" fill="#5F4A3E"/>
<path opacity="0.91" d="M60.2 34.4099C60.0526 34.8164 59.8149 35.1842 59.5049 35.4855C59.1948 35.7869 58.8205 36.0141 58.41 36.1499C58.8451 36.1522 59.2786 36.0984 59.7 35.9899C60.9 35.6699 62.13 34.3499 61.83 33.1999C61.76 32.9399 61.53 33.2899 60.91 33.4599C60.29 33.6299 59.77 33.5599 59.5 33.6299C59.0671 33.7814 58.6911 34.0621 58.4229 34.434C58.1546 34.806 58.007 35.2514 58 35.7099C58.75 35.3199 59.9 35.3699 60.2 34.4099Z" fill="#5F4A3E"/>
<path opacity="0.91" d="M58.1398 37.1799C57.7298 37.5399 57.1398 37.7799 56.9598 37.9699C56.6413 38.2994 56.4319 38.7191 56.3604 39.1718C56.2888 39.6245 56.3584 40.0882 56.5598 40.4999C57.0498 39.8099 58.0998 39.3399 57.9298 38.3499C57.9825 38.7781 57.9379 39.2127 57.7993 39.6213C57.6608 40.0299 57.432 40.402 57.1298 40.7099C57.5132 40.5122 57.8723 40.2705 58.1998 39.9899C59.1298 39.1599 59.6298 37.4199 58.8398 36.5299C58.6698 36.3399 58.6198 36.7499 58.1398 37.1799Z" fill="#5F4A3E"/>
<path opacity="0.91" d="M49.01 33.5499C49.21 32.8199 49.95 32.0999 49.51 31.3099C49.6807 31.6604 49.7693 32.0451 49.7693 32.4349C49.7693 32.8247 49.6807 33.2094 49.51 33.5599C49.7771 33.2755 50.0087 32.9599 50.2 32.6199C50.73 31.6199 50.63 29.9999 49.68 29.4899C49.47 29.3799 49.56 29.7499 49.28 30.2499C49.0485 30.5967 48.7981 30.9306 48.53 31.2499C48.3571 31.6349 48.3105 32.0647 48.3967 32.4778C48.4829 32.891 48.6976 33.2662 49.01 33.5499Z" fill="#5F4A3E"/>
<path opacity="0.91" d="M55.0997 29.9201C55.1015 30.3013 55.019 30.6783 54.8583 31.024C54.6975 31.3697 54.4624 31.6757 54.1697 31.9201C54.5239 31.7733 54.8596 31.5854 55.1697 31.3601C56.0797 30.7001 56.6797 29.1901 56.0497 28.3601C55.9097 28.1701 55.8297 28.5401 55.3597 28.8801C54.8897 29.2201 54.4397 29.3301 54.2397 29.4801C53.9211 29.746 53.6932 30.1046 53.5874 30.5059C53.4817 30.9073 53.5035 31.3316 53.6497 31.7201C54.1797 31.1501 55.1697 30.8501 55.0997 29.9201Z" fill="#5F4A3E"/>
<path opacity="0.91" d="M47.9898 28.5501C48.0468 28.8978 48.0243 29.254 47.9238 29.5917C47.8234 29.9295 47.6476 30.2401 47.4098 30.5001C47.7174 30.3289 48.0028 30.1207 48.2598 29.8801C48.9998 29.1701 49.3498 27.7401 48.6698 27.0401C48.5298 26.8801 48.4998 27.2301 48.1198 27.5901C47.7398 27.9501 47.3498 28.1101 47.1898 28.2701C46.9402 28.5495 46.7824 28.8988 46.7377 29.2708C46.693 29.6427 46.7635 30.0195 46.9398 30.3501C47.3098 29.7701 48.1598 29.3501 47.9898 28.5501Z" fill="#5F4A3E"/>
<path opacity="0.91" d="M44.1798 31.0301C44.3231 31.3773 44.5699 31.6721 44.8866 31.8742C45.2032 32.0764 45.5744 32.1762 45.9498 32.1601C45.5898 31.5701 45.5798 30.6301 44.7798 30.4301C45.124 30.5342 45.4394 30.7166 45.7014 30.9629C45.9634 31.2093 46.1647 31.5129 46.2898 31.8501C46.2687 31.5101 46.2048 31.1741 46.0998 30.8501C45.7898 29.8501 44.6498 28.9301 43.7298 29.2401C43.5198 29.3001 43.8198 29.4801 43.9798 29.9701C44.1398 30.4601 44.1098 30.8501 44.1798 31.0301Z" fill="#5F4A3E"/>
<path opacity="0.91" d="M34.0896 36.9401C34.3796 37.2901 34.5695 37.7501 34.7195 37.9401C34.9831 38.2062 35.3224 38.3846 35.691 38.4508C36.0597 38.517 36.4398 38.4679 36.7796 38.3101C36.2196 37.9001 35.8495 37.0301 35.0395 37.1501C35.3917 37.1139 35.7474 37.1582 36.08 37.2794C36.4126 37.4007 36.7133 37.5958 36.9596 37.8501C36.8027 37.5334 36.6116 37.235 36.3896 36.9601C35.7196 36.1901 34.3196 35.7501 33.5696 36.3801C33.4096 36.5001 33.7496 36.5501 34.0896 36.9401Z" fill="#5F4A3E"/>
<path opacity="0.91" d="M51.5298 29.42C51.6468 29.7079 51.8498 29.9527 52.1111 30.1209C52.3724 30.2891 52.6793 30.3726 52.9898 30.36C52.6898 29.87 52.6898 29.09 51.9898 28.93C52.2678 29.0136 52.5236 29.1585 52.7382 29.3541C52.9528 29.5496 53.1208 29.7909 53.2298 30.06C53.2139 29.7685 53.1635 29.4798 53.0798 29.2C52.8198 28.41 51.8798 27.63 51.0798 27.88C50.9098 27.88 51.1498 28.07 51.2798 28.48C51.4098 28.89 51.4298 29.25 51.5298 29.42Z" fill="#5F4A3E"/>
<path opacity="0.91" d="M37.8299 31.9999C38.0843 32.1932 38.328 32.4002 38.5599 32.6199C38.8321 32.7684 39.1437 32.829 39.4517 32.7932C39.7597 32.7573 40.049 32.6269 40.2799 32.4199C39.7499 32.2299 39.2799 31.6299 38.6299 31.9199C38.8987 31.8078 39.1893 31.7577 39.4802 31.7733C39.771 31.7889 40.0546 31.8698 40.3099 32.0099C40.1162 31.7943 39.8942 31.6059 39.6499 31.4499C39.2937 31.2026 38.8616 31.089 38.4298 31.1293C37.998 31.1695 37.5943 31.361 37.2899 31.6699C37.1999 31.8499 37.4699 31.7699 37.8299 31.9999Z" fill="#5F4A3E"/>
<path opacity="0.91" d="M39.0796 41.6399L39.2296 41.5399C38.8296 41.3799 38.4596 40.9699 38.0296 40.8999C37.8834 40.9081 37.7389 40.9349 37.5996 40.9799C38.2096 40.7899 38.6196 41.3599 39.0796 41.6399Z" fill="#5F4A3E"/>
<path opacity="0.91" d="M39.05 41.0201L39.28 41.1401C39.0951 40.9152 38.8836 40.7137 38.65 40.5401C38.2295 40.2483 37.7197 40.1138 37.21 40.1601C37.7414 40.1405 38.2625 40.3106 38.68 40.6401C38.81 40.7601 38.93 40.8501 39.05 41.0201Z" fill="#5F4A3E"/>
<path opacity="0.91" d="M36.8099 40.9901L37.0199 41.1601C36.9499 41.0901 36.8799 41.0101 36.8099 40.9501C36.5499 40.7301 36.3199 40.6901 36.2899 40.6101C36.1799 40.7601 36.4599 40.7401 36.8099 40.9901Z" fill="#5F4A3E"/>
<path opacity="0.91" d="M49.0396 35.4099C49.0292 35.6699 49.0983 35.9269 49.2376 36.1467C49.377 36.3664 49.58 36.5385 49.8196 36.6399C49.8196 36.1699 50.0396 35.5699 49.5996 35.2099C49.7836 35.3726 49.9279 35.5752 50.0215 35.8023C50.1151 36.0294 50.1555 36.2748 50.1396 36.5199C50.2293 36.3049 50.293 36.08 50.3296 35.8499C50.4096 35.1499 49.9696 34.2299 49.3296 34.1499C49.1796 34.1499 49.3296 34.3299 49.2696 34.6799C49.2063 34.9273 49.1295 35.1709 49.0396 35.4099Z" fill="#5F4A3E"/>
<path opacity="0.91" d="M52.7898 47.66C52.7314 47.3818 52.6443 47.1103 52.5298 46.85C52.1998 46.08 51.1998 45.38 50.4598 45.7C50.2998 45.77 50.5598 45.89 50.7198 46.28C50.8798 46.67 50.8998 47.04 50.9698 47.21C51.1125 47.4838 51.3356 47.7072 51.6092 47.8503C51.8828 47.9933 52.1936 48.0491 52.4998 48.01C52.1698 47.55 52.0898 46.78 51.4198 46.67C51.7091 46.7181 51.9833 46.8326 52.221 47.0043C52.4586 47.1761 52.6533 47.4005 52.7898 47.66Z" fill="#5F4A3E"/>
<path opacity="0.91" d="M51.1699 42.85C51.1693 43.1598 51.2653 43.4621 51.4446 43.7148C51.6238 43.9675 51.8773 44.1581 52.1699 44.26C52.0799 43.7 52.3699 42.98 51.8199 42.58C52.0467 42.7621 52.2287 42.9939 52.3518 43.2574C52.4749 43.5209 52.5358 43.8092 52.5299 44.1C52.6332 43.8236 52.6972 43.5341 52.7199 43.24C52.7799 42.41 52.1999 41.33 51.3999 41.24C51.2299 41.24 51.3999 41.46 51.3999 41.88C51.3999 42.3 51.1799 42.66 51.1699 42.85Z" fill="#5F4A3E"/>
<path opacity="0.91" d="M46.3898 51.9399C46.5737 51.7132 46.7345 51.4687 46.8698 51.2099C47.0794 50.8202 47.1433 50.3685 47.0498 49.9359C46.9563 49.5034 46.7117 49.1183 46.3598 48.8499C46.1998 48.7799 46.2698 49.0499 46.0898 49.4399C45.9098 49.8299 45.6398 50.0699 45.5598 50.2299C45.449 50.5192 45.4299 50.8356 45.505 51.1361C45.5802 51.4366 45.7459 51.7068 45.9798 51.9099C46.0998 51.3599 46.6298 50.7899 46.2698 50.2199C46.421 50.478 46.5106 50.7675 46.5314 51.0659C46.5522 51.3642 46.5037 51.6634 46.3898 51.9399Z" fill="#5F4A3E"/>
<path opacity="0.91" d="M36.22 43.68C36.32 44.04 36.3 44.45 36.35 44.68C36.4532 44.9718 36.6441 45.2245 36.8965 45.4035C37.1489 45.5826 37.4506 45.6791 37.76 45.68C37.49 45.19 37.52 44.41 36.87 44.21C37.1429 44.31 37.3908 44.4682 37.5963 44.6738C37.8018 44.8793 37.96 45.1271 38.06 45.4C38.0545 45.1096 38.0142 44.8209 37.94 44.54C37.72 43.73 36.81 42.91 36.04 43.13C35.87 43.11 36.11 43.27 36.22 43.68Z" fill="#5F4A3E"/>
<path opacity="0.91" d="M37.2096 40.16C37.0412 40.156 36.8739 40.1879 36.7188 40.2534C36.5636 40.3189 36.4242 40.4166 36.3096 40.54C36.3096 40.54 36.3096 40.59 36.3096 40.61C36.419 40.4753 36.5558 40.3655 36.711 40.2879C36.8662 40.2103 37.0362 40.1667 37.2096 40.16Z" fill="#5F4A3E"/>
<path opacity="0.91" d="M37.6099 40.95C37.7427 40.8955 37.8879 40.8782 38.0299 40.9C38.47 40.9017 38.8992 41.0377 39.2599 41.29L39.0499 41.02C38.598 40.8073 38.0803 40.7822 37.6099 40.95Z" fill="#5F4A3E"/>
<path opacity="0.91" d="M37.5298 41.6499C37.4198 41.5699 37.2498 41.3499 37.0498 41.1599C37.2298 41.3599 37.3698 41.5799 37.4698 41.6599C37.7223 41.8399 38.0247 41.9367 38.3348 41.9367C38.6449 41.9367 38.9473 41.8399 39.1998 41.6599L39.1098 41.6099C38.8771 41.7652 38.6052 41.8514 38.3256 41.8585C38.0459 41.8656 37.77 41.7932 37.5298 41.6499Z" fill="#5F4A3E"/>
<path opacity="0.91" d="M37.0196 41.16C37.2196 41.35 37.3896 41.57 37.4996 41.65C37.736 41.7992 38.0099 41.8785 38.2896 41.8785C38.5692 41.8785 38.8431 41.7992 39.0796 41.65C38.6196 41.37 38.2096 40.8 37.5996 40.99C37.7389 40.945 37.8834 40.9181 38.0296 40.91C37.8876 40.8882 37.7424 40.9054 37.6096 40.96C38.0799 40.7921 38.5977 40.8173 39.0496 41.03C38.9296 40.9 38.8096 40.77 38.6796 40.65C38.2621 40.3205 37.741 40.1504 37.2096 40.17C37.0328 40.1738 36.8589 40.2161 36.7 40.2938C36.5412 40.3715 36.4011 40.4828 36.2896 40.62C36.2896 40.7 36.5496 40.74 36.8096 40.96C36.8796 41.01 36.9496 41.09 37.0196 41.16Z" fill="#5F4A3E"/>
<path opacity="0.91" d="M40.5298 54.08C40.352 54.4757 40.3197 54.9215 40.4387 55.3387C40.5576 55.7558 40.8201 56.1176 41.1798 56.36C41.3398 56.42 41.2498 56.16 41.4098 55.76C41.5698 55.36 41.8198 55.1 41.8898 54.93C41.9827 54.6349 41.9826 54.3183 41.8895 54.0232C41.7965 53.7281 41.6151 53.4686 41.3698 53.28C41.2898 53.84 40.7898 54.44 41.1798 54.99C41.021 54.7456 40.9196 54.4684 40.8832 54.1791C40.8468 53.8899 40.8764 53.5962 40.9698 53.32C40.7926 53.5544 40.6448 53.8096 40.5298 54.08Z" fill="#5F4A3E"/>
<path opacity="0.91" d="M58.35 46.9501C58.5432 46.731 58.714 46.4931 58.86 46.2401C59.0712 45.8617 59.1428 45.4211 59.0624 44.9953C58.9819 44.5695 58.7546 44.1854 58.42 43.9101C58.26 43.8301 58.33 44.1001 58.14 44.4801C57.9676 44.7501 57.7807 45.0105 57.58 45.2601C57.4617 45.5475 57.4337 45.8641 57.4998 46.1678C57.5659 46.4715 57.723 46.7478 57.95 46.9601C58.08 46.4101 58.63 45.8501 58.29 45.2701C58.4275 45.527 58.5044 45.8119 58.5148 46.1031C58.5252 46.3943 58.4688 46.684 58.35 46.9501Z" fill="#5F4A3E"/>
<path opacity="0.91" d="M54.5298 52.3401C54.2939 52.5109 54.082 52.7128 53.8998 52.9401C53.6187 53.2709 53.4644 53.6909 53.4644 54.1251C53.4644 54.5592 53.6187 54.9792 53.8998 55.3101C54.0398 55.4201 54.0298 55.1401 54.2898 54.8001C54.5498 54.4601 54.8698 54.2901 54.9898 54.1501C55.1685 53.897 55.2644 53.5949 55.2644 53.2851C55.2644 52.9753 55.1685 52.6732 54.9898 52.4201C54.7498 52.9301 54.0998 53.3601 54.3198 54.0001C54.228 53.7254 54.1992 53.4335 54.2356 53.1461C54.2719 52.8588 54.3725 52.5833 54.5298 52.3401Z" fill="#5F4A3E"/>
<path opacity="0.91" d="M63.3899 44.51C63.6157 44.323 63.8203 44.1118 63.9999 43.88C64.2688 43.5386 64.4073 43.1127 64.3908 42.6785C64.3743 42.2443 64.2039 41.8301 63.9099 41.51C63.7699 41.41 63.7999 41.69 63.5499 42.03C63.2999 42.37 62.9899 42.57 62.8899 42.72C62.727 42.9838 62.6492 43.2913 62.6671 43.6008C62.685 43.9103 62.7977 44.2068 62.9899 44.45C63.2099 43.93 63.8299 43.45 63.5799 42.83C63.6786 43.106 63.7127 43.4009 63.6798 43.6921C63.6469 43.9833 63.5477 44.2631 63.3899 44.51Z" fill="#5F4A3E"/>
<path opacity="0.91" d="M58.35 53.1701C58.3412 52.8184 58.2241 52.4779 58.0147 52.1951C57.8054 51.9124 57.5138 51.7011 57.18 51.5901C57.29 52.2201 56.98 53.0501 57.61 53.5001C57.3476 53.2962 57.1348 53.0355 56.9876 52.7376C56.8404 52.4397 56.7626 52.1124 56.76 51.7801C56.6543 52.104 56.5905 52.44 56.57 52.7801C56.52 53.7801 57.2 54.9401 58.11 54.9901C58.31 54.9901 58.11 54.7501 58.11 54.2601C58.1688 53.8924 58.2489 53.5285 58.35 53.1701Z" fill="#5F4A3E"/>
<path opacity="0.91" d="M61.3599 36.3699C61.0699 36.6099 60.6899 36.7499 60.5399 36.8699C60.3179 37.0856 60.1666 37.3636 60.1059 37.6671C60.0452 37.9706 60.078 38.2854 60.1999 38.5699C60.5499 38.1199 61.2699 37.8299 61.1999 37.1499C61.22 37.4419 61.1758 37.7347 61.0704 38.0077C60.965 38.2807 60.801 38.5272 60.5899 38.7299C60.8526 38.604 61.1007 38.4497 61.3299 38.2699C61.6763 38.0091 61.9194 37.6343 62.0163 37.2116C62.1133 36.789 62.0579 36.3457 61.8599 35.9599C61.7299 35.8499 61.6899 36.0999 61.3599 36.3699Z" fill="#5F4A3E"/>
<path opacity="0.91" d="M47 38.3099C47 38.5809 47.0803 38.8458 47.2309 39.0711C47.3814 39.2964 47.5954 39.472 47.8457 39.5757C48.0961 39.6793 48.3715 39.7065 48.6373 39.6536C48.903 39.6008 49.1471 39.4703 49.3387 39.2787C49.5303 39.0871 49.6608 38.843 49.7137 38.5772C49.7665 38.3115 49.7394 38.036 49.6357 37.7857C49.532 37.5353 49.3564 37.3214 49.1311 37.1708C48.9058 37.0203 48.641 36.9399 48.37 36.9399C48.0067 36.9399 47.6582 37.0843 47.4013 37.3412C47.1443 37.5981 47 37.9466 47 38.3099Z" fill="#5F4A3E"/>
<path opacity="0.91" d="M55.2896 47.76C55.2896 47.9578 55.3482 48.1511 55.4581 48.3156C55.568 48.48 55.7241 48.6082 55.9069 48.6839C56.0896 48.7596 56.2907 48.7794 56.4846 48.7408C56.6786 48.7022 56.8568 48.607 56.9967 48.4671C57.1365 48.3273 57.2317 48.1491 57.2703 47.9551C57.3089 47.7611 57.2891 47.5601 57.2134 47.3773C57.1377 47.1946 57.0096 47.0384 56.8451 46.9285C56.6807 46.8187 56.4873 46.76 56.2896 46.76C56.0243 46.76 55.77 46.8654 55.5824 47.0529C55.3949 47.2404 55.2896 47.4948 55.2896 47.76Z" fill="#5F4A3E"/>
<path opacity="0.91" d="M40.4399 48.21C40.2422 48.21 40.0488 48.2686 39.8844 48.3785C39.7199 48.4884 39.5918 48.6446 39.5161 48.8273C39.4404 49.01 39.4206 49.2111 39.4592 49.4051C39.4977 49.599 39.593 49.7772 39.7328 49.9171C39.8727 50.0569 40.0509 50.1522 40.2449 50.1907C40.4388 50.2293 40.6399 50.2095 40.8226 50.1338C41.0054 50.0582 41.1615 49.93 41.2714 49.7655C41.3813 49.6011 41.4399 49.4077 41.4399 49.21C41.4399 48.9447 41.3346 48.6904 41.147 48.5029C40.9595 48.3153 40.7052 48.21 40.4399 48.21Z" fill="#5F4A3E"/>
<path opacity="0.91" d="M57.33 49.7101C51.53 49.7101 54.53 52.3801 54.53 46.6401C54.5438 44.7201 53.9292 42.8483 52.78 41.3101C53.3521 42.4778 53.6529 43.7598 53.66 45.0601C53.46 48.0601 49.66 57.3801 50.09 45.8601C50.24 41.9301 51.34 38.1401 55.48 36.5001C52.14 36.6501 49.29 39.8501 48.39 42.8501C47.18 39.7701 44.71 37.7401 42.15 35.8501C45.85 40.5201 48.21 42.7301 48.22 49.4001C48.22 58.8701 44.15 52.4001 44.15 47.9401C44.1507 46.2708 44.5483 44.6255 45.31 43.1401C44.4922 43.8009 43.8319 44.6356 43.377 45.5835C42.9221 46.5314 42.684 47.5687 42.68 48.6201C42.68 54.4701 45.33 50.5001 38.23 51.0401C28.23 51.8001 45.87 50.2101 46.46 58.4601C46.7553 60.2429 46.7789 62.0602 46.53 63.8501C46.4918 64.0817 46.4685 64.3155 46.46 64.5501C46.46 65.3301 46.46 66.3401 46.4 67.4201C46.34 70.0001 46.27 72.9901 46.27 74.2801C46.27 77.0101 46.4 84.2801 46.19 81.5801C45.74 75.9401 45.71 70.5201 45.72 67.4301C45.72 67.2101 45.72 67.0001 45.72 66.8001C45.72 65.5601 45.72 64.8001 45.72 64.8001C45.72 64.8001 45.26 64.7301 45.13 64.7401C42.28 65.0901 41.6 67.0101 41.6 67.0101C41.6 67.0101 38.93 74.7001 39.6 78.5501C39.7701 79.768 40.2782 80.9139 41.0665 81.8578C41.8548 82.8017 42.8919 83.5057 44.06 83.8901C44.9035 84.1281 45.7965 84.1281 46.64 83.8901C48.04 84.0801 48.75 83.7601 50.23 82.9601C51.71 82.1601 53.23 79.3601 53.66 76.3201C53.9903 73.4468 53.602 70.5364 52.53 67.8501C52.2648 67.1451 51.8438 66.5091 51.2984 65.9896C50.7529 65.4701 50.0971 65.0806 49.38 64.8501C48.9668 62.584 48.7726 60.2834 48.8 57.9801C49.8 52.5801 55.91 50.4601 57.56 50.3801C58.7786 50.3054 59.997 50.5285 61.11 51.0301C62.69 51.7401 59.86 49.7101 57.33 49.7101Z" fill="#5F4A3E"/>
<path opacity="0.91" d="M88.3498 93.6399H88.0698V94.6299H88.3498V93.6399Z" fill="#5F4A3E"/>
<path opacity="0.91" d="M42.9898 0.21L42.6898 0L0.0297852 32.78V100.62V101.62H1.02979H89.0298V33.12L42.9898 0.21ZM42.7098 1.21L47.1998 4.42L7.39979 34.42L1.82979 32.64L42.7098 1.21ZM1.01978 99.64V33.94L6.79979 35.76V93.91L1.01978 99.64ZM88.3498 94.64H88.0698V100.64H2.06979L8.16978 94.64H88.0698V93.64H8.27979V35.58L48.4698 5.34L88.0698 33.63V93.63H88.3498V94.64Z" fill="#5F4A3E"/>
</g>
</g>
<defs>
<clipPath id="clip0_90_402">
<rect width="89.06" height="101.7" fill="white"/>
</clipPath>
</defs>
</svg>
