<svg width="273" height="68" viewBox="0 0 273 68" fill="none" xmlns="http://www.w3.org/2000/svg">
<path d="M26.1531 16.3975C26.1766 16.669 26.1766 16.942 26.1531 17.2135C26.193 16.9429 26.193 16.668 26.1531 16.3975Z" fill="#FFFDF5"/>
<path d="M27.6687 20.4779C27.2526 20.3648 26.8825 20.124 26.6106 19.7893C26.3387 19.4547 26.1787 19.0432 26.1531 18.6128C26.1787 19.0432 26.3387 19.4547 26.6106 19.7893C26.8825 20.124 27.2526 20.3648 27.6687 20.4779Z" fill="#FFFDF5"/>
<path d="M27.4744 20.439C27.4744 19.7396 27.4744 18.7682 26.9692 18.2242C26.8831 18.1255 26.7772 18.0461 26.6583 17.991C27.0088 18.2134 27.3009 18.5164 27.5105 18.8746C27.72 19.2329 27.8409 19.636 27.863 20.0505C27.9033 19.65 27.9033 19.2464 27.863 18.8459C27.863 17.6802 26.9303 16.2036 25.8034 16.2036C25.8433 16.4742 25.8433 16.7491 25.8034 17.0196C25.8034 17.5248 25.8034 18.0688 25.8034 18.3408C25.7853 18.8324 25.9439 19.3143 26.2504 19.6992C26.5569 20.0841 26.9911 20.3465 27.4744 20.439Z" fill="#FFFDF5"/>
<path d="M35.7517 20.2835C36.3346 19.7395 37.3838 19.4675 37.4227 18.4961C37.3945 18.9143 37.2714 19.3207 37.0627 19.6843C36.8539 20.0479 36.5651 20.3591 36.218 20.5943C36.6289 20.4828 37.0215 20.3127 37.3838 20.0892C38.3942 19.5063 39.2103 17.9521 38.6274 16.9806C38.6274 16.7475 38.3553 16.9806 37.8502 17.4469C37.345 17.9132 36.8009 17.8355 36.6066 17.9521C36.2345 18.1991 35.951 18.5584 35.7972 18.9777C35.6435 19.397 35.6275 19.8545 35.7517 20.2835Z" fill="#FFFDF5"/>
<path d="M29.5729 18.8849C29.3786 19.2346 29.0288 19.5454 28.9511 19.7397C28.8045 20.0541 28.7594 20.4063 28.8221 20.7475C28.8848 21.0887 29.0521 21.4019 29.3008 21.6437C29.4951 21.022 30.1169 20.4003 29.7283 19.7397C29.8726 20.0363 29.9476 20.3619 29.9476 20.6917C29.9476 21.0216 29.8726 21.3471 29.7283 21.6437C29.9544 21.4101 30.1502 21.149 30.3112 20.8666C30.7387 20.0117 30.661 18.6517 29.8838 18.2243C29.1065 17.7969 29.806 18.4574 29.5729 18.8849Z" fill="#FFFDF5"/>
<path d="M23.5884 22.9646C23.5884 23.1589 23.8215 22.9646 24.3267 22.9646C24.8319 22.9646 25.1039 23.2755 25.3371 23.2755C25.6798 23.3287 26.0304 23.2658 26.3331 23.0968C26.6359 22.9278 26.8735 22.6625 27.0081 22.3429C26.3863 22.3429 25.6091 21.9932 25.1039 22.5372C25.3359 22.3057 25.6171 22.1295 25.9266 22.0219C26.2361 21.9142 26.566 21.8778 26.8915 21.9155C26.5933 21.7773 26.2804 21.673 25.9589 21.6046C24.9485 21.5658 23.5884 22.0709 23.5884 22.9646Z" fill="#FFFDF5"/>
<path d="M22.7723 19.545C23.0054 19.8947 23.1609 20.3221 23.2775 20.5164C23.5119 20.7754 23.8187 20.9583 24.1581 21.0414C24.4975 21.1245 24.854 21.1041 25.1816 20.9827C24.6764 20.5552 24.4044 19.7392 23.6272 19.817C23.9559 19.797 24.2847 19.8533 24.588 19.9813C24.8914 20.1094 25.161 20.3058 25.3759 20.5552C25.251 20.2547 25.0947 19.9681 24.9096 19.7004C24.3267 18.9621 23.0832 18.457 22.3448 19.001C22.1894 19.1175 22.5003 19.1564 22.7723 19.545Z" fill="#FFFDF5"/>
<path d="M20.9847 26.6948C20.9847 26.0731 21.179 25.2183 20.4407 24.7908C20.7265 24.9818 20.9657 25.2347 21.1406 25.5306C21.3155 25.8266 21.4216 26.158 21.4511 26.5005C21.4883 26.1778 21.4883 25.8518 21.4511 25.5291C21.4718 25.0076 21.3078 24.4956 20.9878 24.0833C20.6679 23.671 20.2127 23.3848 19.7023 23.2754C19.4692 23.2754 19.7023 23.5474 19.7023 24.0137C19.7023 24.48 19.4692 24.9074 19.4692 25.1017C19.5145 25.4958 19.6869 25.8644 19.9603 26.1519C20.2337 26.4393 20.5934 26.6299 20.9847 26.6948Z" fill="#FFFDF5"/>
<path d="M17.8371 27.8606C18.0702 28.2492 18.1479 28.7155 18.2645 28.9098C18.4926 29.2025 18.8044 29.4187 19.1585 29.5298C19.5125 29.6408 19.892 29.6414 20.2464 29.5315C19.7801 29.0652 19.5858 28.1715 18.7308 28.1715C19.0813 28.1744 19.4261 28.2605 19.7369 28.4226C20.0477 28.5847 20.3155 28.8183 20.5184 29.1041C20.4466 28.7722 20.3149 28.4562 20.1298 28.1715C19.8745 27.7148 19.4605 27.3676 18.9664 27.1958C18.4722 27.0239 17.9321 27.0392 17.4484 27.2389C17.2541 27.3555 17.6039 27.4332 17.8371 27.8606Z" fill="#FFFDF5"/>
<path d="M21.1401 31.3579C20.9236 31.0954 20.6756 30.8605 20.4018 30.6584C19.9725 30.3628 19.4527 30.2279 18.9338 30.2777C18.4149 30.3274 17.9302 30.5586 17.5649 30.9304C17.5649 30.9304 17.7592 30.9304 18.1867 31.3579C18.4746 31.5864 18.7353 31.8472 18.9639 32.135C19.2955 32.299 19.6684 32.3607 20.0351 32.3122C20.4018 32.2638 20.7459 32.1074 21.0235 31.863C20.4406 31.6299 19.8966 30.8916 19.1194 31.2413C19.4427 31.1048 19.793 31.0443 20.1433 31.0645C20.4936 31.0847 20.8347 31.1851 21.1401 31.3579Z" fill="#FFFDF5"/>
<path d="M21.7619 29.1819C21.7619 29.6093 21.7619 30.0756 21.7619 30.2699C21.8276 30.6375 22.0043 30.976 22.2684 31.2401C22.5324 31.5041 22.871 31.6808 23.2386 31.7465C23.0443 31.1248 23.2386 30.2311 22.5391 29.8813C22.8448 30.0421 23.1071 30.2745 23.3034 30.5587C23.4996 30.8429 23.6241 31.1705 23.6661 31.5133C23.702 31.1775 23.702 30.8389 23.6661 30.5031C23.6661 29.5316 22.6945 28.3659 21.6842 28.4436C21.4899 28.4825 21.7619 28.6768 21.7619 29.1819Z" fill="#FFFDF5"/>
<path d="M23.0443 33.767C22.8164 34.2327 22.7657 34.7655 22.9015 35.2659C23.0374 35.7663 23.3505 36.2003 23.7827 36.487C23.977 36.487 23.7827 36.2538 24.0936 35.8264C24.2824 35.5036 24.49 35.1922 24.7153 34.8938C24.8198 34.5391 24.8165 34.1613 24.7058 33.8084C24.5951 33.4556 24.382 33.1436 24.0936 32.9121C24.0936 33.5727 23.3552 34.1944 23.8215 34.8938C23.6331 34.6036 23.5141 34.2738 23.4737 33.9302C23.4332 33.5865 23.4725 33.2382 23.5884 32.9121C23.3705 33.1721 23.1876 33.4595 23.0443 33.767Z" fill="#FFFDF5"/>
<path d="M20.0909 35.3598C20.4527 35.3229 20.8172 35.3229 21.179 35.3598C21.5175 35.1996 21.7971 34.9371 21.9784 34.6094C22.1597 34.2817 22.2335 33.9054 22.1894 33.5335C21.6453 33.8832 20.7515 33.8832 20.5961 34.6992C20.6611 34.3632 20.8088 34.0486 21.026 33.784C21.2431 33.5195 21.5227 33.3131 21.8396 33.1838C21.5054 33.1249 21.1635 33.1249 20.8292 33.1838C20.3408 33.3588 19.9293 33.6997 19.6665 34.1471C19.4037 34.5945 19.3064 35.1199 19.3914 35.6318C19.4691 35.8261 19.7023 35.5152 20.0909 35.3598Z" fill="#FFFDF5"/>
<path d="M27.4744 26.4624C27.723 26.2394 27.9331 25.9768 28.0962 25.6853C28.37 25.2836 28.4929 24.798 28.4431 24.3144C28.3933 23.8308 28.1741 23.3804 27.8241 23.043C27.8241 23.043 27.8241 23.2761 27.4744 23.6647C27.1246 24.0533 26.8915 24.3253 26.7749 24.5195C26.6185 24.8263 26.5608 25.1738 26.6094 25.5146C26.6581 25.8554 26.8109 26.1729 27.0469 26.4235C27.0469 25.8407 27.9019 25.2578 27.5521 24.5584C27.6845 24.8609 27.7462 25.1895 27.7328 25.5194C27.7193 25.8492 27.6309 26.1717 27.4744 26.4624Z" fill="#FFFDF5"/>
<path d="M24.0935 25.9176C23.8992 25.9176 24.0935 26.1119 24.3656 26.5393C24.4732 26.8713 24.564 27.2085 24.6376 27.5496C24.8267 27.858 25.1107 28.0967 25.4471 28.2298C25.7835 28.3629 26.1539 28.3833 26.5029 28.2879C26.1143 27.8216 26.0754 26.9668 25.2205 26.8891C25.551 26.9225 25.8685 27.0354 26.1459 27.218C26.4234 27.4007 26.6525 27.6478 26.8138 27.9382C26.8541 27.6286 26.8541 27.3152 26.8138 27.0056C26.5918 26.5054 26.1831 26.1116 25.675 25.9084C25.1668 25.7051 24.5993 25.7084 24.0935 25.9176Z" fill="#FFFDF5"/>
<path d="M29.7283 27.5503C29.4563 27.7835 29.1066 27.9389 28.99 28.0555C28.7902 28.2632 28.6574 28.5261 28.6089 28.8102C28.5604 29.0943 28.5984 29.3864 28.7179 29.6486C29.0288 29.2212 29.6895 28.9103 29.5729 28.2886C29.6088 28.5571 29.5818 28.8302 29.4942 29.0864C29.4065 29.3426 29.2605 29.575 29.0677 29.7652C29.3112 29.6457 29.5342 29.4883 29.7283 29.2989C30.3112 28.7938 30.661 27.7058 30.1558 27.1618C29.6506 26.6178 30.0003 27.2783 29.7283 27.5503Z" fill="#FFFDF5"/>
<path d="M34.547 21.2937C34.547 20.6719 34.8579 19.8559 34.275 19.3897C34.5178 19.6099 34.7097 19.8804 34.8372 20.1824C34.9648 20.4844 35.0249 20.8106 35.0134 21.1382C35.1326 20.8258 35.2109 20.4993 35.2465 20.1668C35.2465 19.2342 34.7802 18.0297 33.8864 17.9131C33.8864 17.9131 33.8864 18.1462 33.8864 18.6125C33.8202 18.9681 33.7293 19.3187 33.6144 19.6617C33.5882 19.9958 33.6631 20.3302 33.8294 20.6212C33.9957 20.9123 34.2458 21.1466 34.547 21.2937Z" fill="#FFFDF5"/>
<path d="M36.5678 21.5654C36.5678 21.5654 36.5678 21.7986 36.2958 22.226C36.0238 22.6534 35.7906 22.9254 35.674 23.1197C35.5603 23.4453 35.5477 23.7976 35.6378 24.1305C35.728 24.4634 35.9167 24.7612 36.1792 24.9849C36.1792 24.3631 36.8787 23.7414 36.4901 23.0809C36.6344 23.3775 36.7094 23.703 36.7094 24.0329C36.7094 24.3627 36.6344 24.6882 36.4901 24.9849C36.711 24.7414 36.8944 24.4664 37.0341 24.1689C37.267 23.7473 37.3478 23.2585 37.2628 22.7844C37.1779 22.3104 36.9325 21.88 36.5678 21.5654Z" fill="#FFFDF5"/>
<path d="M36.5289 27.5888C36.9175 27.0448 37.6947 26.6951 37.5781 25.9179C37.6161 26.2494 37.5801 26.5852 37.4726 26.901C37.365 27.2168 37.1887 27.5048 36.9564 27.7442C37.2581 27.5954 37.5338 27.3985 37.7724 27.1614C38.4719 26.5397 38.8605 25.2185 38.2388 24.5579C37.617 23.8974 38.2388 24.5579 37.7336 25.0631C37.4486 25.2766 37.1501 25.4713 36.8398 25.6459C36.6036 25.9039 36.4482 26.2254 36.3929 26.5708C36.3377 26.9161 36.3849 27.2701 36.5289 27.5888Z" fill="#FFFDF5"/>
<path d="M41.7751 24.2084C42.2025 23.7033 43.0186 23.4313 42.9409 22.6542C42.9579 22.9824 42.9003 23.3103 42.7724 23.6132C42.6445 23.916 42.4497 24.186 42.2025 24.4027L43.0186 23.8976C43.4194 23.6216 43.7095 23.2127 43.8376 22.7433C43.9656 22.2738 43.9233 21.7742 43.7181 21.333C43.7181 21.333 43.5238 21.333 43.1352 21.7993C42.8362 21.9887 42.5246 22.1575 42.2025 22.3044C41.9501 22.5434 41.7746 22.8521 41.6985 23.1913C41.6223 23.5304 41.649 23.8845 41.7751 24.2084Z" fill="#FFFDF5"/>
<path d="M43.3295 28.9103C43.7958 28.4828 44.6507 28.2886 44.6896 27.5503C44.656 27.8712 44.5513 28.1807 44.3833 28.4563C44.2153 28.7318 43.988 28.9665 43.7181 29.1434C44.0304 29.0675 44.331 28.9499 44.6119 28.7937C45.428 28.3274 46.0886 27.1228 45.6223 26.3457C45.6223 26.3457 45.428 26.3457 45.0005 26.6954C44.573 27.0451 44.1844 27.0063 44.029 27.1228C43.7339 27.3043 43.506 27.5769 43.3798 27.8994C43.2536 28.2219 43.2359 28.5768 43.3295 28.9103Z" fill="#FFFDF5"/>
<path d="M44.9617 29.9981C44.9617 29.8038 44.6897 29.9981 44.2233 29.9981C43.757 29.9981 43.3684 29.8038 43.1741 29.8038C42.8239 29.801 42.4817 29.9083 42.1958 30.1105C41.91 30.3127 41.6948 30.5995 41.5808 30.9306C42.2414 30.9306 43.0575 31.1249 43.485 30.5032C43.2819 30.7643 43.0229 30.9766 42.727 31.1246C42.4311 31.2725 42.1059 31.3523 41.7751 31.358H42.7466C43.6793 31.5523 44.884 30.8918 44.9617 29.9981Z" fill="#FFFDF5"/>
<path d="M40.6093 30.6193C40.8689 30.4289 41.1039 30.207 41.3088 29.9587C41.626 29.5916 41.8006 29.1227 41.8006 28.6375C41.8006 28.1524 41.626 27.6835 41.3088 27.3164C41.3088 27.3164 41.3088 27.5107 40.8813 27.8604C40.6221 28.1203 40.3497 28.3667 40.0653 28.5987C39.8681 28.8843 39.7625 29.2231 39.7625 29.5701C39.7625 29.9172 39.8681 30.256 40.0653 30.5415C40.3761 29.9587 41.0756 29.4924 40.8425 28.7541C40.9513 29.0617 40.9869 29.3905 40.9464 29.7143C40.906 30.038 40.7905 30.3479 40.6093 30.6193Z" fill="#FFFDF5"/>
<path d="M40.7259 23.7031C40.7259 23.7031 40.7259 23.7031 40.3762 24.1694C40.1696 24.3786 39.9488 24.5734 39.7155 24.7523C39.5534 24.9863 39.4666 25.2642 39.4666 25.5488C39.4666 25.8335 39.5534 26.1114 39.7155 26.3454C39.9487 25.8791 40.5705 25.4906 40.3373 24.9077C40.4161 25.1614 40.4361 25.4297 40.3957 25.6923C40.3553 25.9549 40.2556 26.2048 40.1041 26.4231C40.3256 26.2733 40.5223 26.0897 40.687 25.8791C41.1534 25.2963 41.3088 24.1694 40.7259 23.7031Z" fill="#FFFDF5"/>
<path d="M42.0471 33.6113C41.7751 33.2616 41.6585 32.8342 41.5031 32.6787C41.278 32.4184 40.9781 32.2339 40.6442 32.1505C40.3104 32.067 39.9589 32.0887 39.6378 32.2125C40.1041 32.601 40.415 33.4559 41.1922 33.3782C40.8642 33.3924 40.5372 33.3335 40.2347 33.2058C39.9323 33.0781 39.662 32.8848 39.4435 32.6399C39.5684 32.9405 39.7247 33.227 39.9098 33.4947C40.4927 34.233 41.7751 34.6993 42.4746 34.1553C43.1741 33.6113 42.3192 33.9999 42.0471 33.6113Z" fill="#FFFDF5"/>
<path d="M40.4927 19.3892C40.3856 19.7007 40.2066 19.9827 39.9704 20.2122C39.7341 20.4417 39.447 20.6124 39.1325 20.7104C39.4553 20.7483 39.7813 20.7483 40.1041 20.7104C41.0367 20.4772 41.9694 19.467 41.7362 18.5732C41.7362 18.5732 41.503 18.5732 41.0367 18.8064H39.9486C39.6206 18.9131 39.3349 19.1211 39.1324 19.4003C38.9299 19.6796 38.8211 20.0158 38.8217 20.3607C39.4046 20.0887 40.2595 20.1275 40.4927 19.3892Z" fill="#FFFDF5"/>
<path d="M39.1326 21.4885C38.8477 21.702 38.5491 21.8967 38.2388 22.0714C37.9932 22.3238 37.8315 22.6459 37.7759 22.9936C37.7202 23.3414 37.7733 23.6978 37.9279 24.0143C38.2777 23.4703 39.0938 23.1205 38.9772 22.3823C39.012 22.7076 38.9743 23.0367 38.8668 23.3457C38.7593 23.6548 38.5847 23.9362 38.3554 24.1697L39.1326 23.6257C39.5133 23.3137 39.7696 22.8756 39.8552 22.3909C39.9407 21.9062 39.8498 21.4069 39.5989 20.9834C39.5989 20.9834 39.1326 21.1777 39.1326 21.4885Z" fill="#FFFDF5"/>
<path d="M32.0211 18.7289C32.0211 18.1849 32.7206 17.6409 32.4097 17.058C32.5252 17.3283 32.5847 17.6191 32.5847 17.9129C32.5847 18.2067 32.5252 18.4975 32.4097 18.7678C32.6001 18.5375 32.7692 18.2903 32.9149 18.0295C33.1323 17.6499 33.2123 17.207 33.1416 16.7753C33.0708 16.3437 32.8535 15.9495 32.5263 15.6592C32.5263 15.6592 32.5263 15.6592 32.2154 16.242C32.057 16.5261 31.8609 16.7875 31.6325 17.0192C31.5177 17.3102 31.4934 17.629 31.5627 17.9341C31.632 18.2391 31.7918 18.5161 32.0211 18.7289Z" fill="#FFFDF5"/>
<path d="M36.6455 16.0095C36.6466 16.3035 36.5847 16.5943 36.4641 16.8624C36.3434 17.1305 36.1668 17.3697 35.946 17.5638L36.7232 17.1364C37.3838 16.6313 37.8501 15.4655 37.3838 14.8438C36.9175 14.2221 37.1895 14.8438 36.8398 15.2324C36.49 15.621 36.1403 15.5433 35.9848 15.6598C35.7574 15.874 35.5962 16.149 35.5205 16.452C35.4447 16.7551 35.4575 17.0735 35.5574 17.3695C35.946 16.8255 36.6843 16.8255 36.6455 16.0095Z" fill="#FFFDF5"/>
<path d="M31.3605 14.9602C31.4095 15.2226 31.3963 15.4929 31.3221 15.7493C31.2478 16.0057 31.1146 16.2411 30.933 16.4368C31.0942 16.2996 31.2378 16.143 31.3605 15.9705C31.9045 15.4265 32.1766 14.3385 31.6325 13.8334C31.0885 13.3282 31.6325 13.8334 31.2439 14.2219C31.0003 14.3894 30.7667 14.5711 30.5444 14.7659C30.3448 14.9671 30.2175 15.2288 30.1823 15.51C30.1472 15.7912 30.2062 16.0761 30.3501 16.3202C30.7387 15.8928 31.3605 15.5819 31.3605 14.9602Z" fill="#FFFDF5"/>
<path d="M28.3682 16.8254C28.4676 17.0907 28.6497 17.317 28.8877 17.4709C29.1256 17.6249 29.4067 17.6982 29.6895 17.6802C29.4174 17.2528 29.4174 16.5145 28.8345 16.3979C29.0873 16.4685 29.3205 16.5964 29.5159 16.7716C29.7113 16.9468 29.8638 17.1646 29.9615 17.4082C30.0128 17.1517 30.0128 16.8876 29.9615 16.6311C29.7283 15.8928 28.8734 15.1934 28.1739 15.4265C27.4744 15.6596 28.1739 15.4265 28.3682 15.9705C28.3922 16.2549 28.3922 16.5409 28.3682 16.8254Z" fill="#FFFDF5"/>
<path d="M20.7127 21.2944C20.9459 21.5664 21.1013 21.9161 21.2179 22.0327C21.418 22.2311 21.672 22.3664 21.9484 22.4217C22.2248 22.4769 22.5113 22.4498 22.7723 22.3435C22.3449 22.0327 22.0728 21.3721 21.4511 21.4498C21.7166 21.422 21.9849 21.4567 22.2346 21.5511C22.4842 21.6456 22.7083 21.7972 22.8889 21.9938C22.7842 21.7396 22.64 21.5035 22.4614 21.2944C22.2323 20.9594 21.8915 20.7168 21.4999 20.61C21.1084 20.5033 20.6916 20.5392 20.3241 20.7115C20.3241 20.7115 20.4795 21.0224 20.7127 21.2944Z" fill="#FFFDF5"/>
<path d="M33.8864 15.6207C33.9809 15.838 34.1394 16.0214 34.3407 16.1463C34.5421 16.2713 34.7767 16.3319 35.0134 16.3202C34.7802 15.9704 34.7802 15.3876 34.275 15.2322C34.4841 15.2967 34.6763 15.4068 34.8376 15.5546C34.9989 15.7025 35.1253 15.8843 35.2077 16.087C35.2448 15.8814 35.2448 15.6709 35.2077 15.4653C35.0134 14.8436 34.3139 14.2607 33.731 14.455C33.1481 14.6493 33.731 14.455 33.731 14.9213C33.731 15.3876 33.8476 15.5042 33.8864 15.6207Z" fill="#FFFDF5"/>
<path d="M23.5883 17.5637C23.7941 17.7043 23.9889 17.8601 24.1713 18.03C24.3549 18.1717 24.5804 18.2487 24.8125 18.2487C25.0445 18.2487 25.27 18.1717 25.4537 18.03C25.065 18.03 24.6764 17.4471 24.2101 17.6802C24.4101 17.5838 24.6293 17.5338 24.8513 17.5338C25.0733 17.5338 25.2925 17.5838 25.4925 17.6802L24.9873 17.2528C24.4433 16.942 23.5106 16.9031 23.1997 17.2528C22.8889 17.6025 23.2775 17.4082 23.5883 17.5637Z" fill="#FFFDF5"/>
<path d="M32.06 20.1672C32.0458 20.3644 32.0945 20.561 32.1993 20.7286C32.3041 20.8962 32.4594 21.0262 32.6429 21.0998C32.6429 20.7113 32.6429 20.2838 32.6429 20.0118C32.7836 20.1304 32.8953 20.2795 32.9694 20.4479C33.0435 20.6163 33.078 20.7994 33.0703 20.9832C33.0927 20.8026 33.0927 20.6199 33.0703 20.4392C33.0703 19.9341 32.7983 19.2347 32.2931 19.157C31.7879 19.0792 32.2931 19.157 32.2931 19.5455C32.2931 19.9341 32.06 20.0507 32.06 20.1672Z" fill="#FFFDF5"/>
<path d="M34.8968 29.4154C34.8555 29.2016 34.7903 28.993 34.7025 28.7937C34.4693 28.2108 33.6921 27.6668 33.1481 27.9C32.604 28.1331 33.1481 27.9 33.3424 28.3663C33.5367 28.8326 33.3424 28.9103 33.3424 29.0268C33.4416 29.244 33.6094 29.4225 33.8201 29.5349C34.0308 29.6472 34.2726 29.6872 34.5082 29.6486C34.2362 29.2988 34.1973 28.716 33.6921 28.6383C33.9406 28.6616 34.1797 28.7444 34.3894 28.8797C34.5991 29.0149 34.7731 29.1987 34.8968 29.4154Z" fill="#FFFDF5"/>
<path d="M33.6533 25.7621C33.647 25.9979 33.7148 26.2297 33.8473 26.4249C33.9798 26.6201 34.1702 26.7688 34.3916 26.8501C34.3916 26.4226 34.3916 25.8786 34.1585 25.5678C34.3217 25.7165 34.4538 25.8961 34.5472 26.0962C34.6406 26.2963 34.6934 26.5129 34.7025 26.7335C34.7213 26.5137 34.7213 26.2927 34.7025 26.0729C34.7025 25.4512 34.3139 24.6352 33.731 24.5964C33.1481 24.5575 33.731 24.5964 33.731 25.0626C33.731 25.5289 33.6533 25.6455 33.6533 25.7621Z" fill="#FFFDF5"/>
<path d="M30.0392 32.6402C30.1779 32.4741 30.2954 32.2914 30.3889 32.0962C30.539 31.8054 30.5822 31.4711 30.5112 31.1516C30.4402 30.8321 30.2594 30.5476 30.0003 30.3477C30.0003 30.3477 30.0003 30.3477 30.0003 30.7751C30.0003 31.2025 29.6506 31.2802 29.6117 31.3968C29.5279 31.6169 29.5128 31.8573 29.5683 32.0862C29.6238 32.3151 29.7473 32.5218 29.9226 32.6791C29.9226 32.2517 30.4278 31.8242 30.1558 31.3968C30.234 31.5989 30.2642 31.8165 30.244 32.0322C30.2237 32.248 30.1536 32.4562 30.0392 32.6402Z" fill="#FFFDF5"/>
<path d="M22.3449 26.4234C22.3449 26.6954 22.3449 27.0062 22.3449 27.1228C22.4352 27.3381 22.5861 27.5224 22.7793 27.6535C22.9724 27.7846 23.1995 27.8567 23.4329 27.8611C23.2386 27.5114 23.2387 26.9285 22.7723 26.7731C22.9795 26.8442 23.1678 26.9616 23.3227 27.1165C23.4776 27.2714 23.5951 27.4596 23.6661 27.6668C23.6849 27.447 23.6849 27.226 23.6661 27.0063C23.4718 26.3845 22.8112 25.7628 22.1894 25.9571C21.5676 26.1514 22.2671 26.1125 22.3449 26.4234Z" fill="#FFFDF5"/>
<path d="M22.9666 24.5968L23.3163 24.9465C23.4995 25.0523 23.7072 25.1079 23.9187 25.1079C24.1301 25.1079 24.3379 25.0523 24.521 24.9465C24.1713 24.7134 23.8604 24.286 23.3941 24.4414H23.5884C23.5411 24.4141 23.4875 24.3997 23.4329 24.3997C23.3783 24.3997 23.3247 24.4141 23.2775 24.4414C23.4484 24.3641 23.6339 24.3242 23.8215 24.3242C24.0091 24.3242 24.1946 24.3641 24.3656 24.4414L24.0935 24.1305C23.7632 23.9 23.3694 23.7778 22.9666 23.7808C22.8316 23.785 22.6992 23.8184 22.5784 23.8788C22.4576 23.9392 22.3514 24.0251 22.2671 24.1305L22.6557 24.3637L22.9666 24.5968Z" fill="#FFFDF5"/>
<path d="M25.6091 34.2721C25.3759 34.855 25.6091 35.7875 26.1143 35.9818C26.6195 36.1761 26.1143 35.9818 26.1143 35.5544C26.1143 35.127 26.4252 35.0492 26.464 34.9327C26.545 34.7055 26.551 34.4583 26.481 34.2275C26.4111 33.9967 26.2689 33.7944 26.0754 33.6504C26.0754 34.0778 25.648 34.5441 26.0754 34.9715C25.9817 34.7708 25.9331 34.5519 25.9331 34.3304C25.9331 34.1088 25.9817 33.89 26.0754 33.6892C25.9031 33.8694 25.7471 34.0645 25.6091 34.2721Z" fill="#FFFDF5"/>
<path d="M39.1326 28.8714C39.2837 28.7065 39.4142 28.5238 39.5212 28.3274C39.7932 27.7834 39.7155 26.8508 39.1714 26.5788C38.6274 26.3068 39.1714 26.5788 38.9771 27.0062C38.8469 27.2092 38.7042 27.4039 38.5497 27.5891C38.4556 27.8045 38.4313 28.0439 38.48 28.2738C38.5288 28.5038 38.6483 28.7127 38.8217 28.8714C38.8217 28.4828 39.3269 28.0554 39.0937 27.6279C39.1957 27.8182 39.2522 28.0294 39.259 28.2451C39.2657 28.4608 39.2225 28.6752 39.1326 28.8714Z" fill="#FFFDF5"/>
<path d="M36.218 32.9512L35.7517 33.4175C35.5431 33.6686 35.429 33.9847 35.429 34.3112C35.429 34.6376 35.5431 34.9538 35.7517 35.2049C35.7517 35.2049 35.7517 35.2049 36.0626 34.8163C36.3735 34.4277 36.49 34.4277 36.5678 34.3112C36.7096 34.1275 36.7865 33.902 36.7865 33.67C36.7865 33.438 36.7096 33.2125 36.5678 33.0289C36.5678 33.4175 35.9071 33.7283 36.0626 34.2335C35.9924 34.0215 35.97 33.7966 35.9968 33.5749C36.0237 33.3533 36.0992 33.1403 36.218 32.9512Z" fill="#FFFDF5"/>
<path d="M43.0186 27.0449C43.1937 26.8958 43.3503 26.7262 43.485 26.5398C43.8347 26.0346 43.9124 25.1021 43.485 24.7523C43.0575 24.4026 43.485 24.7523 43.2129 25.1798L42.7078 25.6849C42.5741 25.8793 42.5025 26.1096 42.5025 26.3455C42.5025 26.5814 42.5741 26.8117 42.7078 27.0061C42.7078 26.5786 43.3684 26.2289 43.1741 25.7626C43.2443 25.9746 43.2667 26.1995 43.2398 26.4212C43.213 26.6428 43.1374 26.8558 43.0186 27.0449Z" fill="#FFFDF5"/>
<path d="M39.1326 33.5729C39.121 33.3105 39.029 33.0579 38.8692 32.8494C38.7093 32.6409 38.4893 32.4866 38.2388 32.4072C38.2388 32.8735 38.2388 33.4952 38.5885 33.8449C38.3887 33.6863 38.226 33.4858 38.1119 33.2575C37.9977 33.0293 37.935 32.7789 37.9279 32.5238C37.9098 32.7696 37.9098 33.0163 37.9279 33.2621C37.9279 34.0004 38.3942 34.9329 39.0937 34.9329C39.7932 34.9329 39.0937 34.9329 39.0937 34.3889C39.0937 33.8449 39.1326 33.7672 39.1326 33.5729Z" fill="#FFFDF5"/>
<path d="M41.3477 20.7108C41.1629 20.8541 40.9681 20.984 40.7648 21.0994C40.5862 21.2545 40.463 21.4636 40.4139 21.695C40.3649 21.9264 40.3925 22.1674 40.4927 22.3817C40.7648 22.032 41.3088 21.8377 41.2311 21.3325C41.2527 21.55 41.2217 21.7695 41.1405 21.9724C41.0593 22.1753 40.9304 22.3557 40.7648 22.4983L41.3477 22.1485C41.814 21.76 42.1249 20.8663 41.7363 20.4C41.3477 19.9337 41.6197 20.7108 41.3477 20.7108Z" fill="#FFFDF5"/>
<path d="M30.5055 22.3427C30.5092 22.5577 30.5789 22.7664 30.7052 22.9404C30.8315 23.1145 31.0082 23.2456 31.2114 23.316C31.4146 23.3863 31.6346 23.3925 31.8415 23.3337C32.0483 23.2749 32.2322 23.154 32.368 22.9873C32.5039 22.8205 32.5852 22.6161 32.601 22.4016C32.6168 22.1872 32.5663 21.973 32.4564 21.7882C32.3464 21.6034 32.1823 21.4568 31.9863 21.3683C31.7903 21.2798 31.5718 21.2537 31.3605 21.2935C31.117 21.3393 30.8977 21.4698 30.7412 21.6618C30.5847 21.8538 30.5013 22.095 30.5055 22.3427Z" fill="#FFFDF5"/>
<path d="M36.7621 29.493C36.7356 29.6122 36.7362 29.736 36.7639 29.855C36.7916 29.974 36.8457 30.0852 36.9222 30.1806C36.9987 30.2759 37.0955 30.3528 37.2057 30.4057C37.3159 30.4585 37.4365 30.486 37.5587 30.486C37.681 30.486 37.8016 30.4585 37.9118 30.4057C38.022 30.3528 38.1189 30.2759 38.1953 30.1806C38.2718 30.0852 38.3259 29.974 38.3536 29.855C38.3813 29.736 38.3819 29.6122 38.3554 29.493C38.3554 29.2868 38.2735 29.0892 38.1278 28.9434C37.982 28.7977 37.7843 28.7158 37.5782 28.7158C37.4729 28.7105 37.3676 28.7267 37.2688 28.7634C37.17 28.8001 37.0796 28.8565 37.0033 28.9292C36.927 29.0019 36.8662 29.0894 36.8248 29.1863C36.7833 29.2832 36.762 29.3875 36.7621 29.493Z" fill="#FFFDF5"/>
<path d="M25.5314 29.8418C25.3761 29.842 25.2244 29.8887 25.0959 29.976C24.9673 30.0632 24.8679 30.1869 24.8104 30.3312C24.7529 30.4755 24.74 30.6337 24.7732 30.7854C24.8065 30.9371 24.8845 31.0754 24.9971 31.1824C25.1097 31.2893 25.2518 31.3601 25.405 31.3856C25.5583 31.411 25.7156 31.39 25.8568 31.3252C25.9979 31.2603 26.1164 31.1547 26.197 31.0219C26.2775 30.8891 26.3164 30.7352 26.3086 30.5801C26.2987 30.3808 26.2124 30.193 26.0677 30.0555C25.923 29.9181 25.731 29.8415 25.5314 29.8418Z" fill="#FFFDF5"/>
<path d="M38.3165 30.9692C33.9641 30.9692 36.218 32.9898 36.218 28.6378C36.1987 27.2356 35.7362 25.8755 34.8968 24.7521C35.3475 25.6426 35.5742 26.6296 35.5574 27.6275C35.5574 29.8812 32.5263 36.9144 32.876 28.2104C32.7358 26.7536 33.0535 25.2894 33.7849 24.0217C34.5163 22.7541 35.625 21.7461 36.9564 21.1384C35.6811 21.3191 34.4878 21.873 33.5266 22.7304C32.5654 23.5878 31.8794 24.7103 31.5548 25.9567C30.5026 23.7948 28.8586 21.9758 26.8138 20.7109C28.2132 21.9936 29.3377 23.5468 30.1192 25.2767C30.9008 27.0066 31.323 28.8771 31.3605 30.7749C31.3605 37.9247 28.2516 33.0287 28.2516 29.6481C28.2713 28.3913 28.5769 27.1554 29.1454 26.0344C28.5205 26.531 28.0172 27.1636 27.6737 27.8841C27.3303 28.6046 27.1558 29.394 27.1635 30.1921C27.1635 34.6218 29.1454 31.5909 23.7827 32.0184C16.2437 32.6012 29.5729 31.3967 30.0003 37.6138C30.2286 38.9642 30.2286 40.3434 30.0003 41.6938C30.0003 41.6938 30.0003 42.0435 30.0003 42.2378C30.0003 42.8206 30.0003 43.5589 30.0003 44.4138C30.0003 46.3566 30.0003 48.6104 30.0003 49.5818C30.0003 51.6412 30.0003 57.1589 30.0003 55.0995C29.6506 50.8252 29.6506 46.7452 29.6506 44.4138V42.3932H29.1843C28.6295 42.409 28.0897 42.5767 27.6237 42.8782C27.1577 43.1797 26.7835 43.6034 26.5418 44.1029C25.5214 46.9041 25.0082 49.8646 25.0262 52.8458C25.1894 53.7372 25.5893 54.5682 26.1842 55.2519C26.779 55.9355 27.5468 56.4466 28.4071 56.7315C29.0532 56.9271 29.7428 56.9271 30.389 56.7315C30.86 56.7992 31.3397 56.7722 31.8002 56.6521C32.2606 56.532 32.6924 56.3212 33.0703 56.0321C33.822 55.4172 34.4405 54.6556 34.8882 53.7938C35.3358 52.932 35.6032 51.988 35.674 51.0195C35.9173 48.8285 35.6101 46.6115 34.7802 44.5692C34.5726 44.0439 34.253 43.5701 33.8436 43.1808C33.4342 42.7916 32.9449 42.4963 32.4097 42.3155C32.1029 40.6104 31.9598 38.8799 31.9822 37.1475C32.3991 35.6436 33.2465 34.2943 34.4202 33.2656C35.594 32.237 37.0428 31.5738 38.5885 31.3578C39.5095 31.3146 40.4278 31.4876 41.2699 31.8629C42.358 32.3681 40.2207 30.9692 38.3165 30.9692Z" fill="#FFFDF5"/>
<path d="M28.7568 0L0 21.7989V67.3394V68H59.6121V22.032L28.7568 0ZM58.9515 22.3817V62.5211H5.5182V23.664L32.4486 3.41943L58.9515 22.3817ZM28.6014 0.699428L31.5936 2.83657L4.93529 22.8869L1.04923 21.7211L28.6014 0.699428ZM0.66063 66.7566V22.576L4.54669 23.7806V62.6377L0.66063 66.7566ZM58.9515 67.456H1.36012L5.47934 63.376H58.9515V67.456Z" fill="#FFFDF5"/>
<path d="M88.2405 41.2803C89.6823 41.3877 91.1299 41.1723 92.478 40.6498C93.826 40.1273 95.0407 39.3109 96.0335 38.26C97.8539 35.8738 98.7738 32.9218 98.6312 29.924V14.9434H94.9461V30.7697C95.0022 32.0659 94.7968 33.3601 94.342 34.5752C94.0216 35.4462 93.5048 36.2317 92.8317 36.8707C92.2341 37.4057 91.5358 37.8164 90.7777 38.0788C89.1823 38.5609 87.4799 38.5609 85.8844 38.0788C85.1263 37.8164 84.4281 37.4057 83.8304 36.8707C83.1712 36.2202 82.6566 35.4381 82.3202 34.5752C81.8938 33.3528 81.6892 32.064 81.7161 30.7697V15.0642H78.0914V30.0448C77.9376 32.9877 78.8134 35.8924 80.5682 38.26C81.54 39.3048 82.7336 40.1185 84.0614 40.6412C85.3891 41.1639 86.8172 41.3823 88.2405 41.2803V41.2803Z" fill="#FFFDF5"/>
<path d="M105.941 29.6211C105.944 28.7332 106.108 27.8533 106.424 27.0236C106.728 26.1727 107.201 25.3919 107.814 24.7282C108.461 24.1088 109.219 23.617 110.049 23.2785C110.978 22.8586 111.99 22.6522 113.009 22.6744H113.674H114.821L115.184 19.6541H114.58H113.734H113.009C112.386 19.5997 111.759 19.5997 111.136 19.6541C110.368 19.7201 109.614 19.9035 108.901 20.1978C108.081 20.513 107.309 20.9398 106.605 21.4663L105.941 22.0704V20.3186H102.316V40.4941H105.941V29.6211Z" fill="#FFFDF5"/>
<path d="M121.044 38.4406L121.889 39.1655C122.633 39.7121 123.446 40.1588 124.306 40.4944C125.104 40.8072 125.935 41.0301 126.783 41.1589C127.567 41.2161 128.354 41.2161 129.139 41.1589C130.527 41.1668 131.902 40.9 133.186 40.3736C134.432 39.8512 135.577 39.1153 136.569 38.199C137.579 37.2325 138.399 36.085 138.986 34.8163C139.598 33.4488 139.907 31.9652 139.892 30.4671C139.898 29.0149 139.611 27.5765 139.046 26.2386C138.519 24.934 137.715 23.7593 136.69 22.7955C135.704 21.8264 134.533 21.0662 133.247 20.5605C131.928 20.0023 130.51 19.7148 129.078 19.7148H127.085C125.25 19.9731 123.508 20.6784 122.01 21.7686L121.044 22.6143V13.4326H117.479V40.7964H121.104L121.044 38.4406ZM121.648 27.6884C122.019 26.7753 122.551 25.9364 123.218 25.2117C123.903 24.4765 124.723 23.8815 125.635 23.46C126.586 23.0409 127.617 22.8348 128.655 22.8559C129.674 22.8397 130.685 23.0458 131.616 23.46C132.521 23.8388 133.342 24.3931 134.032 25.0909C134.713 25.8402 135.264 26.6976 135.663 27.628C136.449 29.5648 136.449 31.7317 135.663 33.6686C135.3 34.582 134.743 35.4062 134.032 36.0848C133.35 36.7772 132.525 37.3131 131.616 37.6553C129.681 38.4541 127.509 38.4541 125.575 37.6553C124.668 37.3064 123.845 36.7713 123.158 36.0846C122.471 35.3979 121.936 34.5748 121.587 33.6686C121.168 32.7178 120.962 31.687 120.983 30.6483C120.995 29.626 121.222 28.6177 121.648 27.6884Z" fill="#FFFDF5"/>
<path d="M144.362 38.3194C145.355 39.2357 146.5 39.9717 147.745 40.494C149.008 41.0203 150.364 41.2873 151.733 41.2793C152.517 41.3365 153.304 41.3365 154.089 41.2793C154.954 41.1432 155.804 40.9206 156.626 40.6148C157.486 40.2792 158.298 39.8325 159.042 39.2859L159.828 38.561V40.9169H163.513V20.6205H159.767V22.8555L158.801 22.0099C158.037 21.4439 157.205 20.977 156.324 20.6205C155.498 20.3292 154.649 20.107 153.787 19.9561H151.793C150.341 19.9561 148.904 20.2435 147.564 20.8017C146.293 21.3372 145.127 22.094 144.121 23.0367C143.134 24.02 142.353 25.1906 141.825 26.4799C141.261 27.8178 140.973 29.2562 140.979 30.7083C140.964 32.2064 141.273 33.69 141.886 35.0575C142.503 36.2881 143.343 37.394 144.362 38.3194V38.3194ZM145.269 27.6276C145.623 26.6744 146.18 25.809 146.9 25.0905C147.568 24.3943 148.369 23.8396 149.256 23.4596C150.208 23.046 151.238 22.8401 152.276 22.8555C153.278 22.8399 154.272 23.0302 155.197 23.4146C156.122 23.7991 156.958 24.3695 157.653 25.0905C158.334 25.8399 158.885 26.6973 159.284 27.6276C159.648 28.6332 159.812 29.7002 159.767 30.7687C159.779 31.8008 159.594 32.8257 159.223 33.789C158.859 34.6871 158.325 35.5072 157.653 36.2052C156.961 36.8852 156.139 37.4192 155.236 37.7758C153.299 38.5615 151.132 38.5615 149.195 37.7758C148.3 37.4045 147.481 36.8722 146.779 36.2052C146.086 35.5231 145.55 34.6987 145.208 33.789C144.789 32.8383 144.583 31.8074 144.604 30.7687C144.586 29.685 144.813 28.6111 145.269 27.6276Z" fill="#FFFDF5"/>
<path d="M185.019 23.4596C184.263 22.3845 183.271 21.4961 182.119 20.8622C180.646 20.1282 179.023 19.7461 177.377 19.7461C175.731 19.7461 174.108 20.1282 172.635 20.8622C171.968 21.2366 171.357 21.7045 170.822 22.2515V20.4393H167.198V40.6148H170.822V30.7687C170.816 29.7174 171 28.6736 171.366 27.688C171.717 26.7916 172.206 25.9558 172.816 25.2114C173.379 24.5458 174.08 24.01 174.87 23.6408C175.611 23.237 176.443 23.029 177.286 23.0368C178.235 23.0233 179.177 23.1872 180.065 23.52C180.75 23.8663 181.349 24.3617 181.817 24.9698C182.325 25.6723 182.675 26.4757 182.844 27.3256C183.094 28.3536 183.216 29.4087 183.207 30.4667V40.9773H186.831V30.7687C186.833 29.5115 186.712 28.2571 186.469 27.0235C186.213 25.7553 185.721 24.5463 185.019 23.4596Z" fill="#FFFDF5"/>
<path d="M192.993 14.9426C192.13 15.9719 191.678 17.2845 191.725 18.6273V21.9497H188.1V24.7283H191.725V40.5546H195.349V24.7283H201.39V21.708H195.349V18.6877C195.274 18.248 195.274 17.7986 195.349 17.3588C195.416 17.1144 195.565 16.9007 195.772 16.7548C195.994 16.5717 196.27 16.4657 196.558 16.4527H198.007H201.27V13.4324H196.618C195.942 13.4202 195.271 13.5481 194.647 13.808C194.024 14.0679 193.46 14.4542 192.993 14.9426V14.9426Z" fill="#FFFDF5"/>
<path d="M220.541 22.8565L219.574 22.0108C218.077 20.9206 216.334 20.2153 214.5 19.957H212.506C211.055 19.957 209.617 20.2445 208.277 20.8027C207.006 21.3382 205.841 22.0949 204.834 23.0377C203.847 24.021 203.066 25.1916 202.538 26.4809C201.974 27.8188 201.686 29.2571 201.693 30.7093C201.677 32.2074 201.987 33.691 202.599 35.0585C203.186 36.3272 204.005 37.4747 205.015 38.4412C206.008 39.3575 207.152 40.0934 208.398 40.6158C209.68 41.1485 211.057 41.4156 212.446 41.4011C213.21 41.4566 213.977 41.4566 214.741 41.4011C215.607 41.265 216.457 41.0424 217.279 40.7366C218.139 40.401 218.951 39.9543 219.695 39.4077L220.541 38.6828V41.0387H224.165V20.6215H220.541V22.8565ZM219.937 33.7296C219.594 34.6393 219.059 35.4637 218.366 36.1458C217.674 36.8257 216.852 37.3598 215.95 37.7163C214.013 38.5021 211.846 38.5021 209.908 37.7163C209.014 37.3451 208.195 36.8128 207.492 36.1458C206.8 35.4637 206.264 34.6393 205.921 33.7296C205.502 32.7788 205.296 31.748 205.317 30.7093C205.289 29.6504 205.495 28.5984 205.921 27.6286C206.276 26.6754 206.833 25.81 207.552 25.0915C208.978 23.6635 210.911 22.8596 212.929 22.8565C213.931 22.8408 214.925 23.0311 215.849 23.4156C216.774 23.8001 217.61 24.3705 218.306 25.0915C219.006 25.8257 219.559 26.6868 219.937 27.6286C220.723 29.5654 220.723 31.7323 219.937 33.6691V33.7296Z" fill="#FFFDF5"/>
<path d="M239.329 19.8353H238.302C237.679 19.7809 237.052 19.7809 236.429 19.8353C235.66 19.9013 234.907 20.0847 234.194 20.379C233.374 20.6942 232.601 21.121 231.898 21.6475L231.234 22.2515V20.4998H227.609V40.6753H231.234V29.621C231.22 28.7256 231.406 27.8384 231.777 27.0236C232.078 26.2071 232.552 25.4653 233.167 24.849C233.804 24.2172 234.565 23.7236 235.402 23.3993C236.308 22.9741 237.301 22.7672 238.302 22.7952H238.966H240.174V19.7749H239.631L239.329 19.8353Z" fill="#FFFDF5"/>
<path d="M271.226 22.8558C270.529 21.9113 269.618 21.1454 268.568 20.6208C267.214 20.0438 265.749 19.7755 264.278 19.8355C262.861 19.8464 261.477 20.2659 260.291 21.0436C259.392 21.6227 258.646 22.4101 258.117 23.3391L257.694 22.6746C257.328 22.0893 256.857 21.5772 256.304 21.1645C255.687 20.7154 254.99 20.3875 254.25 20.198C253.408 19.9428 252.532 19.8205 251.653 19.8355C251.11 19.7762 250.564 19.7762 250.021 19.8355C249.386 19.9585 248.774 20.1828 248.209 20.5C247.615 20.8056 247.066 21.1918 246.578 21.6477V20.4396H242.953V40.6151H246.578V30.769C246.592 29.8354 246.693 28.9052 246.88 27.9903C247.092 27.1258 247.417 26.293 247.847 25.5137C248.261 24.8377 248.817 24.2605 249.478 23.8223C250.219 23.3604 251.081 23.1291 251.955 23.1579C252.585 23.1387 253.21 23.2844 253.767 23.5807C254.294 23.9055 254.747 24.3378 255.096 24.8492C255.461 25.4539 255.745 26.1037 255.942 26.7822C256.037 27.5646 256.037 28.3556 255.942 29.138V41.2192H259.627V29.138C259.615 28.2985 259.738 27.4625 259.989 26.6614C260.207 25.9949 260.556 25.3787 261.016 24.8492C261.412 24.3672 261.906 23.9757 262.466 23.7015C263.002 23.4075 263.607 23.2616 264.218 23.2787C264.959 23.2651 265.696 23.3879 266.393 23.6411C266.926 23.9033 267.4 24.2736 267.782 24.7284C268.19 25.2955 268.497 25.9291 268.688 26.601C268.787 27.4236 268.787 28.255 268.688 29.0776V41.1588H272.374V29.6817C272.376 28.5443 272.254 27.4101 272.011 26.299C271.986 25.1098 271.719 23.9383 271.226 22.8558V22.8558Z" fill="#FFFDF5"/>
<path d="M82.182 64.3116H81.4571H80.7322L80.0677 63.9492C79.8591 63.8217 79.675 63.658 79.524 63.4659V67.6339H78.0741V56.3984H79.524V57.4253L80.0677 56.9421L80.7926 56.5796H81.5175H82.182C82.7267 56.5768 83.2645 56.7009 83.7527 56.9421C84.2423 57.1431 84.6923 57.4294 85.0818 57.7878C85.4505 58.1588 85.7565 58.5872 85.988 59.0563C86.181 59.5577 86.2833 60.0896 86.29 60.6268C86.2929 61.1714 86.1688 61.7092 85.9275 62.1974C85.7178 62.6791 85.4091 63.1113 85.0214 63.4659C84.6532 63.8223 84.2234 64.1089 83.7527 64.3116C83.2355 64.4264 82.6993 64.4264 82.182 64.3116V64.3116ZM82.182 57.5461C81.8426 57.4837 81.4945 57.4837 81.1551 57.5461C80.8497 57.7125 80.5657 57.9153 80.3093 58.1502C80.0475 58.3836 79.8411 58.6725 79.7052 58.9959C79.6421 59.3759 79.6421 59.7636 79.7052 60.1436C79.6366 60.5028 79.6366 60.8717 79.7052 61.2309C79.835 61.575 80.0416 61.8849 80.3093 62.137C80.5521 62.3728 80.8397 62.5577 81.1551 62.6806C81.8187 62.9206 82.5454 62.9206 83.209 62.6806C83.5244 62.5577 83.812 62.3728 84.0548 62.137C84.3038 61.8696 84.5078 61.5636 84.6589 61.2309C84.7275 60.8717 84.7275 60.5028 84.6589 60.1436C84.722 59.7636 84.722 59.3759 84.6589 58.9959C84.3514 58.3641 83.8409 57.8536 83.209 57.5461C82.8696 57.4837 82.5215 57.4837 82.182 57.5461V57.5461Z" fill="#FFFDF5"/>
<path d="M89.673 64.3726H88.646C88.3964 64.3127 88.167 64.1877 87.9815 64.0101C87.7935 63.7992 87.6497 63.5527 87.5586 63.2853C87.5176 62.9644 87.5176 62.6396 87.5586 62.3188V52.0498H89.0689V61.8959C88.9859 62.1511 88.9859 62.4261 89.0689 62.6812C89.1532 62.7237 89.2464 62.7458 89.3408 62.7458C89.4352 62.7458 89.5283 62.7237 89.6126 62.6812L89.673 64.3726Z" fill="#FFFDF5"/>
<path d="M94.8079 64.3114C94.3109 64.4252 93.7946 64.4252 93.2977 64.3114C92.8196 64.1227 92.3871 63.8344 92.029 63.4657C91.6234 63.1135 91.2945 62.6817 91.0624 62.1972C90.8212 61.709 90.6971 61.1713 90.7 60.6267C90.7054 60.0831 90.829 59.5471 91.0624 59.0561C91.2654 58.5706 91.5751 58.137 91.9686 57.7876C92.3267 57.419 92.7592 57.1307 93.2372 56.9419C93.7255 56.7007 94.2633 56.5766 94.8079 56.5795H95.5329C95.7733 56.5448 96.0174 56.5448 96.2578 56.5795L96.9827 56.9419L97.466 57.3648V56.3379H98.8555V64.1302H97.3452V63.1033C97.0377 63.5014 96.6163 63.7963 96.137 63.949C95.7262 64.1667 95.2723 64.2904 94.8079 64.3114V64.3114ZM94.8079 57.546C94.4883 57.4883 94.161 57.4883 93.8414 57.546C93.518 57.6819 93.229 57.8883 92.9956 58.1501C92.723 58.3736 92.5145 58.6654 92.3915 58.9957C92.3016 59.373 92.3016 59.7661 92.3915 60.1434C92.2938 60.4993 92.2938 60.8749 92.3915 61.2307C92.4986 61.5859 92.7089 61.9013 92.9956 62.1368C93.2159 62.3996 93.5108 62.5892 93.8414 62.6805C94.161 62.7382 94.4883 62.7382 94.8079 62.6805C95.1681 62.7381 95.5352 62.7381 95.8953 62.6805C96.2107 62.5575 96.4983 62.3727 96.7411 62.1368C96.9901 61.8694 97.1941 61.5634 97.3452 61.2307C97.4138 60.8715 97.4138 60.5026 97.3452 60.1434C97.4351 59.7661 97.4351 59.373 97.3452 58.9957C97.2307 58.6609 97.0207 58.3669 96.7411 58.1501C96.4847 57.9152 96.2007 57.7123 95.8953 57.546C95.5362 57.4759 95.167 57.4759 94.8079 57.546V57.546Z" fill="#FFFDF5"/>
<path d="M107.494 64.1908H105.984V59.4791C106.013 59.2182 106.013 58.9548 105.984 58.6939C105.858 58.4827 105.716 58.2809 105.561 58.0898L104.897 57.667C104.618 57.6045 104.329 57.6045 104.051 57.667H103.326C103.058 57.758 102.812 57.9018 102.601 58.0898C102.408 58.2631 102.244 58.4673 102.118 58.6939C102.062 58.9527 102.062 59.2203 102.118 59.4791V64.1908H100.668V56.3984H102.118V57.3045C102.269 57.1124 102.453 56.9487 102.661 56.8213H103.205C103.403 56.7673 103.611 56.7673 103.809 56.8213H104.292C105.223 56.7861 106.132 57.1106 106.83 57.7274C107.138 58.0173 107.385 58.3666 107.555 58.7543C107.755 59.1472 107.858 59.582 107.857 60.0228L107.494 64.1908Z" fill="#FFFDF5"/>
<path d="M110.938 61.8949C110.902 62.1352 110.902 62.3794 110.938 62.6197C110.988 62.8075 111.093 62.9759 111.24 63.103C111.357 63.1444 111.485 63.1444 111.602 63.103H112.025C112.245 63.1439 112.47 63.1439 112.69 63.103L113.173 62.6801L113.535 63.103L113.958 63.4654L113.596 63.8883L113.052 64.2507H112.448H111.783C111.436 64.2892 111.084 64.2435 110.758 64.1173C110.432 63.9911 110.142 63.7882 109.911 63.5258C109.479 62.8427 109.287 62.0347 109.367 61.2304V57.7873H108.521V56.5187H109.609V52.834H110.938V56.5791H112.871V57.8477H110.938V61.8949Z" fill="#FFFDF5"/>
<path d="M128.094 63.0024L127.49 63.6064L126.705 64.0293H125.859H125.013C124.497 64.1481 123.96 64.1481 123.443 64.0293C122.957 63.8558 122.521 63.5654 122.174 63.1836C121.768 62.8454 121.456 62.4086 121.268 61.9151C121.027 61.4269 120.903 60.8891 120.906 60.3445C120.912 59.8072 121.015 59.2754 121.208 58.774C121.417 58.2923 121.726 57.8601 122.114 57.5054C122.473 57.1229 122.904 56.815 123.382 56.5994C123.922 56.502 124.474 56.502 125.013 56.5994C125.577 56.6036 126.133 56.7271 126.645 56.9618C127.157 57.2068 127.626 57.5332 128.034 57.9283L127.007 58.774L126.161 58.1095C125.785 58.0123 125.39 58.0123 125.013 58.1095C124.674 58.0521 124.326 58.0521 123.987 58.1095C123.681 58.2758 123.397 58.4787 123.141 58.7136C122.892 58.9692 122.705 59.2795 122.597 59.6197C122.499 59.9755 122.499 60.3511 122.597 60.707C122.512 61.0644 122.512 61.4368 122.597 61.7943C122.72 62.1096 122.905 62.3971 123.141 62.6399C123.381 62.8938 123.668 63.0989 123.987 63.244C124.326 63.3014 124.674 63.3014 125.013 63.244C125.411 63.3346 125.824 63.3346 126.222 63.244C126.567 63.0363 126.873 62.7706 127.128 62.4587L128.094 63.0024Z" fill="#FFFDF5"/>
<path d="M133.229 64.3915C132.732 64.5053 132.216 64.5053 131.719 64.3915C131.241 64.2028 130.809 63.9145 130.451 63.5458C130.045 63.1936 129.716 62.7618 129.484 62.2773C129.243 61.7891 129.119 61.2513 129.121 60.7068C129.127 60.1632 129.251 59.6272 129.484 59.1362C129.687 58.6507 129.997 58.2171 130.39 57.8677C130.748 57.499 131.181 57.2108 131.659 57.022C132.147 56.7808 132.685 56.6567 133.229 56.6596H133.954H134.74L135.404 57.022L135.888 57.4449V56.418H137.398V64.2103H135.888V63.1834C135.58 63.5814 135.159 63.8764 134.679 64.0291C134.232 64.2648 133.735 64.3891 133.229 64.3915V64.3915ZM133.229 57.6261C132.91 57.5683 132.582 57.5683 132.263 57.6261C131.948 57.777 131.662 57.9814 131.417 58.2301C131.144 58.4537 130.936 58.7455 130.813 59.0758C130.723 59.4531 130.723 59.8462 130.813 60.2235C130.715 60.5794 130.715 60.955 130.813 61.3108C130.92 61.666 131.13 61.9814 131.417 62.2169C131.65 62.4654 131.94 62.6522 132.263 62.7606C132.582 62.8183 132.91 62.8183 133.229 62.7606C133.59 62.8182 133.957 62.8182 134.317 62.7606C134.632 62.6376 134.92 62.4527 135.163 62.2169C135.412 61.9495 135.616 61.6435 135.767 61.3108C135.835 60.9516 135.835 60.5827 135.767 60.2235C135.857 59.8462 135.857 59.4531 135.767 59.0758C135.652 58.741 135.442 58.447 135.163 58.2301C134.918 57.9814 134.632 57.777 134.317 57.6261C133.958 57.556 133.589 57.556 133.229 57.6261V57.6261Z" fill="#FFFDF5"/>
<path d="M141.143 56.8407H143.318V58.0488H141.143V64.0894H139.633V58.0488H138.485V56.8407H139.633V55.3909C139.576 54.97 139.576 54.5433 139.633 54.1224C139.798 53.7646 140.022 53.4377 140.298 53.1559C140.562 52.8744 140.895 52.6663 141.264 52.5519C141.662 52.4612 142.075 52.4612 142.472 52.5519C142.893 52.5598 143.306 52.6631 143.681 52.8539C144.04 53.0407 144.367 53.2856 144.647 53.5788L143.56 54.364C143.432 54.1969 143.267 54.0612 143.079 53.967C142.89 53.8728 142.683 53.8227 142.472 53.8204C142.258 53.8184 142.046 53.8603 141.848 53.9434C141.651 54.0265 141.473 54.1491 141.324 54.3036C141.018 54.6756 140.866 55.1517 140.902 55.6326L141.143 56.8407Z" fill="#FFFDF5"/>
<path d="M147.728 56.2966C148.313 56.2815 148.892 56.4058 149.42 56.6591C149.87 56.8914 150.279 57.1977 150.628 57.5652C150.941 58.0095 151.185 58.4981 151.353 59.0149C151.416 59.5971 151.416 60.1844 151.353 60.7667H145.312C145.224 61.0417 145.224 61.3373 145.312 61.6123C145.436 61.9093 145.621 62.1769 145.855 62.3976C146.094 62.5932 146.358 62.7557 146.641 62.8809C146.98 62.9433 147.328 62.9433 147.668 62.8809C148.088 62.9518 148.516 62.9518 148.936 62.8809C149.376 62.6853 149.752 62.3716 150.024 61.9748L150.93 62.8809C150.517 63.3452 150.027 63.7336 149.48 64.0286C148.923 64.3248 148.298 64.4706 147.668 64.4514C147.148 64.5428 146.617 64.5428 146.097 64.4514C145.619 64.2626 145.186 63.9744 144.828 63.6057C144.414 63.2757 144.1 62.8363 143.922 62.3372C143.676 61.8292 143.552 61.2707 143.56 60.7063C143.472 60.1864 143.472 59.6555 143.56 59.1357C143.763 58.6795 144.027 58.2528 144.345 57.8672C144.686 57.5055 145.097 57.2176 145.553 57.0215C146.199 56.5871 146.951 56.3365 147.728 56.2966V56.2966ZM150.024 59.5585C150.085 59.3004 150.085 59.0314 150.024 58.7733C149.875 58.5446 149.692 58.3408 149.48 58.1692C149.273 57.9609 149.027 57.7965 148.755 57.686H147.909H147.064C146.792 57.7965 146.545 57.9609 146.339 58.1692C146.111 58.3234 145.924 58.5307 145.795 58.7733C145.733 59.0314 145.733 59.3004 145.795 59.5585H150.024Z" fill="#FFFDF5"/>
</svg>
