<svg width="232" height="225" viewBox="0 0 232 225" fill="none" xmlns="http://www.w3.org/2000/svg">
<g clip-path="url(#clip0_42_567)">
<path d="M12.0894 187.872C13.8069 188 15.5312 187.743 17.137 187.121C18.7428 186.498 20.1897 185.526 21.3723 184.274C23.5407 181.432 24.6365 177.915 24.4666 174.344V156.5H20.077V175.352C20.1439 176.896 19.8991 178.437 19.3574 179.885C18.9758 180.922 18.3602 181.858 17.5584 182.619C16.8465 183.256 16.0148 183.746 15.1117 184.058C13.2113 184.632 11.1834 184.632 9.28297 184.058C8.37995 183.746 7.54822 183.256 6.83632 182.619C6.05102 181.844 5.438 180.913 5.03731 179.885C4.52946 178.429 4.28576 176.894 4.31771 175.352V156.644H8.90736e-05V174.488C-0.183093 177.994 0.860077 181.454 2.95046 184.274C4.10796 185.519 5.52981 186.488 7.11138 187.11C8.69296 187.733 10.394 187.993 12.0894 187.872Z" fill="#5F4A3E"/>
<path d="M33.1741 173.985C33.178 172.927 33.373 171.879 33.7497 170.891C34.1116 169.877 34.6745 168.947 35.4048 168.156C36.1759 167.418 37.0792 166.833 38.0674 166.429C39.1742 165.929 40.3791 165.683 41.5934 165.71H42.385H43.7522L44.184 162.112H43.4644H42.4569H41.5934C40.8512 162.047 40.1048 162.047 39.3626 162.112C38.4473 162.191 37.5493 162.409 36.7001 162.76C35.7234 163.135 34.8032 163.644 33.9656 164.271L33.1741 164.99V162.904H28.8564V186.936H33.1741V173.985Z" fill="#5F4A3E"/>
<path d="M51.1636 184.49L52.1711 185.353C53.0573 186.004 54.025 186.537 55.0495 186.936C56.0005 187.309 56.99 187.574 57.9999 187.728C58.9341 187.796 59.8721 187.796 60.8063 187.728C62.4594 187.737 64.098 187.419 65.6276 186.792C67.1115 186.17 68.4753 185.294 69.6574 184.202C70.8605 183.051 71.8368 181.684 72.5358 180.173C73.265 178.544 73.6332 176.776 73.6152 174.992C73.623 173.262 73.2803 171.549 72.6078 169.955C71.98 168.401 71.0225 167.002 69.8013 165.854C68.6272 164.699 67.2321 163.794 65.6996 163.191C64.1287 162.527 62.4402 162.184 60.7343 162.184H58.3597C56.1746 162.492 54.0988 163.332 52.315 164.631L51.1636 165.638V154.701H46.918V187.296H51.2356L51.1636 184.49ZM51.8832 171.682C52.3249 170.594 52.9586 169.595 53.7542 168.732C54.569 167.856 55.5467 167.147 56.6326 166.645C57.7652 166.146 58.9932 165.901 60.2306 165.926C61.4443 165.906 62.6476 166.152 63.7567 166.645C64.835 167.096 65.8133 167.757 66.6351 168.588C67.446 169.481 68.1026 170.502 68.578 171.61C69.5141 173.917 69.5141 176.498 68.578 178.806C68.1452 179.894 67.4824 180.875 66.6351 181.684C65.8226 182.508 64.8404 183.147 63.7567 183.554C61.4524 184.506 58.865 184.506 56.5606 183.554C55.481 183.139 54.5005 182.501 53.6825 181.683C52.8644 180.865 52.227 179.885 51.8113 178.806C51.312 177.673 51.0664 176.445 51.0917 175.208C51.106 173.99 51.3757 172.789 51.8832 171.682Z" fill="#5F4A3E"/>
<path d="M78.9406 184.346C80.1227 185.437 81.4865 186.314 82.9703 186.936C84.4748 187.563 86.0899 187.881 87.7197 187.872C88.654 187.94 89.5919 187.94 90.5262 187.872C91.5575 187.71 92.57 187.444 93.5485 187.08C94.573 186.68 95.5407 186.148 96.4269 185.497L97.3624 184.634V187.44H101.752V163.263H97.2904V165.926L96.1391 164.918C95.2296 164.244 94.2382 163.688 93.1887 163.263C92.2049 162.916 91.194 162.652 90.1664 162.472H87.7917C86.0626 162.472 84.3506 162.814 82.7544 163.479C81.2405 164.117 79.8517 165.019 78.6527 166.142C77.4769 167.313 76.5472 168.707 75.9182 170.243C75.2457 171.837 74.903 173.55 74.9108 175.28C74.8928 177.064 75.261 178.832 75.9902 180.46C76.7259 181.926 77.7261 183.244 78.9406 184.346ZM80.02 171.61C80.4426 170.475 81.1053 169.444 81.9629 168.588C82.7585 167.759 83.713 167.098 84.7693 166.645C85.904 166.153 87.1305 165.907 88.3674 165.926C89.5603 165.907 90.7444 166.134 91.8461 166.592C92.9479 167.05 93.9437 167.729 94.7718 168.588C95.5827 169.481 96.2393 170.502 96.7148 171.61C97.1484 172.808 97.3439 174.079 97.2904 175.352C97.3042 176.581 97.0844 177.802 96.6428 178.949C96.2081 180.019 95.5731 180.996 94.7718 181.828C93.9472 182.637 92.9684 183.274 91.8934 183.698C89.5861 184.634 87.0047 184.634 84.6974 183.698C83.6315 183.256 82.6558 182.622 81.819 181.828C80.9941 181.015 80.3557 180.033 79.948 178.949C79.4488 177.817 79.2032 176.589 79.2284 175.352C79.2068 174.061 79.4774 172.782 80.02 171.61Z" fill="#5F4A3E"/>
<path d="M127.37 166.645C126.469 165.365 125.288 164.306 123.916 163.551C122.161 162.677 120.227 162.222 118.267 162.222C116.306 162.222 114.373 162.677 112.618 163.551C111.823 163.997 111.096 164.555 110.459 165.206V163.048H106.142V187.08H110.459V175.352C110.452 174.1 110.671 172.856 111.107 171.682C111.524 170.614 112.107 169.619 112.834 168.732C113.505 167.939 114.34 167.301 115.281 166.861C116.163 166.38 117.154 166.132 118.159 166.142C119.289 166.126 120.411 166.321 121.469 166.717C122.285 167.13 122.998 167.72 123.556 168.444C124.16 169.281 124.578 170.238 124.779 171.25C125.077 172.475 125.222 173.732 125.211 174.992V187.512H129.529V175.352C129.531 173.854 129.387 172.36 129.097 170.891C128.792 169.38 128.206 167.94 127.37 166.645Z" fill="#5F4A3E"/>
<path d="M136.869 156.5C135.84 157.726 135.302 159.289 135.358 160.889V164.846H131.04V168.156H135.358V187.008H139.675V168.156H146.871V164.559H139.675V160.961C139.585 160.437 139.585 159.902 139.675 159.378C139.754 159.087 139.932 158.832 140.179 158.658C140.444 158.44 140.772 158.314 141.114 158.299H142.842H146.727V154.701H141.186C140.382 154.686 139.582 154.839 138.839 155.148C138.096 155.458 137.425 155.918 136.869 156.5Z" fill="#5F4A3E"/>
<path d="M169.683 165.926L168.531 164.918C166.748 163.62 164.672 162.78 162.487 162.472H160.112C158.383 162.472 156.671 162.814 155.075 163.479C153.561 164.117 152.172 165.019 150.973 166.142C149.797 167.313 148.868 168.707 148.239 170.243C147.566 171.837 147.223 173.55 147.231 175.28C147.213 177.064 147.581 178.832 148.31 180.46C149.009 181.972 149.986 183.339 151.189 184.49C152.371 185.581 153.735 186.458 155.219 187.08C156.746 187.715 158.386 188.033 160.04 188.016C160.95 188.082 161.864 188.082 162.775 188.016C163.806 187.853 164.818 187.588 165.797 187.224C166.821 186.824 167.789 186.292 168.675 185.641L169.683 184.778V187.584H174V163.263H169.683V165.926ZM168.963 178.877C168.555 179.961 167.917 180.943 167.092 181.756C166.268 182.566 165.289 183.202 164.214 183.626C161.906 184.562 159.325 184.562 157.018 183.626C155.952 183.184 154.976 182.55 154.139 181.756C153.314 180.943 152.676 179.961 152.268 178.877C151.769 177.745 151.523 176.517 151.549 175.28C151.515 174.018 151.761 172.765 152.268 171.61C152.691 170.475 153.354 169.444 154.211 168.588C155.909 166.887 158.212 165.929 160.616 165.926C161.809 165.907 162.993 166.134 164.094 166.592C165.196 167.05 166.192 167.729 167.02 168.588C167.854 169.463 168.514 170.488 168.963 171.61C169.899 173.917 169.899 176.498 168.963 178.805V178.877Z" fill="#5F4A3E"/>
<path d="M192.062 162.328H190.839C190.096 162.263 189.35 162.263 188.608 162.328C187.692 162.407 186.794 162.625 185.945 162.976C184.969 163.351 184.048 163.86 183.211 164.487L182.419 165.206V163.12H178.102V187.152H182.419V173.985C182.403 172.918 182.624 171.861 183.067 170.891C183.425 169.918 183.99 169.034 184.722 168.3C185.481 167.548 186.388 166.96 187.384 166.573C188.464 166.067 189.647 165.82 190.839 165.854H191.63H193.069V162.256H192.422L192.062 162.328Z" fill="#5F4A3E"/>
<path d="M230.057 165.926C229.227 164.801 228.142 163.888 226.891 163.264C225.279 162.576 223.533 162.257 221.782 162.328C220.093 162.341 218.444 162.841 217.032 163.767C215.962 164.457 215.073 165.395 214.442 166.502L213.938 165.71C213.503 165.013 212.942 164.403 212.283 163.911C211.548 163.376 210.717 162.986 209.836 162.76C208.834 162.456 207.79 162.31 206.742 162.328C206.096 162.257 205.445 162.257 204.799 162.328C204.042 162.475 203.313 162.742 202.64 163.12C201.933 163.484 201.279 163.944 200.698 164.487V163.048H196.38V187.08H200.698V175.352C200.714 174.24 200.835 173.132 201.057 172.042C201.309 171.012 201.696 170.02 202.209 169.092C202.702 168.287 203.365 167.599 204.152 167.077C205.035 166.527 206.062 166.251 207.102 166.286C207.853 166.263 208.597 166.436 209.261 166.789C209.889 167.176 210.428 167.691 210.844 168.3C211.279 169.021 211.617 169.795 211.851 170.603C211.965 171.535 211.965 172.477 211.851 173.409V187.8H216.241V173.409C216.227 172.409 216.373 171.413 216.673 170.459C216.932 169.665 217.348 168.931 217.896 168.3C218.367 167.726 218.956 167.26 219.623 166.933C220.262 166.583 220.982 166.409 221.71 166.43C222.593 166.413 223.471 166.56 224.3 166.861C224.936 167.174 225.5 167.615 225.956 168.156C226.442 168.832 226.807 169.587 227.035 170.387C227.152 171.367 227.152 172.357 227.035 173.337V187.728H231.425V174.057C231.427 172.702 231.282 171.351 230.993 170.027C230.963 168.611 230.644 167.215 230.057 165.926Z" fill="#5F4A3E"/>
<path d="M77.4294 221.402H76.5659H75.7024L74.9108 220.971C74.6624 220.819 74.4431 220.624 74.2632 220.395V225.36H72.5361V211.976H74.2632V213.2L74.9108 212.624L75.7743 212.192H76.6379H77.4294C78.0782 212.189 78.7188 212.337 79.3004 212.624C79.8836 212.863 80.4196 213.204 80.8835 213.631C81.3227 214.073 81.6873 214.584 81.9629 215.142C82.1929 215.74 82.3147 216.373 82.3227 217.013C82.3262 217.662 82.1783 218.302 81.891 218.884C81.6411 219.458 81.2734 219.973 80.8116 220.395C80.373 220.819 79.861 221.161 79.3004 221.402C78.6842 221.539 78.0456 221.539 77.4294 221.402ZM77.4294 213.343C77.025 213.269 76.6105 213.269 76.2061 213.343C75.8424 213.542 75.5041 213.783 75.1987 214.063C74.8868 214.341 74.6409 214.685 74.4791 215.07C74.4039 215.523 74.4039 215.985 74.4791 216.437C74.3974 216.865 74.3974 217.305 74.4791 217.733C74.6337 218.142 74.8798 218.512 75.1987 218.812C75.4879 219.093 75.8304 219.313 76.2061 219.46C76.9966 219.745 77.8622 219.745 78.6528 219.46C79.0284 219.313 79.371 219.093 79.6602 218.812C79.9568 218.493 80.1998 218.129 80.3798 217.733C80.4615 217.305 80.4615 216.865 80.3798 216.437C80.455 215.985 80.455 215.523 80.3798 215.07C80.0135 214.318 79.4054 213.71 78.6528 213.343C78.2484 213.269 77.8338 213.269 77.4294 213.343Z" fill="#5F4A3E"/>
<path d="M86.3522 221.474H85.1289C84.8314 221.403 84.5583 221.254 84.3373 221.043C84.1134 220.791 83.9421 220.498 83.8336 220.179C83.7846 219.797 83.7846 219.41 83.8336 219.028V206.796H85.6326V218.524C85.5336 218.828 85.5336 219.156 85.6326 219.46C85.733 219.51 85.8439 219.537 85.9564 219.537C86.0689 219.537 86.1798 219.51 86.2802 219.46L86.3522 221.474Z" fill="#5F4A3E"/>
<path d="M92.4686 221.402C91.8766 221.538 91.2616 221.538 90.6696 221.402C90.1001 221.177 89.585 220.834 89.1584 220.395C88.6753 219.975 88.2834 219.461 88.007 218.884C87.7196 218.302 87.5718 217.662 87.5753 217.013C87.5817 216.365 87.729 215.727 88.007 215.142C88.2488 214.564 88.6177 214.047 89.0864 213.631C89.513 213.192 90.0281 212.849 90.5976 212.624C91.1792 212.336 91.8198 212.189 92.4686 212.192H93.3321C93.6184 212.151 93.9092 212.151 94.1956 212.192L95.0591 212.624L95.6348 213.128V211.904H97.2899V221.186H95.4909V219.963C95.1246 220.437 94.6226 220.789 94.0517 220.97C93.5624 221.23 93.0217 221.377 92.4686 221.402ZM92.4686 213.343C92.0879 213.275 91.6979 213.275 91.3172 213.343C90.932 213.505 90.5878 213.751 90.3097 214.063C89.985 214.329 89.7367 214.677 89.5901 215.07C89.4831 215.52 89.4831 215.988 89.5901 216.437C89.4738 216.861 89.4738 217.309 89.5901 217.733C89.7178 218.156 89.9682 218.531 90.3097 218.812C90.5722 219.125 90.9235 219.351 91.3172 219.459C91.6979 219.528 92.0879 219.528 92.4686 219.459C92.8976 219.528 93.3348 219.528 93.7638 219.459C94.1395 219.313 94.482 219.093 94.7713 218.812C95.0679 218.493 95.3109 218.129 95.4909 217.733C95.5726 217.305 95.5726 216.865 95.4909 216.437C95.598 215.988 95.598 215.52 95.4909 215.07C95.3545 214.671 95.1044 214.321 94.7713 214.063C94.4659 213.783 94.1276 213.541 93.7638 213.343C93.3361 213.26 92.8963 213.26 92.4686 213.343Z" fill="#5F4A3E"/>
<path d="M107.581 221.258H105.782V215.646C105.816 215.335 105.816 215.021 105.782 214.711C105.631 214.459 105.463 214.219 105.278 213.991L104.486 213.487C104.155 213.413 103.811 213.413 103.479 213.487H102.615C102.297 213.596 102.003 213.767 101.752 213.991C101.522 214.198 101.327 214.441 101.176 214.711C101.11 215.019 101.11 215.338 101.176 215.646V221.258H99.4492V211.976H101.176V213.056C101.356 212.827 101.575 212.632 101.824 212.48H102.472C102.707 212.416 102.956 212.416 103.191 212.48H103.767C104.876 212.438 105.958 212.825 106.789 213.559C107.157 213.905 107.45 214.321 107.653 214.783C107.891 215.251 108.014 215.768 108.013 216.294L107.581 221.258Z" fill="#5F4A3E"/>
<path d="M111.682 218.524C111.64 218.81 111.64 219.101 111.682 219.387C111.741 219.611 111.867 219.812 112.042 219.963C112.182 220.013 112.334 220.013 112.474 219.963H112.977C113.239 220.012 113.507 220.012 113.769 219.963L114.345 219.459L114.776 219.963L115.28 220.395L114.848 220.899L114.201 221.33H113.481H112.69C112.276 221.376 111.857 221.322 111.469 221.171C111.08 221.021 110.734 220.779 110.459 220.467C109.944 219.653 109.716 218.691 109.811 217.733V213.631H108.804V212.12H110.099V207.731H111.682V212.192H113.985V213.703H111.682V218.524Z" fill="#5F4A3E"/>
<path d="M132.119 219.747L131.399 220.467L130.464 220.97H129.456H128.449C127.833 221.112 127.194 221.112 126.578 220.97C125.999 220.764 125.48 220.418 125.067 219.963C124.583 219.56 124.212 219.04 123.987 218.452C123.7 217.871 123.552 217.23 123.556 216.581C123.564 215.941 123.686 215.308 123.916 214.711C124.165 214.137 124.533 213.622 124.995 213.199C125.423 212.744 125.936 212.377 126.506 212.12C127.149 212.004 127.807 212.004 128.449 212.12C129.12 212.125 129.782 212.272 130.392 212.552C131.002 212.844 131.561 213.233 132.047 213.703L130.824 214.711L129.816 213.919C129.368 213.803 128.897 213.803 128.449 213.919C128.044 213.851 127.631 213.851 127.226 213.919C126.862 214.117 126.524 214.359 126.218 214.639C125.921 214.943 125.7 215.313 125.571 215.718C125.454 216.142 125.454 216.589 125.571 217.013C125.47 217.439 125.47 217.882 125.571 218.308C125.717 218.684 125.937 219.026 126.218 219.316C126.505 219.618 126.847 219.862 127.226 220.035C127.631 220.104 128.044 220.104 128.449 220.035C128.923 220.143 129.415 220.143 129.888 220.035C130.299 219.788 130.664 219.471 130.968 219.1L132.119 219.747Z" fill="#5F4A3E"/>
<path d="M138.236 221.402C137.644 221.538 137.029 221.538 136.437 221.402C135.868 221.177 135.353 220.834 134.926 220.395C134.443 219.975 134.051 219.461 133.775 218.884C133.487 218.302 133.339 217.662 133.343 217.013C133.349 216.365 133.497 215.727 133.775 215.142C134.016 214.564 134.385 214.047 134.854 213.631C135.281 213.192 135.796 212.849 136.365 212.624C136.947 212.336 137.587 212.189 138.236 212.192H139.1H140.035L140.827 212.624L141.402 213.128V211.904H143.201V221.186H141.402V219.963C141.036 220.437 140.534 220.789 139.963 220.97C139.431 221.251 138.838 221.399 138.236 221.402ZM138.236 213.343C137.855 213.275 137.465 213.275 137.085 213.343C136.71 213.523 136.369 213.767 136.077 214.063C135.753 214.329 135.504 214.677 135.358 215.07C135.251 215.52 135.251 215.988 135.358 216.437C135.241 216.861 135.241 217.309 135.358 217.733C135.485 218.156 135.736 218.531 136.077 218.812C136.354 219.108 136.7 219.33 137.085 219.459C137.465 219.528 137.855 219.528 138.236 219.459C138.665 219.528 139.102 219.528 139.531 219.459C139.907 219.313 140.25 219.093 140.539 218.812C140.835 218.493 141.078 218.129 141.258 217.733C141.34 217.305 141.34 216.865 141.258 216.437C141.366 215.988 141.366 215.52 141.258 215.07C141.122 214.671 140.872 214.321 140.539 214.063C140.247 213.767 139.906 213.523 139.531 213.343C139.104 213.26 138.664 213.26 138.236 213.343Z" fill="#5F4A3E"/>
<path d="M147.662 212.408H150.253V213.847H147.662V221.042H145.863V213.847H144.496V212.408H145.863V210.681C145.795 210.18 145.795 209.671 145.863 209.17C146.059 208.744 146.327 208.354 146.655 208.019C146.97 207.683 147.367 207.436 147.806 207.299C148.28 207.191 148.772 207.191 149.245 207.299C149.746 207.309 150.238 207.432 150.685 207.659C151.113 207.882 151.502 208.173 151.836 208.522L150.541 209.458C150.388 209.259 150.192 209.097 149.968 208.985C149.743 208.873 149.496 208.813 149.245 208.81C148.99 208.808 148.737 208.858 148.502 208.957C148.267 209.056 148.055 209.202 147.878 209.386C147.513 209.829 147.332 210.396 147.375 210.969L147.662 212.408Z" fill="#5F4A3E"/>
<path d="M155.507 211.76C156.203 211.743 156.894 211.89 157.522 212.192C158.058 212.469 158.545 212.834 158.961 213.272C159.333 213.801 159.624 214.383 159.824 214.998C159.899 215.692 159.899 216.392 159.824 217.085H152.628C152.524 217.413 152.524 217.765 152.628 218.092C152.776 218.446 152.997 218.765 153.276 219.028C153.561 219.261 153.875 219.454 154.211 219.603C154.616 219.678 155.03 219.678 155.435 219.603C155.935 219.688 156.446 219.688 156.946 219.603C157.469 219.371 157.918 218.997 158.241 218.524L159.321 219.603C158.829 220.157 158.245 220.619 157.594 220.971C156.93 221.323 156.186 221.497 155.435 221.474C154.816 221.583 154.183 221.583 153.564 221.474C152.994 221.249 152.479 220.906 152.053 220.467C151.559 220.074 151.185 219.55 150.973 218.956C150.68 218.351 150.532 217.686 150.541 217.013C150.437 216.394 150.437 215.762 150.541 215.142C150.784 214.599 151.099 214.091 151.477 213.631C151.883 213.2 152.372 212.858 152.916 212.624C153.685 212.106 154.581 211.808 155.507 211.76ZM158.241 215.646C158.315 215.339 158.315 215.018 158.241 214.711C158.064 214.438 157.846 214.195 157.594 213.991C157.347 213.743 157.054 213.547 156.73 213.415H155.723H154.715C154.391 213.547 154.098 213.743 153.852 213.991C153.58 214.175 153.358 214.422 153.204 214.711C153.131 215.018 153.131 215.339 153.204 215.646H158.241Z" fill="#5F4A3E"/>
<path d="M111.682 38.1355C111.682 36.9123 111.682 35.2574 110.963 34.25C112.186 35.0415 111.682 36.8403 111.682 38.1355Z" fill="#72863B"/>
<path d="M109.235 30.6523C109.279 31.1551 109.279 31.6606 109.235 32.1634C109.309 31.6624 109.309 31.1533 109.235 30.6523Z" fill="#72863B"/>
<path d="M112.042 38.2075C111.271 37.998 110.586 37.552 110.083 36.9323C109.579 36.3127 109.283 35.5506 109.235 34.7537C109.283 35.5506 109.579 36.3127 110.083 36.9323C110.586 37.552 111.271 37.998 112.042 38.2075Z" fill="#72863B"/>
<path d="M111.683 38.1357C111.683 36.8405 111.683 35.0417 110.747 34.0343C110.588 33.8516 110.392 33.7045 110.172 33.6026C110.821 34.0145 111.362 34.5754 111.75 35.2388C112.138 35.9022 112.361 36.6487 112.402 37.4162C112.477 36.6745 112.477 35.9272 112.402 35.1856C112.402 33.027 110.675 30.2927 108.589 30.2927C108.662 30.7937 108.662 31.3028 108.589 31.8038C108.589 32.7392 108.589 33.7465 108.589 34.2502C108.555 35.1606 108.849 36.053 109.416 36.7657C109.984 37.4784 110.788 37.9644 111.683 38.1357Z" fill="#72863B"/>
<path d="M127.01 37.8477C128.089 36.8404 130.032 36.3367 130.104 34.5378C130.052 35.3124 129.824 36.0649 129.437 36.7381C129.051 37.4114 128.516 37.9877 127.873 38.4233C128.634 38.2169 129.361 37.9018 130.032 37.4879C131.903 36.4086 133.414 33.5305 132.335 31.7316C132.335 31.2999 131.831 31.7316 130.896 32.5951C129.96 33.4585 128.953 33.3146 128.593 33.5305C127.904 33.9879 127.379 34.6533 127.094 35.4298C126.809 36.2063 126.78 37.0533 127.01 37.8477Z" fill="#72863B"/>
<path d="M115.568 35.2575C115.208 35.9051 114.561 36.4807 114.417 36.8405C114.145 37.4227 114.062 38.0749 114.178 38.7067C114.294 39.3384 114.604 39.9184 115.064 40.3662C115.424 39.2149 116.576 38.0637 115.856 36.8405C116.123 37.3897 116.262 37.9925 116.262 38.6033C116.262 39.2141 116.123 39.8169 115.856 40.3662C116.275 39.9335 116.637 39.4501 116.935 38.9271C117.727 37.3441 117.583 34.8257 116.144 34.0343C114.705 33.2428 116 34.466 115.568 35.2575Z" fill="#72863B"/>
<path d="M104.486 42.8125C104.486 43.1723 104.918 42.8125 105.854 42.8125C106.789 42.8125 107.293 43.3882 107.725 43.3882C108.359 43.4867 109.008 43.3702 109.569 43.0573C110.13 42.7444 110.57 42.253 110.819 41.6613C109.667 41.6613 108.228 41.0137 107.293 42.0211C107.722 41.5923 108.243 41.2661 108.816 41.0668C109.389 40.8674 110 40.8001 110.603 40.8698C110.051 40.6139 109.471 40.4208 108.876 40.2942C107.005 40.2222 104.486 41.1576 104.486 42.8125Z" fill="#72863B"/>
<path d="M102.975 36.4805C103.407 37.1281 103.695 37.9196 103.911 38.2794C104.345 38.7591 104.913 39.0977 105.541 39.2516C106.17 39.4055 106.83 39.3676 107.437 39.1428C106.501 38.3513 105.997 36.8403 104.558 36.9842C105.167 36.9473 105.776 37.0514 106.337 37.2886C106.899 37.5257 107.398 37.8894 107.796 38.3513C107.565 37.7948 107.276 37.2641 106.933 36.7683C105.853 35.4012 103.551 34.4658 102.183 35.4732C101.896 35.689 102.471 35.761 102.975 36.4805Z" fill="#72863B"/>
<path d="M99.6649 49.7201C99.6649 48.5689 100.025 46.9859 98.6574 46.1944C99.1867 46.5481 99.6297 47.0163 99.9535 47.5643C100.277 48.1123 100.474 48.7262 100.528 49.3604C100.597 48.7627 100.597 48.1591 100.528 47.5615C100.567 46.5959 100.263 45.6477 99.6706 44.8842C99.0782 44.1207 98.2351 43.5909 97.2902 43.3882C96.8584 43.3882 97.2902 43.8919 97.2902 44.7553C97.2902 45.6188 96.8584 46.4103 96.8584 46.77C96.9423 47.4998 97.2615 48.1825 97.7679 48.7147C98.2742 49.247 98.9401 49.5999 99.6649 49.7201Z" fill="#72863B"/>
<path d="M93.8361 51.8788C94.2679 52.5984 94.4118 53.4618 94.6277 53.8216C95.05 54.3635 95.6275 54.764 96.2831 54.9697C96.9387 55.1753 97.6414 55.1764 98.2977 54.9728C97.4341 54.1094 97.0743 52.4545 95.4912 52.4545C96.1403 52.4599 96.7787 52.6193 97.3542 52.9195C97.9296 53.2197 98.4256 53.6522 98.8014 54.1813C98.6683 53.5668 98.4245 52.9816 98.0818 52.4545C97.609 51.6088 96.8424 50.9659 95.9273 50.6476C95.0122 50.3294 94.0121 50.3578 93.1165 50.7276C92.7567 50.9434 93.4044 51.0873 93.8361 51.8788Z" fill="#72863B"/>
<path d="M99.9524 58.3546C99.5514 57.8686 99.0922 57.4336 98.5851 57.0595C97.7902 56.512 96.8277 56.2623 95.8668 56.3544C94.906 56.4466 94.0084 56.8746 93.332 57.5631C93.332 57.5631 93.6918 57.5631 94.4834 58.3546C95.0165 58.7779 95.4993 59.2607 95.9226 59.7937C96.5366 60.0974 97.2271 60.2116 97.9062 60.1219C98.5853 60.0322 99.2224 59.7427 99.7365 59.29C98.6571 58.8583 97.6497 57.4912 96.2104 58.1388C96.8091 57.886 97.4578 57.774 98.1065 57.8115C98.7553 57.8489 99.3868 58.0347 99.9524 58.3546Z" fill="#72863B"/>
<path d="M101.105 54.3251C101.105 55.1166 101.105 55.9801 101.105 56.3398C101.226 57.0204 101.553 57.6474 102.042 58.1363C102.531 58.6252 103.158 58.9525 103.839 59.0741C103.479 57.9228 103.839 56.2679 102.544 55.6203C103.11 55.9179 103.596 56.3483 103.959 56.8746C104.322 57.4009 104.553 58.0075 104.631 58.6424C104.697 58.0205 104.697 57.3934 104.631 56.7716C104.631 54.9727 102.832 52.8141 100.961 52.958C100.601 53.03 101.105 53.3897 101.105 54.3251Z" fill="#72863B"/>
<path d="M103.479 62.8159C103.057 63.6784 102.963 64.6649 103.214 65.5916C103.466 66.5182 104.046 67.3218 104.846 67.8527C105.206 67.8527 104.846 67.4209 105.422 66.6294C105.771 66.0318 106.156 65.4552 106.573 64.9026C106.767 64.2457 106.76 63.5461 106.555 62.8927C106.35 62.2392 105.956 61.6615 105.422 61.2329C105.422 62.4561 104.054 63.6074 104.918 64.9026C104.569 64.3651 104.349 63.7545 104.274 63.1181C104.199 62.4817 104.272 61.8367 104.486 61.2329C104.083 61.7143 103.744 62.2465 103.479 62.8159Z" fill="#72863B"/>
<path d="M98.0099 65.7659C98.6798 65.6976 99.3549 65.6976 100.025 65.7659C100.652 65.4692 101.169 64.9832 101.505 64.3764C101.841 63.7696 101.978 63.0727 101.896 62.3841C100.888 63.0316 99.2333 63.0316 98.9454 64.5427C99.0658 63.9204 99.3394 63.338 99.7415 62.8481C100.144 62.3581 100.661 61.9761 101.248 61.7365C100.629 61.6276 99.9961 61.6276 99.3772 61.7365C98.4727 62.0606 97.7106 62.6919 97.2241 63.5204C96.7375 64.3488 96.5572 65.3218 96.7146 66.2696C96.8586 66.6293 97.2903 66.0537 98.0099 65.7659Z" fill="#72863B"/>
<path d="M111.683 49.2885C112.143 48.8755 112.532 48.3893 112.834 47.8494C113.341 47.1056 113.569 46.2064 113.476 45.3109C113.384 44.4155 112.978 43.5815 112.33 42.9565C112.33 42.9565 112.33 43.3883 111.683 44.1078C111.035 44.8273 110.603 45.331 110.387 45.6908C110.098 46.2588 109.991 46.9023 110.081 47.5334C110.171 48.1645 110.454 48.7523 110.891 49.2165C110.891 48.1372 112.474 47.0579 111.826 45.7627C112.072 46.3228 112.186 46.9314 112.161 47.5422C112.136 48.1531 111.972 48.7502 111.683 49.2885Z" fill="#72863B"/>
<path d="M105.422 48.2811C105.062 48.2811 105.422 48.6409 105.926 49.4324C106.125 50.0471 106.293 50.6715 106.429 51.3032C106.78 51.8742 107.306 52.3162 107.928 52.5627C108.551 52.8092 109.237 52.847 109.884 52.6703C109.164 51.8069 109.092 50.2239 107.509 50.08C108.121 50.1419 108.709 50.3509 109.223 50.6892C109.736 51.0275 110.161 51.485 110.459 52.0227C110.534 51.4495 110.534 50.869 110.459 50.2958C110.048 49.3695 109.291 48.6404 108.35 48.264C107.409 47.8876 106.359 47.8938 105.422 48.2811Z" fill="#72863B"/>
<path d="M115.856 51.3032C115.352 51.7349 114.705 52.0227 114.489 52.2386C114.119 52.6232 113.873 53.1101 113.783 53.6362C113.693 54.1622 113.764 54.7031 113.985 55.1887C114.561 54.3972 115.784 53.8216 115.568 52.6703C115.635 53.1674 115.585 53.6731 115.422 54.1476C115.26 54.6221 114.99 55.0524 114.633 55.4045C115.084 55.1832 115.496 54.8918 115.856 54.5411C116.935 53.6057 117.583 51.591 116.648 50.5836C115.712 49.5763 116.36 50.7995 115.856 51.3032Z" fill="#72863B"/>
<path d="M124.779 39.7185C124.779 38.5672 125.355 37.0562 124.276 36.1927C124.725 36.6005 125.081 37.1015 125.317 37.6608C125.553 38.22 125.664 38.824 125.643 39.4307C125.864 38.8521 126.009 38.2475 126.075 37.6318C126.075 35.9049 125.211 33.6744 123.556 33.4585C123.556 33.4585 123.556 33.8902 123.556 34.7537C123.434 35.4122 123.265 36.0613 123.052 36.6964C123.004 37.3153 123.143 37.9344 123.451 38.4733C123.759 39.0123 124.222 39.4461 124.779 39.7185Z" fill="#72863B"/>
<path d="M128.521 40.2222C128.521 40.2222 128.521 40.6539 128.017 41.4454C127.513 42.2369 127.081 42.7406 126.866 43.1003C126.655 43.7032 126.632 44.3557 126.799 44.972C126.966 45.5884 127.315 46.1399 127.801 46.5541C127.801 45.4029 129.096 44.2516 128.377 43.0284C128.644 43.5776 128.783 44.1804 128.783 44.7912C128.783 45.402 128.644 46.0049 128.377 46.5541C128.786 46.1034 129.125 45.5941 129.384 45.0431C129.815 44.2625 129.965 43.3573 129.808 42.4795C129.65 41.6016 129.196 40.8046 128.521 40.2222Z" fill="#72863B"/>
<path d="M128.45 51.3751C129.169 50.3678 130.608 49.7202 130.393 48.2811C130.463 48.8949 130.396 49.5166 130.197 50.1014C129.998 50.6863 129.671 51.2196 129.241 51.6629C129.8 51.3873 130.31 51.0228 130.752 50.5836C132.048 49.4324 132.767 46.9859 131.616 45.7627C130.464 44.5395 131.616 45.7627 130.68 46.6981C130.153 47.0934 129.6 47.454 129.025 47.7774C128.588 48.255 128.3 48.8505 128.198 49.4899C128.095 50.1294 128.183 50.7849 128.45 51.3751Z" fill="#72863B"/>
<path d="M138.164 45.1151C138.955 44.1797 140.467 43.676 140.323 42.237C140.354 42.8449 140.248 43.452 140.011 44.0128C139.774 44.5736 139.413 45.0735 138.955 45.4749L140.467 44.5395C141.209 44.0285 141.746 43.2712 141.983 42.402C142.22 41.5327 142.142 40.6075 141.762 39.7905C141.762 39.7905 141.402 39.7905 140.682 40.654C140.129 41.0047 139.552 41.3173 138.955 41.5894C138.488 42.0318 138.163 42.6036 138.022 43.2316C137.881 43.8596 137.93 44.5153 138.164 45.1151Z" fill="#72863B"/>
<path d="M141.042 53.8215C141.906 53.03 143.489 52.6702 143.561 51.3031C143.499 51.8974 143.305 52.4705 142.994 52.9807C142.683 53.491 142.262 53.9256 141.762 54.2532C142.34 54.1127 142.897 53.8949 143.417 53.6056C144.928 52.7422 146.151 50.5116 145.288 49.0725C145.288 49.0725 144.928 49.0725 144.137 49.7201C143.345 50.3677 142.625 50.2957 142.338 50.5116C141.791 50.8475 141.369 51.3523 141.135 51.9496C140.902 52.5468 140.869 53.204 141.042 53.8215Z" fill="#72863B"/>
<path d="M144.064 55.8362C144.064 55.4764 143.561 55.8362 142.697 55.8362C141.833 55.8362 141.114 55.4764 140.754 55.4764C140.106 55.4713 139.472 55.6699 138.943 56.0443C138.413 56.4187 138.015 56.95 137.804 57.5631C139.027 57.5631 140.538 57.9229 141.33 56.7716C140.954 57.2551 140.474 57.6483 139.926 57.9222C139.378 58.1961 138.776 58.3439 138.164 58.3546H139.963C141.69 58.7143 143.92 57.4911 144.064 55.8362Z" fill="#72863B"/>
<path d="M136.005 56.9874C136.485 56.6349 136.921 56.224 137.3 55.7642C137.887 55.0845 138.211 54.2161 138.211 53.3178C138.211 52.4194 137.887 51.5511 137.3 50.8713C137.3 50.8713 137.3 51.2311 136.508 51.8787C136.028 52.36 135.524 52.8163 134.997 53.2458C134.632 53.7746 134.437 54.402 134.437 55.0447C134.437 55.6873 134.632 56.3147 134.997 56.8435C135.573 55.7642 136.868 54.9008 136.436 53.5336C136.638 54.1032 136.704 54.712 136.629 55.3116C136.554 55.9111 136.34 56.4849 136.005 56.9874Z" fill="#72863B"/>
<path d="M136.221 44.1797C136.221 44.1797 136.221 44.1797 135.573 45.0431C135.191 45.4305 134.782 45.7911 134.35 46.1224C134.05 46.5558 133.889 47.0704 133.889 47.5975C133.889 48.1246 134.05 48.6392 134.35 49.0726C134.781 48.2091 135.933 47.4896 135.501 46.4103C135.647 46.8801 135.684 47.377 135.609 47.8632C135.534 48.3494 135.35 48.8122 135.069 49.2165C135.479 48.939 135.844 48.5991 136.149 48.2091C137.012 47.1298 137.3 45.0431 136.221 44.1797Z" fill="#72863B"/>
<path d="M138.667 62.528C138.163 61.8804 137.947 61.0889 137.66 60.8011C137.243 60.319 136.687 59.9774 136.069 59.8228C135.451 59.6683 134.8 59.7084 134.205 59.9376C135.069 60.6572 135.645 62.2402 137.084 62.0962C136.477 62.1226 135.871 62.0136 135.311 61.7771C134.751 61.5407 134.25 61.1827 133.846 60.7291C134.077 61.2857 134.366 61.8163 134.709 62.3121C135.789 63.6792 138.163 64.5427 139.459 63.5353C140.754 62.528 139.171 63.2475 138.667 62.528Z" fill="#72863B"/>
<path d="M135.789 36.1929C135.59 36.7698 135.259 37.2918 134.821 37.7168C134.384 38.1418 133.852 38.4579 133.27 38.6394C133.868 38.7096 134.471 38.7096 135.069 38.6394C136.796 38.2076 138.523 36.3368 138.091 34.6819C138.091 34.6819 137.66 34.6819 136.796 35.1136H134.781C134.174 35.3113 133.645 35.6963 133.27 36.2134C132.895 36.7305 132.693 37.3531 132.694 37.9918C133.774 37.4881 135.357 37.56 135.789 36.1929Z" fill="#72863B"/>
<path d="M133.271 40.0785C132.743 40.4738 132.19 40.8343 131.616 41.1578C131.161 41.6252 130.862 42.2216 130.759 42.8655C130.655 43.5095 130.754 44.1695 131.04 44.7555C131.688 43.7481 133.199 43.1005 132.983 41.7334C133.048 42.3359 132.978 42.9452 132.779 43.5175C132.58 44.0898 132.256 44.6109 131.832 45.0433L133.271 44.0359C133.976 43.4581 134.45 42.647 134.609 41.7494C134.767 40.8518 134.599 39.9272 134.134 39.1431C134.134 39.1431 133.271 39.5028 133.271 40.0785Z" fill="#72863B"/>
<path d="M120.102 34.9695C120.102 33.9622 121.397 32.9548 120.822 31.8755C121.035 32.3759 121.146 32.9144 121.146 33.4585C121.146 34.0026 121.035 34.5411 120.822 35.0415C121.174 34.615 121.487 34.1574 121.757 33.6743C122.16 32.9714 122.308 32.1513 122.177 31.352C122.046 30.5526 121.643 29.8228 121.038 29.2852C121.038 29.2852 121.038 29.2852 120.462 30.3645C120.168 30.8905 119.805 31.3746 119.382 31.8035C119.17 32.3424 119.125 32.9328 119.253 33.4977C119.382 34.0625 119.677 34.5755 120.102 34.9695Z" fill="#72863B"/>
<path d="M128.665 29.9329C128.667 30.4773 128.552 31.0158 128.329 31.5123C128.105 32.0087 127.778 32.4516 127.369 32.8111L128.809 32.0196C130.032 31.0842 130.895 28.9256 130.032 27.7743C129.168 26.623 129.672 27.7743 129.024 28.4938C128.377 29.2134 127.729 29.0695 127.441 29.2853C127.02 29.6819 126.722 30.1911 126.581 30.7523C126.441 31.3135 126.465 31.9032 126.65 32.4513C127.369 31.4439 128.737 31.4439 128.665 29.9329Z" fill="#72863B"/>
<path d="M118.879 27.99C118.969 28.4759 118.945 28.9763 118.808 29.4511C118.67 29.9259 118.423 30.3619 118.087 30.7243C118.386 30.4702 118.652 30.1802 118.879 29.8608C119.886 28.8535 120.39 26.8387 119.382 25.9033C118.375 24.9679 119.382 25.9033 118.663 26.6229C118.212 26.933 117.779 27.2693 117.368 27.6302C116.998 28.0028 116.762 28.4873 116.697 29.008C116.632 29.5287 116.741 30.0563 117.008 30.5084C117.727 29.7169 118.879 29.1413 118.879 27.99Z" fill="#72863B"/>
<path d="M113.337 31.4439C113.521 31.9352 113.858 32.3543 114.299 32.6394C114.74 32.9244 115.26 33.0603 115.784 33.0269C115.28 32.2354 115.28 30.8683 114.201 30.6524C114.669 30.7832 115.1 31.0199 115.462 31.3443C115.824 31.6688 116.107 32.0721 116.287 32.5232C116.382 32.0482 116.382 31.5591 116.287 31.0841C115.856 29.717 114.273 28.4218 112.977 28.8536C111.682 29.2853 112.977 28.8536 113.337 29.8609C113.381 30.3876 113.381 30.9172 113.337 31.4439Z" fill="#72863B"/>
<path d="M99.161 39.7187C99.5928 40.2223 99.8806 40.8699 100.096 41.0858C100.467 41.4532 100.937 41.7037 101.449 41.8061C101.961 41.9084 102.492 41.8581 102.975 41.6614C102.183 41.0858 101.68 39.8626 100.528 40.0065C101.02 39.9549 101.517 40.0191 101.979 40.1941C102.441 40.369 102.856 40.6497 103.191 41.0138C102.997 40.543 102.73 40.1059 102.399 39.7187C101.975 39.0983 101.344 38.6491 100.619 38.4514C99.8937 38.2537 99.1219 38.3203 98.4414 38.6393C98.4414 38.6393 98.7293 39.215 99.161 39.7187Z" fill="#72863B"/>
<path d="M123.556 29.2134C123.731 29.6158 124.024 29.9553 124.397 30.1867C124.77 30.418 125.204 30.5303 125.643 30.5086C125.211 29.861 125.211 28.7817 124.275 28.4939C124.662 28.6133 125.018 28.8173 125.317 29.091C125.616 29.3648 125.85 29.7015 126.002 30.0768C126.071 29.6962 126.071 29.3062 126.002 28.9256C125.643 27.7743 124.347 26.695 123.268 27.0548C122.188 27.4145 123.268 27.0548 123.268 27.9182C123.268 28.7817 123.484 28.9975 123.556 29.2134Z" fill="#72863B"/>
<path d="M104.486 32.8111C104.867 33.0715 105.228 33.3601 105.565 33.6745C105.905 33.9371 106.323 34.0795 106.753 34.0795C107.182 34.0795 107.6 33.9371 107.94 33.6745C107.22 33.6745 106.501 32.5952 105.637 33.027C106.008 32.8485 106.414 32.7558 106.825 32.7558C107.236 32.7558 107.642 32.8485 108.012 33.027L107.077 32.2355C106.069 31.6598 104.342 31.5879 103.766 32.2355C103.191 32.8831 103.91 32.5233 104.486 32.8111Z" fill="#72863B"/>
<path d="M120.173 37.6319C120.147 37.997 120.237 38.361 120.431 38.6714C120.625 38.9817 120.913 39.2225 121.253 39.3588C121.253 38.6392 121.253 37.8478 121.253 37.3441C121.513 37.5636 121.72 37.8398 121.857 38.1516C121.995 38.4634 122.059 38.8025 122.044 39.1429C122.086 38.8084 122.086 38.4701 122.044 38.1356C122.044 37.2002 121.541 35.905 120.605 35.7611C119.67 35.6172 120.605 35.7611 120.605 36.4806C120.605 37.2002 120.173 37.416 120.173 37.6319Z" fill="#72863B"/>
<path d="M125.427 54.7569C125.35 54.3609 125.229 53.9748 125.067 53.6057C124.635 52.5263 123.196 51.519 122.188 51.9507C121.181 52.3824 122.188 51.9507 122.548 52.8142C122.908 53.6776 122.548 53.8215 122.548 54.0374C122.732 54.4395 123.043 54.7701 123.433 54.9782C123.823 55.1862 124.271 55.2602 124.707 55.1886C124.203 54.5411 124.131 53.4618 123.196 53.3178C123.656 53.3611 124.099 53.5144 124.487 53.7649C124.875 54.0154 125.198 54.3556 125.427 54.7569Z" fill="#72863B"/>
<path d="M123.124 47.9932C123.112 48.4298 123.238 48.8592 123.483 49.2206C123.728 49.5821 124.081 49.8574 124.491 50.0079C124.491 49.2164 124.491 48.209 124.059 47.6334C124.362 47.9088 124.606 48.2414 124.779 48.6119C124.952 48.9824 125.05 49.3835 125.067 49.792C125.102 49.385 125.102 48.9758 125.067 48.5688C125.067 47.4176 124.347 45.9065 123.268 45.8346C122.188 45.7626 123.268 45.8346 123.268 46.698C123.268 47.5615 123.124 47.7773 123.124 47.9932Z" fill="#72863B"/>
<path d="M116.432 60.7292C116.689 60.4216 116.906 60.0832 117.079 59.7218C117.357 59.1832 117.437 58.5642 117.306 57.9726C117.174 57.381 116.84 56.8542 116.36 56.4839C116.36 56.4839 116.36 56.4839 116.36 57.2754C116.36 58.0669 115.712 58.2108 115.64 58.4266C115.485 58.8343 115.457 59.2793 115.56 59.7032C115.663 60.127 115.891 60.5098 116.216 60.8011C116.216 60.0096 117.151 59.2181 116.648 58.4266C116.793 58.8009 116.848 59.2038 116.811 59.6033C116.774 60.0029 116.644 60.3883 116.432 60.7292Z" fill="#72863B"/>
<path d="M102.184 49.2164C102.184 49.7201 102.184 50.2957 102.184 50.5116C102.351 50.9101 102.63 51.2515 102.988 51.4943C103.346 51.737 103.766 51.8705 104.198 51.8787C103.839 51.2311 103.839 50.1518 102.975 49.864C103.359 49.9955 103.707 50.213 103.994 50.4998C104.281 50.7867 104.499 51.1352 104.63 51.5189C104.665 51.1119 104.665 50.7027 104.63 50.2957C104.27 49.1444 103.047 47.9932 101.896 48.3529C100.744 48.7127 102.04 48.6408 102.184 49.2164Z" fill="#72863B"/>
<path d="M103.335 45.8346L103.983 46.4822C104.322 46.678 104.707 46.781 105.098 46.781C105.49 46.781 105.875 46.678 106.214 46.4822C105.566 46.0505 104.99 45.259 104.127 45.5468H104.487C104.399 45.4963 104.3 45.4697 104.199 45.4697C104.098 45.4697 103.999 45.4963 103.911 45.5468C104.228 45.4038 104.571 45.3298 104.918 45.3298C105.266 45.3298 105.609 45.4038 105.926 45.5468L105.422 44.9712C104.811 44.5442 104.081 44.3179 103.335 44.3236C103.085 44.3313 102.84 44.3933 102.617 44.5051C102.393 44.6169 102.196 44.7759 102.04 44.9712L102.76 45.4029L103.335 45.8346Z" fill="#72863B"/>
<path d="M108.229 63.7511C107.797 64.8304 108.229 66.5573 109.164 66.9171C110.1 67.2769 109.164 66.9171 109.164 66.1256C109.164 65.3341 109.74 65.1902 109.812 64.9743C109.962 64.5537 109.973 64.096 109.843 63.6685C109.714 63.2411 109.45 62.8665 109.092 62.5999C109.092 63.3913 108.301 64.2548 109.092 65.0463C108.919 64.6746 108.829 64.2693 108.829 63.859C108.829 63.4488 108.919 63.0435 109.092 62.6718C108.773 63.0055 108.484 63.3666 108.229 63.7511Z" fill="#72863B"/>
<path d="M133.27 53.7495C133.55 53.4441 133.792 53.1058 133.99 52.7421C134.494 51.7348 134.35 50.0079 133.342 49.5042C132.335 49.0005 133.342 49.5042 132.983 50.2957C132.741 50.6716 132.477 51.0321 132.191 51.375C132.017 51.7739 131.972 52.2173 132.062 52.643C132.152 53.0688 132.374 53.4557 132.695 53.7495C132.695 53.03 133.63 52.2385 133.198 51.447C133.387 51.7992 133.492 52.1903 133.504 52.5898C133.517 52.9892 133.437 53.3862 133.27 53.7495Z" fill="#72863B"/>
<path d="M127.873 61.3047L127.01 62.1681C126.624 62.6332 126.412 63.2186 126.412 63.8231C126.412 64.4276 126.624 65.013 127.01 65.478C127.01 65.478 127.01 65.478 127.585 64.7585C128.161 64.0389 128.377 64.0389 128.521 63.8231C128.783 63.483 128.926 63.0655 128.926 62.6358C128.926 62.2062 128.783 61.7887 128.521 61.4486C128.521 62.1681 127.298 62.7438 127.585 63.6792C127.455 63.2866 127.414 62.8702 127.464 62.4597C127.513 62.0492 127.653 61.6548 127.873 61.3047Z" fill="#72863B"/>
<path d="M140.466 50.3677C140.791 50.0915 141.081 49.7775 141.33 49.4323C141.978 48.4969 142.122 46.77 141.33 46.1224C140.538 45.4748 141.33 46.1224 140.826 46.9139L139.891 47.8493C139.643 48.2092 139.511 48.6357 139.511 49.0725C139.511 49.5093 139.643 49.9358 139.891 50.2957C139.891 49.5042 141.114 48.8567 140.754 47.9932C140.884 48.3858 140.926 48.8022 140.876 49.2126C140.826 49.6231 140.686 50.0176 140.466 50.3677Z" fill="#72863B"/>
<path d="M133.271 62.456C133.249 61.97 133.079 61.5023 132.783 61.1162C132.487 60.7302 132.079 60.4443 131.616 60.2974C131.616 61.1608 131.616 62.3121 132.263 62.9597C131.893 62.6658 131.592 62.2946 131.38 61.8719C131.169 61.4493 131.053 60.9856 131.04 60.5132C131.006 60.9683 131.006 61.4253 131.04 61.8803C131.04 63.2475 131.903 64.9744 133.199 64.9744C134.494 64.9744 133.199 64.9744 133.199 63.967C133.199 62.9597 133.271 62.8158 133.271 62.456Z" fill="#72863B"/>
<path d="M137.372 38.6394C137.03 38.9047 136.67 39.1451 136.293 39.3589C135.962 39.6462 135.734 40.0333 135.643 40.4618C135.553 40.8902 135.604 41.3366 135.789 41.7334C136.293 41.0858 137.301 40.726 137.157 39.7906C137.197 40.1933 137.139 40.5998 136.989 40.9755C136.839 41.3513 136.6 41.6853 136.293 41.9492L137.372 41.3017C138.236 40.5821 138.812 38.9272 138.092 38.0637C137.372 37.2003 137.876 38.6394 137.372 38.6394Z" fill="#72863B"/>
<path d="M117.295 41.6614C117.302 42.0595 117.431 42.446 117.665 42.7683C117.899 43.0907 118.226 43.3335 118.602 43.4637C118.979 43.594 119.386 43.6054 119.769 43.4966C120.152 43.3877 120.492 43.1637 120.744 42.855C120.996 42.5463 121.146 42.1677 121.176 41.7706C121.205 41.3734 121.111 40.9769 120.908 40.6347C120.704 40.2924 120.4 40.021 120.037 39.8571C119.674 39.6933 119.27 39.6449 118.878 39.7186C118.428 39.8035 118.021 40.0451 117.732 40.4006C117.442 40.7562 117.287 41.2028 117.295 41.6614Z" fill="#72863B"/>
<path d="M128.881 54.9008C128.832 55.1217 128.833 55.3508 128.884 55.5712C128.935 55.7916 129.036 55.9976 129.177 56.1741C129.319 56.3506 129.498 56.493 129.702 56.5909C129.906 56.6888 130.13 56.7396 130.356 56.7396C130.582 56.7396 130.806 56.6888 131.01 56.5909C131.214 56.493 131.393 56.3506 131.535 56.1741C131.676 55.9976 131.776 55.7916 131.828 55.5712C131.879 55.3508 131.88 55.1217 131.831 54.9008C131.831 54.5192 131.679 54.1531 131.41 53.8833C131.14 53.6134 130.774 53.4618 130.392 53.4618C130.197 53.452 130.002 53.482 129.819 53.5499C129.636 53.6179 129.469 53.7223 129.327 53.8569C129.186 53.9916 129.074 54.1535 128.997 54.333C128.92 54.5124 128.88 54.7056 128.881 54.9008Z" fill="#72863B"/>
<path d="M108.084 55.5483C107.796 55.5487 107.515 55.6352 107.277 55.7968C107.039 55.9583 106.855 56.1875 106.749 56.4546C106.642 56.7218 106.618 57.0148 106.68 57.2957C106.742 57.5766 106.886 57.8327 107.094 58.0307C107.303 58.2288 107.566 58.3599 107.85 58.407C108.134 58.4542 108.425 58.4152 108.686 58.2952C108.948 58.1751 109.167 57.9795 109.316 57.7336C109.465 57.4877 109.537 57.2027 109.523 56.9155C109.505 56.5464 109.345 56.1986 109.077 55.9441C108.809 55.6896 108.453 55.5479 108.084 55.5483Z" fill="#72863B"/>
<path d="M131.759 57.635C123.7 57.635 127.873 61.3766 127.873 53.3178C127.837 50.7212 126.981 48.2026 125.427 46.1224C126.261 47.7714 126.681 49.5991 126.65 51.447C126.65 55.6203 121.037 68.644 121.685 52.5263C121.425 49.8287 122.013 47.1173 123.368 44.7699C124.722 42.4226 126.775 40.5561 129.24 39.4307C126.879 39.7654 124.669 40.7911 122.889 42.3787C121.109 43.9664 119.839 46.045 119.238 48.3529C117.29 44.3497 114.245 40.9814 110.459 38.6392C113.05 41.0143 115.133 43.8906 116.58 47.0939C118.027 50.2972 118.809 53.7609 118.878 57.2752C118.878 70.5148 113.121 61.4486 113.121 55.1886C113.158 52.8613 113.724 50.5728 114.776 48.4968C113.619 49.4164 112.687 50.5879 112.051 51.9221C111.415 53.2563 111.092 54.718 111.106 56.1959C111.106 64.3987 114.776 58.7863 104.846 59.5778C90.8856 60.6571 115.568 58.4265 116.36 69.9391C116.782 72.4398 116.782 74.9936 116.36 77.4943C116.36 77.4943 116.36 78.1419 116.36 78.5016C116.36 79.581 116.36 80.9481 116.36 82.5311C116.36 86.1288 116.36 90.3021 116.36 92.1009C116.36 95.9145 116.36 106.132 116.36 102.318C115.712 94.4035 115.712 86.8483 115.712 82.5311V78.7895H114.848C113.821 78.8186 112.821 79.1293 111.959 79.6876C111.096 80.2459 110.403 81.0303 109.955 81.9554C108.066 87.1425 107.115 92.6247 107.149 98.1451C107.451 99.7957 108.191 101.335 109.293 102.601C110.394 103.866 111.816 104.813 113.409 105.34C114.606 105.703 115.883 105.703 117.079 105.34C117.951 105.466 118.84 105.416 119.692 105.193C120.545 104.971 121.345 104.581 122.044 104.045C123.436 102.907 124.582 101.496 125.411 99.9005C126.24 98.3047 126.735 96.5567 126.866 94.7632C127.316 90.7061 126.747 86.6007 125.211 82.8189C124.826 81.846 124.234 80.9687 123.476 80.2479C122.718 79.5272 121.812 78.9803 120.821 78.6456C120.253 75.4881 119.988 72.2836 120.03 69.0757C120.801 66.2908 122.371 63.7922 124.544 61.8874C126.718 59.9826 129.4 58.7546 132.263 58.3545C133.968 58.2746 135.669 58.5949 137.228 59.2899C139.243 60.2253 135.285 57.635 131.759 57.635Z" fill="#5F4A3E"/>
<path d="M114.057 0.287842L60.8066 40.654V124.984V126.207H171.194V41.0857L114.057 0.287842ZM169.97 41.7333V116.062H71.025V44.1078L120.893 6.61979L169.97 41.7333ZM113.769 1.58301L119.31 5.54048L69.9456 42.6687L62.7496 40.5101L113.769 1.58301ZM62.03 123.905V42.0931L69.226 44.3237V116.278L62.03 123.905ZM169.97 125.2H63.3252L70.953 117.645H169.97V125.2Z" fill="#5F4A3E"/>
</g>
<defs>
<clipPath id="clip0_42_567">
<rect width="232" height="225" fill="white"/>
</clipPath>
</defs>
</svg>
