<svg width="186" height="185" viewBox="0 0 186 185" fill="none" xmlns="http://www.w3.org/2000/svg">
<g clip-path="url(#clip0_90_142)">
<path d="M116.941 2.55332L117.937 2.76834L116.294 10.106C116.142 10.8728 115.907 11.6208 115.593 12.3368C115.35 12.9751 114.984 13.5595 114.515 14.057C114.075 14.5198 113.516 14.8543 112.899 15.0246C112.174 15.2136 111.414 15.2136 110.689 15.0246C109.867 14.8786 109.086 14.5578 108.399 14.0839C107.817 13.6649 107.346 13.1115 107.025 12.4712C106.445 11.0709 106.368 9.51331 106.809 8.06327L108.48 0.671875L111.336 1.29006L109.396 9.94472C109.139 10.8771 109.139 11.8614 109.396 12.7938C109.518 13.1427 109.733 13.452 110.018 13.6887C110.303 13.9254 110.646 14.0806 111.013 14.1377C111.576 14.3019 112.174 14.3019 112.737 14.1377C113.204 13.9658 113.615 13.6681 113.923 13.2776C114.272 12.8325 114.545 12.3331 114.731 11.7993C114.947 11.2349 115.135 10.5898 115.324 9.91784L116.941 2.55332Z" fill="#FFFDF5"/>
<path d="M121.818 3.95093L126.29 5.67111C127.626 6.11825 128.798 6.9508 129.658 8.06323C129.927 8.4494 130.114 8.88684 130.205 9.34814C130.297 9.80944 130.292 10.2846 130.191 10.7439C130.089 11.2032 129.894 11.6367 129.617 12.0172C129.34 12.3977 128.987 12.7169 128.581 12.955C127.835 13.3493 126.999 13.5438 126.156 13.5194L126.668 19.9163L124.35 19.0294C124.164 18.9736 123.99 18.8823 123.838 18.7606C123.698 18.6251 123.612 18.4438 123.596 18.2499L123.246 12.8744L121.683 12.283L119.77 17.2286L117.749 16.4491C117.544 16.3923 117.37 16.257 117.264 16.0728C117.22 15.9757 117.197 15.8703 117.197 15.7637C117.197 15.6572 117.22 15.5518 117.264 15.4546L121.818 3.95093ZM124.269 5.77862L121.979 11.6649L123.65 12.3099C124.001 12.4594 124.374 12.5502 124.754 12.5787C125.091 12.591 125.425 12.517 125.725 12.3637C126.053 12.1743 126.338 11.9178 126.56 11.6111C126.847 11.1837 127.083 10.7235 127.26 10.2403C127.649 9.48605 127.745 8.615 127.53 7.79445C127.39 7.47042 127.18 7.18157 126.914 6.94905C126.649 6.71652 126.334 6.54621 125.994 6.45056L124.269 5.77862Z" fill="#FFFDF5"/>
<path d="M134.374 9.16528L138.065 11.2349C139.152 11.7435 140.082 12.5322 140.76 13.5195C140.972 13.868 141.083 14.2677 141.083 14.6752C141.083 15.0827 140.972 15.4824 140.76 15.831C140.592 16.1516 140.356 16.4312 140.067 16.6497C139.778 16.8681 139.444 17.0199 139.089 17.0942C138.163 17.1975 137.227 17.0294 136.395 16.6104C136.89 16.8638 137.344 17.19 137.742 17.578C138.107 17.9148 138.392 18.3279 138.577 18.7875C138.782 19.252 138.865 19.7605 138.82 20.2658C138.746 20.8828 138.544 21.4777 138.227 22.0129C137.901 22.6778 137.373 23.2233 136.718 23.5718C136.168 23.8469 135.553 23.9676 134.94 23.9212C134.318 23.8831 133.707 23.7376 133.135 23.4912C132.581 23.2636 132.041 23.0033 131.518 22.7117L128.823 21.1259C128.338 20.884 128.258 20.4808 128.554 19.9702L134.374 9.16528ZM130.844 21.4484L131.814 21.986C133.296 22.8192 134.509 22.3623 135.56 20.5615C135.83 20.1169 136.039 19.6377 136.179 19.137C136.285 18.7497 136.285 18.3415 136.179 17.9543C136.092 17.5808 135.906 17.2375 135.64 16.9598C135.271 16.6071 134.854 16.3084 134.401 16.0729L133.943 15.8041L130.844 21.4484ZM136.53 11.3155L134.428 15.0784L135.263 15.5622C135.6 15.7493 135.964 15.8852 136.341 15.9654C136.606 16.0336 136.884 16.0336 137.149 15.9654C137.393 15.8338 137.605 15.6502 137.769 15.4278C137.967 15.1774 138.139 14.9072 138.281 14.6215C138.568 14.1656 138.683 13.6222 138.604 13.0894C138.521 12.8696 138.395 12.6685 138.233 12.4978C138.071 12.3271 137.877 12.1902 137.661 12.095L136.53 11.3155Z" fill="#FFFDF5"/>
<path d="M148.843 17.6317L145.313 32.1189L143.373 30.6675C143.158 30.5062 143.023 30.3718 142.996 30.2643C142.957 30.1419 142.957 30.0104 142.996 29.888L143.912 26.152L140.221 23.4642L136.529 25.6413L135.748 25.0769L148.52 17.4705L148.843 17.6317ZM141.002 23.0073L144.182 25.2919L145.421 20.4001L141.002 23.0073Z" fill="#FFFDF5"/>
<path d="M145.529 32.4414L154.959 23.0342L156.63 24.7006C156.77 24.8166 156.881 24.9639 156.953 25.1306C156.992 25.2439 156.992 25.3668 156.953 25.4801L153.639 36.2312L160.86 28.9473L161.588 29.673L152.265 38.9996L150.837 37.602C150.721 37.4839 150.641 37.3349 150.608 37.1728C150.574 37.0107 150.588 36.8424 150.648 36.6881L154.07 25.4532L146.391 33.194L145.529 32.4414Z" fill="#FFFDF5"/>
<path d="M160.672 38.9191L155.283 43.0045L153.936 41.2575C153.864 41.1824 153.808 41.0938 153.771 40.9969C153.734 40.9 153.717 40.7967 153.72 40.693C153.782 40.491 153.916 40.3188 154.097 40.2092L164.04 32.5759L169.429 39.5373L168.755 40.048L165.199 35.3981L161.292 38.4084L163.69 41.4187L163.043 41.9563L160.672 38.9191Z" fill="#FFFDF5"/>
<path d="M172.824 44.1065L164.094 56.2284L162.855 54.1857C162.739 54.0294 162.673 53.8421 162.666 53.6481C162.683 53.518 162.739 53.3961 162.828 53.2987L165.091 50.2078L162.693 46.2567L158.436 46.7943L157.951 45.988L172.636 43.7302L172.824 44.1065ZM163.555 46.1223L165.738 49.4821L168.729 45.3966L163.555 46.1223Z" fill="#FFFDF5"/>
<path d="M176.515 51.6323L178.402 56.0134C179.027 57.3263 179.243 58.7965 179.021 60.2332C178.919 60.7995 178.672 61.3298 178.304 61.7725C177.936 62.2153 177.459 62.5554 176.92 62.7597C176.215 63.0166 175.442 63.0166 174.737 62.7597C173.929 62.5071 173.203 62.043 172.635 61.4159L168.432 66.2807L167.462 63.9961C167.394 63.8213 167.34 63.6416 167.3 63.4586C167.3 63.2584 167.378 63.0659 167.516 62.921L171.1 58.97L170.318 57.5454L165.414 59.615L164.579 57.5454C164.507 57.3456 164.507 57.1271 164.579 56.9273C164.626 56.8291 164.693 56.7422 164.777 56.6726C164.861 56.603 164.959 56.5524 165.064 56.5241L176.515 51.6323ZM176.92 54.6695L171.126 57.1154L171.827 58.7549C171.965 59.1044 172.156 59.4307 172.393 59.7225C172.617 59.9809 172.905 60.1756 173.228 60.287C173.592 60.3699 173.969 60.3699 174.333 60.287C174.854 60.2033 175.362 60.0496 175.842 59.8301C176.647 59.5742 177.335 59.0406 177.782 58.3249C177.933 58.0055 178.011 57.6567 178.011 57.3035C178.011 56.9504 177.933 56.6016 177.782 56.2822L176.92 54.6695Z" fill="#FFFDF5"/>
<path d="M171.126 71.8176L178.671 66.442L168.89 68.0009L168.621 66.899L181.904 64.8025L182.336 66.6839C182.371 66.8614 182.371 67.0441 182.336 67.2215C182.336 67.2215 182.201 67.4365 182.012 67.5978L175.438 72.167L183.952 73.8066L184.599 77.0857L171.854 81.0636L171.531 79.0477C171.43 78.7976 171.43 78.5184 171.531 78.2683C171.668 78.1216 171.846 78.0188 172.043 77.9726L182.821 74.5591L171.342 72.2745L171.126 71.8176Z" fill="#FFFDF5"/>
<path d="M184.41 95.1744C184.648 94.8482 184.83 94.4849 184.949 94.0993C185.117 93.5792 185.181 93.0313 185.138 92.4866C185.148 92.0197 185.017 91.5605 184.76 91.1696C184.505 90.805 184.162 90.5095 183.763 90.3095C183.365 90.1401 182.949 90.014 182.524 89.9333C182.088 89.8531 181.647 89.7992 181.204 89.772H178.886C178.096 89.738 177.305 89.7469 176.515 89.7989C175.868 89.8584 175.232 90.0124 174.629 90.2558C174.137 90.4633 173.71 90.7972 173.39 91.2234C173.093 91.6972 172.952 92.2515 172.986 92.8092C172.979 93.3172 173.08 93.8208 173.282 94.2875C173.517 94.7338 173.806 95.1492 174.144 95.5238L173.551 96.142C173.117 95.7098 172.77 95.199 172.527 94.6369C172.278 94.069 172.15 93.4559 172.15 92.8361C172.111 92.4159 172.111 91.993 172.15 91.5728C172.226 91.1589 172.343 90.7536 172.501 90.3633C172.655 89.9659 172.854 89.5872 173.093 89.2344C173.33 88.8859 173.621 88.5774 173.956 88.3206C175.367 87.2614 177.093 86.7032 178.859 86.7348C179.769 86.7041 180.678 86.8129 181.554 87.0573C182.378 87.2959 183.154 87.6781 183.844 88.1862C184.482 88.6486 185 89.257 185.353 89.9601C185.69 90.6749 185.865 91.4549 185.865 92.2447C185.884 92.8064 185.82 93.3678 185.677 93.9112C185.557 94.4147 185.357 94.8958 185.084 95.3357L184.41 95.1744Z" fill="#FFFDF5"/>
<path d="M185.407 103.748L171.126 107.887L171.423 105.522C171.439 105.334 171.494 105.151 171.585 104.985C171.685 104.896 171.805 104.831 171.935 104.797L175.653 103.775L176.219 99.1791L172.501 97.0557V96.115L185.434 103.399L185.407 103.748ZM176.866 99.636L176.515 103.533L181.392 102.162L176.866 99.636Z" fill="#FFFDF5"/>
<path d="M176.515 113.236L170.021 111.516L170.587 109.419C170.621 109.205 170.737 109.012 170.911 108.882C171.009 108.841 171.114 108.82 171.221 108.82C171.327 108.82 171.432 108.841 171.53 108.882L183.629 112.08L181.365 120.574L180.557 120.359L182.066 114.714L177.324 113.451L176.327 117.187L175.518 116.972L176.515 113.236Z" fill="#FFFDF5"/>
<path d="M164.633 126.568L167.785 118.908C167.785 118.639 168.001 118.477 168.136 118.424C168.33 118.37 168.535 118.37 168.728 118.424L180.369 123.154L177.027 131.218L176.246 130.895L178.482 125.519L173.821 123.799L172.123 127.912L171.369 127.616L173.04 123.504L167.651 121.273L165.36 126.89L164.633 126.568Z" fill="#FFFDF5"/>
<path d="M159.594 156.483L158.893 157.262L153.262 152.236C152.67 151.733 152.137 151.165 151.672 150.543C151.247 150.012 150.919 149.412 150.702 148.769C150.527 148.154 150.527 147.502 150.702 146.887C150.891 146.161 151.262 145.495 151.78 144.952C152.326 144.326 152.984 143.806 153.72 143.42C154.379 143.122 155.099 142.984 155.822 143.017C157.331 143.191 158.732 143.885 159.783 144.979L165.441 150.032L163.501 152.209L156.792 146.242C156.109 145.553 155.253 145.061 154.313 144.818C153.947 144.75 153.57 144.785 153.223 144.918C152.876 145.051 152.573 145.276 152.346 145.57C151.938 145.995 151.658 146.526 151.538 147.102C151.456 147.592 151.512 148.094 151.699 148.554C151.917 149.065 152.217 149.537 152.588 149.951C153.018 150.461 153.476 150.946 153.963 151.403L159.594 156.483Z" fill="#FFFDF5"/>
<path d="M156.01 160.057L152.265 163.095C151.222 164.051 149.919 164.678 148.52 164.895C147.948 164.958 147.37 164.872 146.841 164.646C146.312 164.42 145.851 164.061 145.502 163.605C145.021 163.032 144.754 162.31 144.747 161.563C144.755 160.728 144.988 159.911 145.421 159.197L139.493 156.51L141.379 154.924L141.864 154.601C142.048 154.538 142.247 154.538 142.43 154.601L147.28 156.859L148.547 155.811L145.152 151.752L146.795 150.355C146.872 150.276 146.965 150.214 147.067 150.173C147.168 150.131 147.278 150.111 147.388 150.113C147.55 150.113 147.711 150.247 147.9 150.462L156.01 160.057ZM153.316 161.294L149.247 156.429L147.9 157.585C147.599 157.814 147.343 158.096 147.145 158.418C146.96 158.697 146.857 159.023 146.849 159.359C146.831 159.741 146.915 160.121 147.092 160.461C147.328 160.923 147.617 161.356 147.954 161.751C148.438 162.448 149.154 162.953 149.975 163.175C150.328 163.192 150.682 163.138 151.014 163.018C151.347 162.898 151.653 162.714 151.915 162.476L153.316 161.294Z" fill="#FFFDF5"/>
<path d="M145.448 168.443L141.837 170.674C140.863 171.378 139.72 171.814 138.523 171.937C138.116 171.95 137.713 171.848 137.361 171.644C137.008 171.439 136.72 171.141 136.529 170.782C136.321 170.484 136.184 170.142 136.128 169.784C136.072 169.425 136.099 169.059 136.206 168.712C136.568 167.826 137.188 167.068 137.984 166.535C137.517 166.814 137.02 167.039 136.502 167.207C136.025 167.365 135.52 167.42 135.02 167.368C134.511 167.311 134.022 167.136 133.592 166.857C133.088 166.492 132.666 166.025 132.353 165.487C131.958 164.938 131.746 164.28 131.746 163.605C131.746 162.93 131.958 162.272 132.353 161.724C132.692 161.205 133.11 160.743 133.592 160.353C134.065 159.974 134.56 159.624 135.074 159.305L137.769 157.585C137.863 157.515 137.973 157.468 138.089 157.448C138.204 157.428 138.323 157.435 138.436 157.469C138.548 157.503 138.652 157.563 138.737 157.643C138.822 157.724 138.887 157.824 138.927 157.934L145.448 168.443ZM136.368 159.412L135.424 160.004C133.969 160.891 133.781 162.234 134.859 163.955C135.128 164.406 135.454 164.822 135.829 165.191C136.097 165.491 136.442 165.713 136.826 165.836C137.195 165.944 137.588 165.944 137.957 165.836C138.44 165.689 138.902 165.482 139.331 165.218L139.789 164.922L136.368 159.412ZM142.511 169.276L140.221 165.621L139.412 166.132C139.074 166.318 138.78 166.575 138.55 166.884C138.383 167.103 138.28 167.363 138.254 167.637C138.255 167.913 138.31 168.187 138.415 168.443C138.546 168.738 138.709 169.017 138.9 169.276C139.017 169.519 139.183 169.734 139.387 169.91C139.591 170.086 139.829 170.218 140.086 170.298C140.551 170.363 141.024 170.248 141.406 169.975L142.511 169.276Z" fill="#FFFDF5"/>
<path d="M130.925 176.963L119.931 166.857L122.141 165.89C122.315 165.828 122.505 165.828 122.68 165.89C122.807 165.91 122.923 165.977 123.003 166.078L125.697 168.766L129.928 166.857V162.584L130.817 162.181L131.275 177.017L130.925 176.963ZM130.035 167.556L126.425 169.169L130.143 172.636L130.035 167.556Z" fill="#FFFDF5"/>
<path d="M119.554 166.911L123.246 179.651L120.955 180.296C120.787 180.34 120.611 180.34 120.443 180.296C120.331 180.246 120.23 180.173 120.147 180.081L112.441 172.018L115.297 181.855L114.3 182.151L110.608 169.411L112.521 168.846C112.68 168.805 112.847 168.808 113.004 168.856C113.161 168.903 113.302 168.993 113.411 169.115L121.494 177.555L118.476 167.099L119.554 166.911Z" fill="#FFFDF5"/>
<path d="M106.459 176.937L105.57 170.432L107.752 170.11C107.845 170.065 107.946 170.041 108.049 170.041C108.152 170.041 108.253 170.065 108.345 170.11C108.497 170.262 108.592 170.461 108.615 170.674L110.42 183.038L101.717 184.328V183.495L107.51 182.662L106.782 177.797L102.956 178.361V177.528L106.459 176.937Z" fill="#FFFDF5"/>
<path d="M96.0851 184.973L89.7261 171.534H92.1242C92.4206 171.534 92.5822 171.534 92.69 171.534C92.7889 171.61 92.8638 171.713 92.9056 171.83L94.5222 175.324L99.1298 175.163L100.666 171.158H101.609L96.4353 185.054L96.0851 184.973ZM98.7795 175.915L94.8456 176.077L96.9473 180.673L98.7795 175.915Z" fill="#FFFDF5"/>
<path d="M87.5974 184.57L82.8552 184.059C81.4457 183.972 80.0946 183.467 78.9751 182.608C78.5248 182.246 78.1782 181.773 77.97 181.235C77.7619 180.697 77.6996 180.113 77.7895 179.544C77.8725 178.81 78.2054 178.127 78.7326 177.609C79.3426 177.029 80.0957 176.621 80.9151 176.426L78.7595 170.271L81.2385 170.54C81.4175 170.519 81.5983 170.519 81.7774 170.54C81.9549 170.641 82.0891 170.803 82.1546 170.997L83.879 176.023L85.5227 176.211L86.0885 170.835L88.2441 171.077C88.3542 171.075 88.4636 171.096 88.5655 171.137C88.6675 171.179 88.7598 171.241 88.8369 171.319C88.8769 171.413 88.8976 171.513 88.8976 171.615C88.8976 171.717 88.8769 171.817 88.8369 171.911L87.5974 184.57ZM84.903 183.414L85.5766 177.125L83.8252 176.964C83.442 176.895 83.0497 176.895 82.6665 176.964C82.3364 177.039 82.0307 177.196 81.7774 177.42C81.508 177.672 81.3045 177.986 81.1846 178.334C81.0059 178.829 80.8883 179.343 80.8343 179.866C80.6683 180.692 80.802 181.549 81.2115 182.285C81.4369 182.563 81.7198 182.788 82.0408 182.945C82.3617 183.103 82.7131 183.19 83.0707 183.199L84.903 183.414Z" fill="#FFFDF5"/>
<path d="M72.6162 170.083L73.667 179.275L77.0351 169.975L78.1399 170.298L73.5862 182.796L71.727 182.258C71.5492 182.231 71.3819 182.156 71.242 182.043C71.1382 181.911 71.073 181.753 71.0534 181.587L70.245 173.523L64.6675 180.162L61.4341 179.248L64.1286 166.212L66.0416 166.75C66.4189 166.75 66.6344 166.992 66.7153 167.153C66.7721 167.346 66.7721 167.551 66.7153 167.744L64.5058 178.737L72.0773 169.814L72.6162 170.083Z" fill="#FFFDF5"/>
<path d="M45.6715 170.271C45.8395 170.629 46.0673 170.956 46.3451 171.239C46.6722 171.611 47.0649 171.921 47.5037 172.152C47.8968 172.433 48.3679 172.583 48.851 172.583C49.3341 172.583 49.8051 172.433 50.1982 172.152C50.5507 171.9 50.8679 171.602 51.1413 171.265C51.4287 170.907 51.6981 170.558 51.9496 170.217C52.1921 169.841 52.4077 169.492 52.5963 169.142C52.7849 168.793 52.9735 168.497 53.1083 168.228C53.5055 167.522 53.8652 166.795 54.1861 166.051C54.4502 165.461 54.6315 164.837 54.7249 164.197C54.7849 163.673 54.7011 163.144 54.4824 162.665C54.2319 162.155 53.8133 161.747 53.2969 161.509C52.8557 161.264 52.3704 161.109 51.8688 161.052C51.3622 161.033 50.8552 161.078 50.3599 161.186L50.1174 160.353C50.7131 160.233 51.327 160.233 51.9227 160.353C52.5439 160.437 53.1457 160.628 53.701 160.918C54.0694 161.122 54.4208 161.356 54.7519 161.616C55.0686 161.901 55.3656 162.206 55.6411 162.53C55.9002 162.866 56.1258 163.226 56.3147 163.605C56.5085 163.984 56.6361 164.393 56.6919 164.815C56.906 166.568 56.5368 168.344 55.6411 169.868C55.2087 170.667 54.6644 171.4 54.0244 172.045C53.4154 172.654 52.6921 173.139 51.8957 173.469C51.1712 173.803 50.3747 173.951 49.5785 173.899C48.794 173.835 48.032 173.606 47.3421 173.228C46.8605 172.942 46.4091 172.609 45.9948 172.233C45.62 171.87 45.3021 171.454 45.0518 170.997L45.6715 170.271Z" fill="#FFFDF5"/>
<path d="M37.6958 166.992L41.0908 152.451L43.0309 153.875C43.2464 154.037 43.3812 154.171 43.4081 154.279C43.4359 154.403 43.4359 154.531 43.4081 154.655L42.492 158.391L46.2373 161.079L49.8749 158.902L50.6563 159.466L37.9922 167.207L37.6958 166.992ZM45.4829 161.616L42.3034 159.305L41.1178 164.223L45.4829 161.616Z" fill="#FFFDF5"/>
<path d="M33.7077 154.574L38.3692 149.763L39.9589 151.268C40.0479 151.327 40.1208 151.407 40.1713 151.501C40.2217 151.595 40.2482 151.699 40.2482 151.806C40.2482 151.912 40.2217 152.017 40.1713 152.111C40.1208 152.205 40.0479 152.285 39.9589 152.343L31.2827 161.348L24.9507 155.246L25.5165 154.628L29.7469 158.713L33.1688 155.166L30.4744 152.478L31.0133 151.887L33.7077 154.574Z" fill="#FFFDF5"/>
<path d="M27.7531 137.749L32.9534 144.199C33.0293 144.267 33.0901 144.35 33.1319 144.443C33.1737 144.535 33.1955 144.635 33.1959 144.737C33.1298 144.937 32.9965 145.108 32.8187 145.221L22.93 153.069L17.541 146.242L18.1877 145.731L21.8522 150.301L25.6245 147.183L22.93 143.716L23.5767 143.205L26.2711 146.672L31.0134 142.99L27.1064 138.179L27.7531 137.749Z" fill="#FFFDF5"/>
<path d="M4.06845 118.934L3.74512 117.94L10.8585 115.467C11.5972 115.214 12.3537 115.016 13.1219 114.876C13.799 114.754 14.4926 114.754 15.1697 114.876C15.7957 115.003 16.374 115.3 16.8403 115.736C17.3891 116.248 17.7894 116.898 17.9989 117.617C18.3 118.396 18.4376 119.229 18.4031 120.063C18.3448 120.776 18.1236 121.465 17.7564 122.079C16.863 123.3 15.5804 124.181 14.1189 124.579L6.76293 127.105L5.79292 124.417L14.1997 121.488C15.1261 121.22 15.9636 120.71 16.6247 120.009C16.8647 119.727 17.0198 119.384 17.0723 119.017C17.1247 118.651 17.0723 118.278 16.9211 117.94C16.7757 117.366 16.4441 116.855 15.9781 116.488C15.5897 116.18 15.1234 115.985 14.6308 115.924C14.0776 115.834 13.5134 115.834 12.9602 115.924L11.0472 116.408L4.06845 118.934Z" fill="#FFFDF5"/>
<path d="M2.64051 113.989L1.75133 109.312C1.40926 107.949 1.49389 106.514 1.99383 105.2C2.21995 104.651 2.58892 104.172 3.06261 103.813C3.53631 103.454 4.09754 103.227 4.68832 103.157C5.42885 103.026 6.19184 103.16 6.8439 103.533C7.58267 103.925 8.19121 104.523 8.59531 105.253L13.9843 101.41L14.4423 103.856C14.4787 104.042 14.4787 104.234 14.4423 104.42C14.4423 104.564 14.3346 104.725 14.119 104.904L9.61922 107.995L9.94255 109.635L15.1429 108.613L15.5471 110.737C15.6239 110.935 15.6239 111.156 15.5471 111.355C15.4778 111.44 15.392 111.51 15.2947 111.561C15.1974 111.611 15.0907 111.642 14.9812 111.65L2.64051 113.989ZM2.90996 110.952L9.13421 109.769L8.78393 108.049C8.72463 107.674 8.60641 107.311 8.43364 106.974C8.26546 106.676 8.02441 106.427 7.73308 106.248C7.43334 106.08 7.10408 105.97 6.76307 105.925C6.25282 105.867 5.73746 105.867 5.22721 105.925C4.3849 106.014 3.59714 106.384 2.99079 106.974C2.7955 107.272 2.66573 107.608 2.61 107.96C2.55428 108.313 2.57386 108.672 2.66745 109.016L2.90996 110.952Z" fill="#FFFDF5"/>
<path d="M0.43091 100.684L0.242296 96.4645C0.0913496 95.2663 0.268252 94.0496 0.754248 92.9435C0.94321 92.5885 1.227 92.2927 1.57417 92.0887C1.92135 91.8847 2.31836 91.7805 2.72122 91.7878C3.08306 91.7481 3.44918 91.793 3.7906 91.919C4.13201 92.0449 4.43932 92.2485 4.68819 92.5135C5.30585 93.2811 5.67263 94.2192 5.73904 95.2012C5.67025 94.6659 5.67025 94.1239 5.73904 93.5886C5.83799 93.0998 6.03008 92.6344 6.30488 92.2178C6.61299 91.8053 7.00862 91.4657 7.46351 91.2233C8.07827 90.9013 8.76305 90.7351 9.45742 90.7395C10.131 90.6476 10.8166 90.7662 11.4198 91.0791C12.023 91.3919 12.5142 91.8837 12.8255 92.4866C13.111 93.045 13.3108 93.643 13.4183 94.2605C13.4183 94.8787 13.58 95.4969 13.6069 96.0613L13.7416 99.2867C13.7416 99.8242 13.4991 100.093 12.9064 100.12L0.43091 100.684ZM1.13147 97.8622L5.44264 97.6471V96.7064C5.43696 96.3179 5.35456 95.9343 5.20014 95.5775C5.09965 95.3225 4.92033 95.1059 4.68819 94.9593C4.45011 94.8192 4.18256 94.7364 3.90679 94.7175H2.88289C2.61358 94.6904 2.34157 94.7168 2.08257 94.7952C1.82358 94.8737 1.58274 95.0025 1.37398 95.1744C1.07924 95.5467 0.94368 96.02 0.996751 96.4914L1.13147 97.8622ZM12.7447 97.3246V96.2226C12.7447 94.5024 11.613 93.6961 9.5652 93.8036C9.03833 93.8225 8.51473 93.8945 8.0024 94.0186C7.62378 94.1297 7.27424 94.3224 6.9785 94.5831C6.69241 94.8491 6.49493 95.1961 6.41266 95.5775C6.32395 96.0754 6.32395 96.5849 6.41266 97.0827V97.6203L12.7447 97.3246Z" fill="#FFFDF5"/>
<path d="M0.0268555 83.8857L14.2268 79.209L14.0112 81.6011C14.0112 81.8968 14.0112 82.058 14.0112 82.1387C13.9217 82.2284 13.8103 82.2933 13.6879 82.3268L10.0234 83.5094L9.45754 88.1055L13.2568 90.0945V91.0352L0.0538009 84.262L0.0268555 83.8857ZM8.70308 87.7024L9.05337 83.7782L4.23025 85.3371L8.70308 87.7024Z" fill="#FFFDF5"/>
<path d="M14.3614 79.0477L1.37402 75.9567L1.91292 73.6453C1.92906 73.4695 1.99442 73.3019 2.10153 73.1615C2.14164 73.1141 2.19099 73.0754 2.24658 73.0477C2.30217 73.0199 2.36283 73.0038 2.42487 73.0002L13.2028 70.178L3.17933 67.8934L3.42183 66.8989L16.3823 69.8286L15.9512 71.7907C15.9128 71.9514 15.8289 72.0977 15.7095 72.2121C15.59 72.3264 15.4401 72.4041 15.2775 72.4358L4.0685 75.4729L14.8464 77.892L14.3614 79.0477Z" fill="#FFFDF5"/>
<path d="M11.8559 62.6791L18.134 65.0444L17.3796 67.0871C17.3226 67.2916 17.187 67.4654 17.0023 67.5709C16.9049 67.6146 16.7993 67.6373 16.6925 67.6373C16.5856 67.6373 16.48 67.6146 16.3826 67.5709L4.66162 63.1092L7.76027 54.8577L8.54167 55.1533L6.46692 60.5289L11.0745 62.2491L12.4487 58.6474L13.2301 58.9431L11.8559 62.6791Z" fill="#FFFDF5"/>
<path d="M9.94243 49.4819L24.8429 50.5033L23.7651 52.6266C23.6304 52.8954 23.5226 53.0567 23.4148 53.0836C23.2911 53.1154 23.1613 53.1154 23.0376 53.0836L19.2114 52.7879L17.0828 56.9002L19.7773 60.1793L19.3462 61.0125L9.78076 49.912L9.94243 49.4819ZM16.517 56.282L18.3223 52.7879L13.2566 52.3847L16.517 56.282Z" fill="#FFFDF5"/>
<path d="M14.4155 42.4402L17.11 38.5429C17.8596 37.3456 18.9602 36.4073 20.2626 35.8551C20.7947 35.6437 21.373 35.5746 21.9401 35.6547C22.5073 35.7349 23.0436 35.9615 23.4959 36.312C24.108 36.7369 24.5476 37.3661 24.7354 38.086C24.9641 38.9036 24.9641 39.768 24.7354 40.5856L31.1752 41.6876L29.7471 43.7034C29.649 43.8687 29.5211 44.0145 29.3699 44.1335C29.3699 44.1335 29.0735 44.2679 28.7771 44.1335L23.5498 43.1928L22.5798 44.5366L26.9179 47.5738L25.6246 49.4822C25.575 49.5784 25.5065 49.6637 25.4232 49.7329C25.3398 49.8022 25.2434 49.854 25.1396 49.8853C24.9223 49.8883 24.7114 49.8118 24.5468 49.6703L14.4155 42.4402ZM16.7867 40.5319L21.9601 44.1066L22.984 42.6552C23.2152 42.3444 23.397 41.9999 23.5229 41.6338C23.6039 41.3164 23.6039 40.9837 23.5229 40.6662C23.4297 40.3004 23.2546 39.9605 23.0109 39.6718C22.6671 39.2863 22.2781 38.9434 21.8523 38.6504C21.2078 38.0965 20.3857 37.7914 19.535 37.7903C19.1851 37.849 18.8521 37.9827 18.559 38.1822C18.266 38.3818 18.0198 38.6424 17.8375 38.9461L16.7867 40.5319Z" fill="#FFFDF5"/>
<path d="M34.4087 36.4462L25.8402 32.8715L32.307 40.3435L31.5256 41.1498L22.9302 31.0975L24.2774 29.7536C24.3937 29.6138 24.5414 29.5033 24.7085 29.4311C24.8641 29.3683 25.038 29.3683 25.1935 29.4311L32.5764 32.6027L29.4778 24.5393L31.8489 22.1472L41.7915 30.8556L40.3635 32.2533C40.1978 32.4674 39.9572 32.6114 39.6898 32.6564C39.4973 32.6164 39.32 32.5233 39.1779 32.3877L30.6094 25.1307L34.7859 36.043L34.4087 36.4462Z" fill="#FFFDF5"/>
<path d="M47.1804 12.8745C46.7788 12.8102 46.3695 12.8102 45.9679 12.8745C45.4853 12.9847 45.0281 13.1853 44.6206 13.4658C44.2077 13.7004 43.8781 14.0573 43.6776 14.4872C43.4934 14.8907 43.4279 15.3381 43.489 15.7773C43.5471 16.2008 43.6556 16.6158 43.8123 17.0137C43.9592 17.4306 44.1394 17.8351 44.3512 18.2232C44.5359 18.6023 44.7429 18.9703 44.9709 19.3252C45.1595 19.6746 45.3481 19.9702 45.5098 20.2121C45.9948 20.9647 46.4529 21.6098 46.884 22.2011C47.2737 22.7306 47.7469 23.1935 48.2851 23.5719C48.7222 23.9053 49.2572 24.086 49.8075 24.086C50.3578 24.086 50.8928 23.9053 51.3299 23.5719C51.8042 23.3359 52.2258 23.0068 52.5694 22.6043C52.8338 22.1661 53.0421 21.6966 53.1891 21.2066L54.0244 21.4216C53.8912 22.015 53.6341 22.5736 53.2699 23.0612C52.9099 23.5678 52.4518 23.9973 51.9227 24.3244C51.5623 24.5445 51.1837 24.7334 50.791 24.8889C50.3985 25.0423 49.9926 25.1593 49.5785 25.2383C49.149 25.2917 48.7146 25.2917 48.2851 25.2383C47.8692 25.2133 47.46 25.1226 47.0726 24.9695C45.4177 24.3264 44.0307 23.1418 43.1387 21.6098C42.6467 20.8428 42.2657 20.0103 42.007 19.137C41.7751 18.3161 41.7019 17.4587 41.7914 16.6105C41.8479 15.8188 42.0976 15.0529 42.5189 14.3796C42.9562 13.7146 43.536 13.1546 44.2165 12.7401C44.6877 12.4511 45.195 12.2251 45.7254 12.0682C46.2191 11.8982 46.739 11.8163 47.2612 11.8263L47.1804 12.8745Z" fill="#FFFDF5"/>
<path d="M54.0512 7.47192L65.1524 17.4705L62.9699 18.4918C62.7932 18.5373 62.6078 18.5373 62.431 18.4918C62.3076 18.4608 62.1955 18.3956 62.1077 18.3037L59.2515 15.6159L55.0481 17.5511L55.2637 22.0397L54.4015 22.4429L53.7817 7.63319L54.0512 7.47192ZM55.0212 16.8792L58.6049 15.2396L54.8595 11.853L55.0212 16.8792Z" fill="#FFFDF5"/>
<path d="M66.8771 10.0523L68.7362 16.4492L66.6345 17.0943C66.5513 17.158 66.4552 17.203 66.3529 17.2262C66.2506 17.2494 66.1444 17.2502 66.0418 17.2287C65.8672 17.0944 65.7436 16.9048 65.6915 16.6911L62.1348 4.62297L70.5685 2.06958L70.811 2.84904L65.2065 4.54234L66.6345 9.16532L70.326 8.03645L70.5685 8.84279L66.8771 10.0523Z" fill="#FFFDF5"/>
<path d="M84.4989 13.0357L76.4155 14.4065C76.2256 14.4842 76.0126 14.4842 75.8227 14.4065C75.6846 14.259 75.5993 14.0699 75.5802 13.869L73.4785 1.50516L82.2086 0V0.806334L76.4155 1.77394L77.2239 6.61194L81.6158 5.88624L81.7506 6.69258L77.3586 7.44515L78.3555 13.2239L84.3373 12.2294L84.4989 13.0357Z" fill="#FFFDF5"/>
</g>
<defs>
<clipPath id="clip0_90_142">
<rect width="186" height="185" fill="white"/>
</clipPath>
</defs>
</svg>
