<?xml version="1.0" encoding="iso-8859-1"?>
<!-- Generator: Adobe Illustrator 26.2.1, SVG Export Plug-In . SVG Version: 6.00 Build 0)  -->
<svg version="1.1" id="&#xB808;&#xC774;&#xC5B4;_1" xmlns="http://www.w3.org/2000/svg" xmlns:xlink="http://www.w3.org/1999/xlink"
	 x="0px" y="0px" viewBox="0 0 121 146" style="enable-background:new 0 0 121 146;" xml:space="preserve">
<path style="fill:none;stroke:#5F4A3E;stroke-width:1.5;stroke-linecap:round;stroke-linejoin:round;stroke-miterlimit:10;" d="
	M2,107.702c0,0,18.487,1.759,27.604-17.336s6.858-21.611,2.026-27.636c-5.489-6.844-14.998-19.553,1.365-37.413
	S52.903,6.452,53.409,3.437c0.506-3.015,6.584,10.552,6.584,10.552s12.75,25.483-5.781,41.383l-12.96,11.88
	c0,0-8.61-21.104,12.662-50.248"/>
<path style="fill:none;stroke:#5F4A3E;stroke-width:1.5;stroke-linecap:round;stroke-linejoin:round;stroke-miterlimit:10;" d="
	M44.545,84.588c0,0,18.234,2.01,29.883-11.055l29.883-29.144c0,0-46.091,35.676-56.221,34.169c0,0,12.156-28.641,19.247-33.164
	C91.649,28.31,119,36.35,119,36.35s-8.104,32.159-26.844,43.213S46.065,89.11,46.065,89.11s35.455,3.015,40.013,52.76
	c0,0-21.273,2.512-32.922-14.572S33.135,99.64,33.135,99.64s19.753-2.709,42.932,35.589c0,0-18.368-46.348-42.918-40.34"/>
</svg>
