<svg width="780" height="205" viewBox="0 0 780 205" fill="none" xmlns="http://www.w3.org/2000/svg">
<g clip-path="url(#clip0_2_71)">
<path d="M40.6034 111.866C46.4234 112.288 52.2639 111.398 57.6942 109.26C63.1244 107.122 68.0059 103.791 71.9787 99.5137C79.2692 90.0193 82.9122 78.2211 82.2449 66.2655V5.65674H67.5954V69.2671C67.7729 74.3799 66.95 79.4781 65.173 84.2749C63.8861 87.7902 61.792 90.9538 59.0594 93.5105C56.6687 95.6232 53.8284 97.163 50.7542 98.0129C44.4351 99.9197 37.6945 99.9197 31.3753 98.0129C28.2571 97.0898 25.4079 95.4263 23.0701 93.1642C20.3751 90.5759 18.2871 87.4216 16.9565 83.9286C15.1795 79.1318 14.3567 74.0335 14.5342 68.9207V5.65674H-6.4224e-06V66.2655C-0.642735 78.0567 2.8678 89.7 9.92013 99.1674C13.7545 103.453 18.5035 106.82 23.8151 109.018C29.1267 111.216 34.8646 112.19 40.6034 111.866Z" fill="#5F4A3E"/>
<path d="M111.544 64.8802C111.558 61.326 112.223 57.8045 113.505 54.4901C116.307 48.0364 121.525 42.9388 128.039 40.2904C131.703 38.8086 135.623 38.0633 139.574 38.0969H140.612H141.996L146.726 38.905L148.11 27.3605L145.803 26.6678H142.343H139.343C136.846 26.5261 134.343 26.5261 131.846 26.6678C128.939 27.0765 126.079 27.7725 123.31 28.7458C120.095 30.0731 117.07 31.8199 114.312 33.9409C113.31 34.6529 112.382 35.4652 111.544 36.3652V28.7458H97.0098V109.557H111.544V64.8802Z" fill="#5F4A3E"/>
<path d="M172.103 100.437C173.136 101.456 174.255 102.383 175.448 103.208C178.357 105.475 181.583 107.303 185.022 108.634C188.243 109.912 191.617 110.765 195.058 111.174C198.191 111.621 201.351 111.852 204.516 111.866C210.02 111.842 215.466 110.744 220.55 108.634C225.635 106.544 230.289 103.53 234.277 99.7447C238.451 95.9849 241.893 91.4835 244.428 86.4685C246.872 81.0277 248.092 75.1163 248.004 69.1517C248.049 63.1913 246.83 57.2891 244.428 51.8349C242.272 46.6712 239.094 41.9979 235.084 38.0969C231.139 34.1418 226.481 30.969 221.358 28.7459C216.018 26.5453 210.29 25.4459 204.516 25.5134C201.865 25.3665 199.208 25.3665 196.557 25.5134C193.077 25.9773 189.668 26.8691 186.406 28.1686C182.792 29.6048 179.379 31.5064 176.256 33.8254C174.879 34.8121 173.604 35.9336 172.449 37.1734V0H157.453V109.557H172.103V100.437ZM174.41 57.2608C177.365 49.7446 183.111 43.6636 190.444 40.2904C194.065 38.6334 197.997 37.7676 201.979 37.7506C205.947 37.781 209.869 38.6052 213.514 40.1749C217.129 41.738 220.416 43.9706 223.203 46.7553C225.921 49.7035 228.107 53.102 229.663 56.799C231.533 60.7077 232.63 64.9415 232.893 69.2671C232.918 73.4568 232.134 77.6118 230.586 81.5043C229.122 85.1474 226.923 88.4488 224.126 91.2017C221.369 94.0802 218.078 96.3937 214.437 98.013C206.68 101.012 198.085 101.012 190.328 98.013C186.745 96.5576 183.49 94.3986 180.754 91.6635C177.993 88.904 175.833 85.6022 174.41 81.9661C172.804 78.0904 172.019 73.9237 172.103 69.7289C171.99 65.457 172.776 61.209 174.41 57.2608Z" fill="#5F4A3E"/>
<path d="M265.306 99.7447C269.275 103.554 273.934 106.571 279.033 108.634C284.117 110.744 289.563 111.842 295.067 111.866C298.193 111.847 301.315 111.616 304.41 111.174C307.853 110.779 311.228 109.925 314.445 108.634C317.909 107.279 321.169 105.453 324.135 103.208C325.328 102.383 326.447 101.456 327.48 100.437V109.558H342.014V28.7459H327.48V37.9815C326.285 36.7397 324.972 35.6184 323.558 34.6336C317.63 30.2167 310.689 27.3588 303.372 26.3216C300.682 26.1744 297.987 26.1744 295.297 26.3216C289.77 26.0698 284.247 26.8932 279.033 28.7459C273.887 30.8354 269.188 33.892 265.191 37.7507C261.261 41.8261 258.131 46.6036 255.963 51.835C253.727 57.2521 252.59 63.06 252.618 68.9209C252.426 74.9454 253.568 80.9378 255.963 86.4685C258.177 91.4643 261.352 95.9753 265.306 99.7447ZM268.997 56.9146C270.47 53.1744 272.665 49.7614 275.457 46.8708C278.244 44.0861 281.531 41.8535 285.146 40.2904C290.751 37.8653 296.958 37.196 302.95 38.3706C308.942 39.5453 314.437 42.5088 318.713 46.8708C321.432 49.8191 323.617 53.2175 325.173 56.9146C326.712 60.8502 327.494 65.0411 327.48 69.2672C327.505 73.4568 326.722 77.6119 325.173 81.5044C323.8 85.2059 321.678 88.5832 318.938 91.4243C316.199 94.2653 312.902 96.5085 309.255 98.013C301.46 101.019 292.826 101.019 285.031 98.013C281.448 96.5577 278.193 94.3987 275.457 91.6636C272.624 88.94 270.42 85.6305 268.997 81.9662C267.449 78.0737 266.665 73.9186 266.69 69.729C266.617 65.3478 267.401 60.9946 268.997 56.9146Z" fill="#5F4A3E"/>
<path d="M428.296 40.2905C425.3 35.9558 421.355 32.3627 416.761 29.785C410.997 26.9301 404.618 25.5423 398.19 25.7444C391.423 25.5531 384.729 27.1881 378.811 30.4777C376.11 31.9266 373.657 33.7972 371.544 36.019V28.746H356.894V109.558H371.313V68.8054C371.271 64.625 372.015 60.4739 373.505 56.5683C374.838 53.0091 376.748 49.6938 379.157 46.7554C381.531 44.0876 384.388 41.8939 387.578 40.2905C390.59 38.7945 393.904 38.0049 397.267 37.9816C401.219 37.7971 405.162 38.5074 408.802 40.0596C411.569 41.3494 413.983 43.2903 415.838 45.7164C417.895 48.5457 419.347 51.7679 420.106 55.1829C421.067 59.3464 421.532 63.6091 421.491 67.8819V109.558H436.025V69.4981C436.04 64.4573 435.538 59.4282 434.525 54.4902C433.419 49.3876 431.301 44.559 428.296 40.2905Z" fill="#5F4A3E"/>
<path d="M460.133 6.23397C456.696 10.3744 454.89 15.6304 455.058 21.011V34.1717H440.523V45.7162H454.942V109.557H469.476V46.2934H493.354V34.7489H469.592V21.5882C469.53 19.8299 469.764 18.0738 470.284 16.3931C470.553 15.4027 471.116 14.5172 471.899 13.8534C472.863 13.1869 473.969 12.7523 475.129 12.5835C477.126 12.4442 479.13 12.4442 481.127 12.5835H494.046V1.03894H475.129C472.404 0.796781 469.66 1.13449 467.075 2.02988C464.491 2.92526 462.125 4.35803 460.133 6.23397Z" fill="#5F4A3E"/>
<path d="M570.408 37.9815C569.213 36.7397 567.9 35.6184 566.486 34.6336C560.558 30.2167 553.617 27.3588 546.3 26.3216C543.61 26.1744 540.915 26.1744 538.225 26.3216C532.468 25.9778 526.7 26.8024 521.269 28.7459C516.137 30.8625 511.443 33.916 507.427 37.7507C503.452 41.7898 500.316 46.5766 498.199 51.835C495.871 57.2276 494.692 63.0467 494.738 68.9209C494.583 74.9541 495.765 80.9468 498.199 86.4685C502.759 96.6017 511.01 104.612 521.269 108.865C526.353 110.975 531.799 112.073 537.302 112.097C540.429 112.078 543.551 111.847 546.646 111.405C550.089 111.01 553.464 110.155 556.681 108.865C560.521 107.529 564.137 105.622 567.409 103.208C568.602 102.383 569.721 101.456 570.754 100.437V109.558H585.288V28.7459H570.408V37.9815ZM568.101 81.5044C566.729 85.2059 564.606 88.5833 561.866 91.4243C559.127 94.2653 555.83 96.5085 552.183 98.0131C544.388 101.02 535.754 101.02 527.959 98.0131C524.376 96.5577 521.121 94.3987 518.385 91.6636C515.552 88.94 513.348 85.6305 511.925 81.9662C510.357 77.9216 509.612 73.6041 509.734 69.2672C509.72 65.0411 510.502 60.8502 512.041 56.9146C513.557 53.1966 515.747 49.7914 518.5 46.8708C521.253 44.0981 524.5 41.8661 528.074 40.2904C533.679 37.8653 539.886 37.196 545.878 38.3706C551.87 39.5453 557.365 42.5088 561.641 46.8708C564.395 49.7914 566.585 53.1966 568.101 56.9146C569.64 60.8502 570.422 65.0411 570.408 69.2672C570.433 73.4568 569.65 77.6119 568.101 81.5044Z" fill="#5F4A3E"/>
<path d="M645.617 25.7442H642.618C640.12 25.6025 637.617 25.6025 635.12 25.7442C632.052 26.1596 629.037 26.8947 626.122 27.9377C622.884 29.2889 619.823 31.0337 617.01 33.1327C616.069 33.8768 615.182 34.687 614.357 35.5571V28.7458H599.823V109.557H614.357V64.8802C614.371 61.326 615.035 57.8045 616.318 54.4901C619.12 48.0364 624.338 42.9387 630.852 40.2903C634.516 38.8086 638.435 38.0633 642.387 38.0969H643.656H645.04L649.769 38.905L651.153 27.3605L648.846 26.6678L645.617 25.7442Z" fill="#5F4A3E"/>
<path d="M773.425 37.8659C770.754 33.9417 767.093 30.7951 762.813 28.7458C757.405 26.3793 751.519 25.3119 745.626 25.6287C739.938 25.6345 734.372 27.2776 729.592 30.362C726.042 32.6918 723.081 35.8136 720.941 39.4822C720.398 38.6614 719.898 37.8137 719.441 36.9424C717.888 34.5835 715.936 32.5132 713.673 30.8238C711.24 29.0391 708.505 27.7094 705.599 26.8986C702.142 25.9591 698.567 25.5312 694.987 25.6287C692.778 25.6539 690.577 25.8858 688.412 26.3214C685.923 26.8383 683.517 27.6928 681.26 28.8612C678.947 30.1539 676.814 31.7453 674.916 33.5945V28.7458H660.266V109.557H674.916V68.3435C674.906 64.6569 675.293 60.9799 676.069 57.3762C676.792 53.8821 678.077 50.5288 679.876 47.4479C681.431 44.6456 683.649 42.2674 686.335 40.5212C689.312 38.6843 692.76 37.7612 696.255 37.8659C698.86 37.9611 701.382 38.8026 703.523 40.2903C705.658 41.5033 707.476 43.2042 708.829 45.2544C710.287 47.6699 711.413 50.2718 712.174 52.9893C712.968 56.0418 713.356 59.186 713.327 62.3403V109.557H727.977V61.3013C727.961 58.0853 728.467 54.8881 729.476 51.8348C730.303 49.1564 731.678 46.6795 733.514 44.5618C735.146 42.6133 737.145 41.0051 739.397 39.8285C741.55 38.767 743.917 38.214 746.318 38.2123C749.32 38.1376 752.305 38.688 755.084 39.8285C757.385 40.6545 759.364 42.1907 760.736 44.2154C762.343 46.3967 763.518 48.8654 764.197 51.4885C765.019 54.7714 765.407 58.1482 765.351 61.5322V109.557H780V63.3793C780.009 58.8411 779.545 54.3143 778.616 49.8722C777.697 45.5656 775.933 41.4845 773.425 37.8659Z" fill="#5F4A3E"/>
</g>
<g opacity="0.85">
<path d="M150.897 170.857C150.146 170.857 149.556 170.642 149.127 170.213C148.698 169.891 148.698 169.623 149.127 169.409C151.487 168.979 153.525 168.121 155.242 166.834C156.958 165.44 158.352 163.723 159.425 161.685C161.678 157.931 163.877 154.176 166.022 150.422C168.275 146.56 170.42 142.699 172.458 138.837C174.925 134.117 177.446 129.397 180.021 124.677C182.595 119.85 185.17 115.077 187.744 110.357C190.211 105.959 192.41 101.722 194.341 97.6455C196.272 93.5693 197.72 90.6194 198.686 88.7958C199.436 87.4013 200.724 86.1677 202.547 85.095C204.478 83.915 206.355 83.0033 208.179 82.3596C207.535 82.3596 206.892 82.3596 206.248 82.3596C205.604 82.2524 204.907 82.1987 204.156 82.1987C200.831 82.1987 197.184 82.4133 193.215 82.8423C189.353 83.1642 185.545 83.7005 181.791 84.4514C178.144 85.2023 174.925 86.2213 172.136 87.5086C169.347 88.7958 167.47 90.3512 166.505 92.1748C166.076 93.1402 165.7 94.1056 165.379 95.071C165.057 96.0365 164.896 97.0019 164.896 97.9673C164.896 100.434 165.754 102.204 167.47 103.277C167.578 103.277 167.631 103.384 167.631 103.599C167.631 103.813 167.417 104.028 166.988 104.243C166.666 104.457 166.398 104.511 166.183 104.403C165.11 103.867 163.877 102.58 162.482 100.542C161.195 98.3964 160.337 96.6264 159.908 95.2319C159.586 93.9447 159.425 92.7647 159.425 91.6921C159.425 88.9031 160.337 86.7577 162.16 85.2559C163.984 83.6469 166.29 82.5205 169.079 81.8769C171.868 81.126 174.711 80.697 177.607 80.5897C180.611 80.3752 183.239 80.2679 185.491 80.2679C188.924 80.2679 193 80.2679 197.72 80.2679C202.44 80.1606 206.784 80.107 210.753 80.107C211.719 80.107 212.791 80.107 213.971 80.107C215.151 79.9997 216.385 79.9461 217.672 79.9461C220.568 79.9461 223.572 80.107 226.683 80.4288C229.794 80.7506 232.636 81.4478 235.211 82.5205C237.785 83.5932 239.77 85.2559 241.164 87.5086C243.31 90.8339 244.382 94.3738 244.382 98.1282C244.382 102.312 243.149 106.281 240.681 110.035C238.322 113.682 235.318 116.9 231.671 119.689C228.024 122.478 224.323 124.624 220.568 126.125C217.029 127.52 213.06 128.485 208.662 129.022C204.371 129.558 200.509 129.826 197.077 129.826C196.004 129.826 194.931 129.826 193.858 129.826C192.893 129.719 192.035 129.612 191.284 129.504C191.069 129.504 190.962 129.397 190.962 129.183C190.962 128.754 191.391 128.164 192.249 127.413C193.108 126.555 193.805 126.179 194.341 126.286C195.199 126.394 196.057 126.447 196.916 126.447C197.774 126.447 198.686 126.447 199.651 126.447C203.727 126.447 208.072 125.911 212.684 124.838C217.297 123.766 221.534 121.727 225.396 118.724C229.365 115.613 232.368 111.108 234.406 105.208C234.943 103.921 235.264 102.634 235.372 101.346C235.586 99.9518 235.693 98.6109 235.693 97.3237C235.693 93.6765 234.782 90.4585 232.958 87.6695C231.134 84.8805 228.506 83.2714 225.074 82.8423C224.645 82.7351 224.162 82.6814 223.626 82.6814C223.089 82.6814 222.553 82.6814 222.017 82.6814C219.979 82.6814 217.726 82.9496 215.259 83.486C212.899 84.0223 211.129 85.0414 209.949 86.5431C207.267 90.083 204.693 94.1056 202.225 98.6109C199.758 103.009 197.398 107.514 195.146 112.127C192.893 116.632 190.748 120.869 188.71 124.838C188.173 125.911 187.154 127.842 185.652 130.631C184.151 133.312 182.488 136.423 180.664 139.963C178.841 143.396 177.124 146.828 175.515 150.261C173.906 153.694 172.619 156.751 171.654 159.433C170.796 162.114 170.581 163.938 171.01 164.903C171.117 165.011 171.171 165.171 171.171 165.386C171.171 165.708 171.01 165.869 170.688 165.869C169.83 165.869 168.972 165.654 168.114 165.225C167.256 164.796 166.237 164.581 165.057 164.581C163.984 164.581 162.911 164.85 161.839 165.386C160.766 165.815 159.371 166.62 157.655 167.8C155.939 168.979 154.008 169.945 151.863 170.696C151.648 170.803 151.326 170.857 150.897 170.857Z" fill="#BEBBB6"/>
<path d="M251.786 168.121C248.568 168.121 246.369 167.37 245.189 165.869C244.009 164.26 243.419 162.329 243.419 160.076C243.419 157.073 244.063 153.855 245.35 150.422C246.745 146.989 247.871 144.308 248.729 142.377C247.335 143.878 245.994 145.327 244.707 146.721C243.419 148.116 242.508 149.135 241.971 149.778C241.649 150.207 241.381 150.422 241.167 150.422C240.952 150.422 240.845 150.154 240.845 149.617C240.845 148.759 241.113 147.955 241.649 147.204C243.151 145.273 244.867 143.235 246.798 141.09C248.729 138.944 250.606 136.691 252.43 134.332C254.575 130.363 256.935 125.75 259.51 120.494C262.191 115.13 264.927 109.66 267.716 104.082C270.612 98.3964 273.401 93.1938 276.083 88.474C278.872 83.6469 281.339 79.7852 283.484 76.8889C285.308 76.138 287.024 75.1726 288.633 73.9926C290.35 72.8127 292.012 71.74 293.621 70.7746C295.338 69.7019 297.108 69.1655 298.931 69.1655C300.111 69.1655 300.969 69.4873 301.506 70.1309C302.149 70.7746 302.578 71.5255 302.793 72.3836C302.9 72.7054 302.954 73.2954 302.954 74.1535C302.954 76.6207 302.096 79.6243 300.379 83.1642C298.77 86.704 296.839 90.1903 294.587 93.6229C292.441 96.9482 290.564 99.6836 288.955 101.829C284.664 107.836 280.266 113.307 275.761 118.241C271.256 123.068 267.179 127.145 263.532 130.47C259.992 133.688 257.418 136.048 255.809 137.55C255.058 138.944 254.146 140.821 253.074 143.181C252.108 145.434 251.25 147.847 250.499 150.422C249.748 152.889 249.373 155.195 249.373 157.341C249.373 159.164 249.802 160.72 250.66 162.007C251.518 163.187 252.966 163.777 255.004 163.777C255.326 163.777 255.648 163.777 255.97 163.777C256.292 163.777 256.667 163.723 257.096 163.616C258.92 163.294 260.904 162.275 263.05 160.559C265.195 158.843 267.34 156.858 269.486 154.605C271.631 152.353 273.562 150.207 275.278 148.169C276.029 147.311 276.726 146.507 277.37 145.756C278.014 144.898 278.443 144.308 278.657 143.986C279.408 144.737 279.354 145.702 278.496 146.882C277.745 147.955 277.102 148.867 276.565 149.617C275.815 150.583 274.742 151.924 273.347 153.64C271.953 155.249 270.344 157.019 268.52 158.95C266.482 160.988 263.961 163.026 260.958 165.064C257.954 167.102 254.897 168.121 251.786 168.121ZM258.544 131.113C261.87 128.324 266.053 124.356 271.095 119.207C276.244 113.95 281.285 107.622 286.22 100.22C286.756 99.3618 287.614 97.9137 288.794 95.8755C290.081 93.8374 291.369 91.5311 292.656 88.9567C294.05 86.275 295.23 83.7005 296.196 81.2333C297.161 78.6588 297.644 76.4598 297.644 74.6363C297.644 72.9199 297.161 72.0618 296.196 72.0618C295.016 72.0618 293.46 73.0809 291.53 75.119C289.277 77.4789 286.702 80.9651 283.806 85.5777C281.017 90.083 278.067 95.1247 274.956 100.703C271.846 106.281 268.842 111.751 265.946 117.115C263.157 122.478 260.69 127.145 258.544 131.113Z" fill="#BEBBB6"/>
<path d="M297.462 168.282C296.389 168.282 295.477 168.068 294.726 167.639C293.975 167.21 293.6 166.405 293.6 165.225C293.6 163.723 293.975 162.007 294.726 160.076C295.477 158.145 296.335 156.268 297.301 154.445C298.266 152.514 299.124 150.958 299.875 149.778C296.121 153.747 292.205 157.502 288.129 161.042C286.091 162.758 283.838 164.367 281.371 165.869C278.904 167.37 276.276 168.121 273.487 168.121C272.414 168.121 271.663 167.8 271.234 167.156C270.805 166.405 270.591 165.547 270.591 164.581C270.591 164.045 270.644 163.67 270.752 163.455C271.288 159.272 272.629 154.927 274.774 150.422C276.92 145.917 279.548 141.679 282.658 137.711C285.769 133.742 288.934 130.523 292.152 128.056C295.799 125.267 299.822 123.873 304.22 123.873H322.723C323.26 123.873 323.528 124.087 323.528 124.516C323.528 125.375 323.045 125.804 322.08 125.804C321.007 125.804 319.934 126.501 318.862 127.895C317.789 129.183 316.985 130.255 316.448 131.113C315.697 132.293 314.517 134.278 312.908 137.067C311.299 139.856 309.637 142.913 307.92 146.238C306.311 149.456 304.917 152.46 303.737 155.249C302.557 158.038 301.967 160.076 301.967 161.363C301.967 162.865 302.718 163.616 304.22 163.616C305.829 163.616 307.652 162.865 309.69 161.363C311.728 159.862 313.767 158.038 315.805 155.893C317.95 153.64 319.881 151.441 321.597 149.296C323.421 147.043 324.869 145.273 325.942 143.986C326.585 144.629 326.532 145.541 325.781 146.721C325.137 147.794 324.547 148.652 324.011 149.296C321.865 152.085 319.398 154.981 316.609 157.984C313.82 160.881 310.763 163.348 307.438 165.386C304.22 167.317 300.894 168.282 297.462 168.282ZM280.084 162.651C281.371 162.651 283.141 161.739 285.394 159.915C287.754 157.984 290.275 155.624 292.956 152.835C295.638 149.939 298.159 146.936 300.519 143.825C302.879 140.607 304.81 137.711 306.311 135.136C307.92 132.454 308.725 130.416 308.725 129.022C308.725 127.842 308.349 127.037 307.599 126.608C306.955 126.179 306.097 125.965 305.024 125.965C303.308 125.965 301.431 126.608 299.392 127.895C297.462 129.075 295.906 130.255 294.726 131.435C293.439 132.615 291.884 134.492 290.06 137.067C288.344 139.534 286.627 142.269 284.911 145.273C283.195 148.277 281.747 151.173 280.567 153.962C279.387 156.751 278.797 159.003 278.797 160.72C278.797 162.007 279.226 162.651 280.084 162.651Z" fill="#BEBBB6"/>
<path d="M323.841 170.213C323.412 170.213 323.412 169.73 323.841 168.765C324.377 167.8 324.86 166.727 325.289 165.547C325.825 164.367 326.362 163.08 326.898 161.685C327.971 159.111 329.151 156.214 330.438 152.996C331.725 149.778 332.959 146.667 334.139 143.664C335.319 140.553 336.338 137.925 337.196 135.78C338.161 133.527 338.805 132.079 339.127 131.435C337.625 133.044 335.802 135.082 333.656 137.55C331.618 139.91 329.687 142.216 327.864 144.468C326.04 146.721 324.646 148.491 323.68 149.778C323.358 150.207 323.09 150.422 322.876 150.422C322.661 150.422 322.554 150.154 322.554 149.617C322.554 148.759 322.822 147.955 323.358 147.204C325.396 144.629 327.649 141.733 330.116 138.515C332.691 135.297 334.997 132.347 337.035 129.665C339.073 126.876 340.36 125.053 340.897 124.195C342.077 123.98 343.793 123.658 346.046 123.229C348.406 122.8 350.015 122.21 350.873 121.459C351.195 121.137 351.516 120.977 351.838 120.977C352.053 120.977 352.16 121.191 352.16 121.62C352.267 121.942 352.16 122.317 351.838 122.746C351.195 123.497 350.068 125.267 348.459 128.056C346.958 130.738 345.295 133.742 343.471 137.067C341.755 140.392 340.146 143.396 338.644 146.078C339.931 144.361 341.326 142.699 342.828 141.09C344.329 139.48 345.778 137.925 347.172 136.423C348.459 135.136 350.229 133.527 352.482 131.596C354.735 129.665 357.094 127.895 359.562 126.286C362.029 124.677 364.174 123.766 365.998 123.551C366.427 123.444 366.802 123.39 367.124 123.39C367.553 123.39 367.875 123.39 368.09 123.39C370.449 123.39 371.629 124.248 371.629 125.965C371.629 127.252 370.932 128.968 369.538 131.113C368.787 132.293 367.607 134.278 365.998 137.067C364.496 139.749 362.941 142.699 361.332 145.917C359.83 149.027 358.489 151.977 357.309 154.766C356.236 157.448 355.7 159.433 355.7 160.72C355.7 162.222 356.451 162.972 357.953 162.972C359.776 162.972 361.761 162.061 363.906 160.237C366.159 158.413 368.572 156.107 371.147 153.318C373.721 150.422 376.296 147.365 378.87 144.147C379.085 144.361 379.192 144.737 379.192 145.273C379.192 146.024 378.924 146.775 378.387 147.526C377.958 148.169 377.529 148.759 377.1 149.296C376.027 150.69 374.579 152.46 372.756 154.605C371.039 156.644 369.27 158.682 367.446 160.72C365.622 162.651 363.96 164.206 362.458 165.386C361.385 166.137 359.991 166.941 358.274 167.8C356.558 168.658 354.842 169.087 353.126 169.087C351.195 169.087 349.854 168.604 349.103 167.639C348.352 166.566 347.977 165.279 347.977 163.777C347.977 162.061 348.298 160.237 348.942 158.306C349.586 156.375 350.283 154.552 351.034 152.835C351.892 151.012 352.536 149.671 352.965 148.813C354.895 145.058 356.665 141.519 358.274 138.193C359.883 134.868 361.01 132.508 361.653 131.113C361.975 130.47 362.136 129.934 362.136 129.504C362.136 128.754 361.546 128.7 360.366 129.344C359.186 129.987 357.738 130.953 356.022 132.24C354.413 133.527 352.911 134.814 351.516 136.101C350.122 137.281 349.21 138.086 348.781 138.515C344.812 142.699 341.326 147.365 338.322 152.514C335.426 157.555 332.959 162.758 330.921 168.121C329.526 168.229 328.132 168.604 326.737 169.248C325.343 169.891 324.377 170.213 323.841 170.213Z" fill="#BEBBB6"/>
<path d="M382.423 168.282C381.35 168.282 380.438 168.068 379.687 167.639C378.936 167.21 378.561 166.405 378.561 165.225C378.561 163.723 378.936 161.953 379.687 159.915C380.545 157.877 381.457 155.839 382.423 153.801C383.388 151.763 384.193 150.1 384.836 148.813C385.372 147.847 386.07 146.346 386.928 144.308C387.893 142.162 388.859 139.963 389.824 137.711C390.897 135.351 391.755 133.366 392.399 131.757C393.149 130.148 393.525 129.344 393.525 129.344C392.559 130.416 391.272 131.918 389.663 133.849C388.161 135.78 386.499 137.818 384.675 139.963C382.959 142.001 381.35 143.932 379.848 145.756C378.454 147.579 377.435 148.92 376.791 149.778C376.469 150.207 376.201 150.422 375.986 150.422C375.772 150.422 375.665 150.154 375.665 149.617C375.665 148.759 375.933 147.955 376.469 147.204C377.756 145.595 379.312 143.664 381.135 141.411C382.959 139.051 384.782 136.691 386.606 134.332C388.537 131.972 390.2 129.88 391.594 128.056C390.736 128.056 389.61 128.11 388.215 128.217C386.928 128.324 385.748 128.485 384.675 128.7C383.603 128.807 383.013 128.861 382.905 128.861C382.369 128.861 382.423 128.432 383.066 127.574C383.71 126.715 384.568 125.857 385.641 124.999C386.713 124.141 387.518 123.712 388.054 123.712C388.161 123.712 389.02 123.766 390.629 123.873C392.238 123.873 393.418 123.873 394.169 123.873C396.314 120.977 398.406 117.651 400.444 113.897C402.589 110.142 404.681 106.012 406.719 101.507C407.577 101.4 409.025 100.81 411.063 99.7372C413.209 98.5573 414.871 97.3773 416.051 96.1974C416.588 95.661 417.017 95.3928 417.339 95.3928C417.982 95.3928 417.982 95.8219 417.339 96.6801C416.588 97.5382 415.301 99.3618 413.477 102.151C411.653 104.833 409.615 108.104 407.363 111.966C405.11 115.72 402.965 119.689 400.926 123.873H413.96C415.14 123.873 415.73 124.034 415.73 124.356C415.73 124.785 414.925 125.214 413.316 125.643C411.492 126.179 409.562 126.501 407.524 126.608C405.593 126.715 403.769 126.93 402.053 127.252C400.444 127.574 399.264 128.271 398.513 129.344C397.869 130.094 396.958 131.703 395.778 134.171C394.598 136.638 393.31 139.48 391.916 142.699C390.629 145.809 389.502 148.974 388.537 152.192C387.571 155.303 386.981 157.931 386.767 160.076V160.72C386.767 161.578 387.035 162.275 387.571 162.812C388.108 163.348 388.644 163.616 389.181 163.616C390.575 163.616 392.345 162.758 394.49 161.042C396.743 159.325 399.049 157.287 401.409 154.927C403.769 152.46 405.807 150.207 407.524 148.169C408.274 147.311 408.918 146.507 409.454 145.756C410.098 145.005 410.473 144.522 410.581 144.308C410.795 144.737 410.902 145.058 410.902 145.273C410.902 145.917 410.688 146.614 410.259 147.365C409.937 148.116 409.562 148.759 409.133 149.296C407.094 151.977 404.627 154.82 401.731 157.823C398.835 160.72 395.724 163.187 392.399 165.225C389.181 167.263 385.855 168.282 382.423 168.282Z" fill="#BEBBB6"/>
<path d="M469.502 172.466C463.816 172.466 458.346 171.608 453.089 169.891C447.941 168.282 443.757 165.547 440.539 161.685C437.321 157.823 435.712 152.621 435.712 146.078C435.712 139.105 437.053 132.293 439.734 125.643C442.416 118.992 446.01 112.824 450.515 107.139C455.02 101.346 460.062 96.3583 465.64 92.1748C470.574 88.4203 476.26 85.3632 482.696 83.0033C489.239 80.6433 495.729 79.4634 502.165 79.4634C504.847 79.4634 507.368 79.6779 509.728 80.107C512.088 80.4288 514.501 81.1797 516.968 82.3596C519.114 83.3251 520.83 84.5587 522.117 86.0604C523.404 87.4549 524.048 89.064 524.048 90.8875C524.048 91.1021 524.048 91.3702 524.048 91.6921C524.048 92.0139 523.994 92.282 523.887 92.4966C523.458 94.2129 522.439 96.1974 520.83 98.45C519.328 100.595 518.148 102.848 517.29 105.208C517.183 105.637 516.593 106.012 515.52 106.334C514.447 106.549 514.018 106.442 514.233 106.012C515.091 104.618 515.735 102.902 516.164 100.864C516.7 98.8255 516.968 96.7873 516.968 94.7492C516.968 93.2475 516.807 91.853 516.486 90.5657C516.271 89.1712 515.842 87.9913 515.198 87.0258C514.126 85.095 512.463 83.7541 510.21 83.0033C507.958 82.2524 505.544 81.8769 502.97 81.8769C500.502 81.8769 498.035 82.1451 495.568 82.6814C493.101 83.2178 490.955 83.8078 489.132 84.4514C482.91 86.704 476.957 90.2439 471.272 95.071C466.23 99.4691 461.725 104.564 457.756 110.357C453.894 116.149 450.837 122.103 448.584 128.217C446.332 134.332 445.205 140.178 445.205 145.756C445.205 151.441 446.439 155.946 448.906 159.272C451.373 162.597 454.591 164.957 458.56 166.351C462.529 167.746 466.82 168.443 471.432 168.443C475.509 168.443 479.531 168.014 483.5 167.156C487.577 166.298 491.277 165.225 494.603 163.938C500.288 161.792 505.383 159.164 509.888 156.054C514.501 152.943 518.792 148.92 522.761 143.986C523.297 143.449 523.673 143.181 523.887 143.181C524.209 143.181 524.37 143.396 524.37 143.825C524.37 144.683 523.941 145.702 523.083 146.882C519.435 151.816 515.306 155.946 510.693 159.272C506.08 162.597 501.146 165.332 495.89 167.478C492.35 168.872 488.22 170.052 483.5 171.018C478.888 171.983 474.221 172.466 469.502 172.466Z" fill="#BEBBB6"/>
<path d="M541.803 168.282C540.73 168.282 539.818 168.068 539.067 167.639C538.316 167.21 537.941 166.405 537.941 165.225C537.941 163.723 538.316 162.007 539.067 160.076C539.818 158.145 540.676 156.268 541.642 154.445C542.607 152.514 543.465 150.958 544.216 149.778C540.462 153.747 536.547 157.502 532.47 161.042C530.432 162.758 528.18 164.367 525.712 165.869C523.245 167.37 520.617 168.121 517.828 168.121C516.755 168.121 516.004 167.8 515.575 167.156C515.146 166.405 514.932 165.547 514.932 164.581C514.932 164.045 514.985 163.67 515.093 163.455C515.629 159.272 516.97 154.927 519.115 150.422C521.261 145.917 523.889 141.679 527 137.711C530.11 133.742 533.275 130.523 536.493 128.056C540.14 125.267 544.163 123.873 548.561 123.873H567.065C567.601 123.873 567.869 124.087 567.869 124.516C567.869 125.375 567.386 125.804 566.421 125.804C565.348 125.804 564.276 126.501 563.203 127.895C562.13 129.183 561.326 130.255 560.789 131.113C560.038 132.293 558.858 134.278 557.249 137.067C555.64 139.856 553.978 142.913 552.261 146.238C550.652 149.456 549.258 152.46 548.078 155.249C546.898 158.038 546.308 160.076 546.308 161.363C546.308 162.865 547.059 163.616 548.561 163.616C550.17 163.616 551.993 162.865 554.031 161.363C556.069 159.862 558.108 158.038 560.146 155.893C562.291 153.64 564.222 151.441 565.938 149.296C567.762 147.043 569.21 145.273 570.283 143.986C570.926 144.629 570.873 145.541 570.122 146.721C569.478 147.794 568.888 148.652 568.352 149.296C566.206 152.085 563.739 154.981 560.95 157.984C558.161 160.881 555.104 163.348 551.779 165.386C548.561 167.317 545.235 168.282 541.803 168.282ZM524.425 162.651C525.712 162.651 527.482 161.739 529.735 159.915C532.095 157.984 534.616 155.624 537.297 152.835C539.979 149.939 542.5 146.936 544.86 143.825C547.22 140.607 549.151 137.711 550.652 135.136C552.261 132.454 553.066 130.416 553.066 129.022C553.066 127.842 552.691 127.037 551.94 126.608C551.296 126.179 550.438 125.965 549.365 125.965C547.649 125.965 545.772 126.608 543.734 127.895C541.803 129.075 540.247 130.255 539.067 131.435C537.78 132.615 536.225 134.492 534.401 137.067C532.685 139.534 530.969 142.269 529.252 145.273C527.536 148.277 526.088 151.173 524.908 153.962C523.728 156.751 523.138 159.003 523.138 160.72C523.138 162.007 523.567 162.651 524.425 162.651Z" fill="#BEBBB6"/>
<path d="M529.887 204.164C525.704 204.164 522.217 203.467 519.428 202.072C516.532 200.785 514.601 198.8 513.636 196.119C513.529 195.797 513.475 195.475 513.475 195.153C513.368 194.831 513.314 194.456 513.314 194.027C513.314 192.418 513.689 190.594 514.44 188.556C515.191 186.625 515.996 184.534 516.854 182.281C517.176 181.637 517.551 181.315 517.98 181.315C518.731 181.315 518.946 181.852 518.624 182.924C517.873 184.534 517.497 186.25 517.497 188.073C517.497 191.828 519.16 194.831 522.485 197.084C525.704 199.444 529.404 200.624 533.588 200.624C536.806 200.624 539.917 199.873 542.92 198.371C547.962 195.797 552.092 192.257 555.31 187.752C558.528 183.246 561.371 178.687 563.838 174.075C567.592 166.888 570.81 159.379 573.492 151.548C576.281 143.61 579.231 135.78 582.342 128.056H578.641C578.104 128.056 577.515 128.11 576.871 128.217C576.227 128.324 575.637 128.432 575.101 128.539L574.779 128.378C574.994 127.198 576.013 126.179 577.836 125.321C579.767 124.356 581.269 123.873 582.342 123.873H584.273C585.882 120.011 587.759 115.774 589.904 111.161C592.157 106.549 594.57 101.936 597.145 97.3237C599.719 92.6038 602.508 88.3131 605.512 84.4514C608.623 80.5897 611.841 77.5325 615.166 75.2799C620.637 71.4182 626.697 69.4873 633.348 69.4873C634.635 69.4873 635.869 69.9164 637.049 70.7746C638.336 71.5255 638.926 72.7054 638.819 74.3144L638.336 80.107C638.336 80.3215 638.175 80.4824 637.853 80.5897C637.532 80.697 637.317 80.6433 637.21 80.4288C636.781 78.2834 635.601 76.728 633.67 75.7626C631.846 74.6899 629.701 74.1535 627.234 74.1535C623.265 74.1535 619.618 75.4408 616.292 78.0152C613.074 80.5897 609.588 85.3632 605.834 92.3357C604.439 95.0174 602.884 98.1818 601.167 101.829C599.558 105.476 597.949 109.231 596.34 113.092C594.731 116.954 593.176 120.547 591.674 123.873H603.259C604.01 123.873 604.761 123.873 605.512 123.873C606.37 123.766 607.174 123.658 607.925 123.551C607.925 123.98 607.604 124.409 606.96 124.838C606.424 125.16 605.941 125.428 605.512 125.643C602.83 127.037 600.309 127.842 597.949 128.056C595.589 128.164 592.908 128.164 589.904 128.056C587.544 133.956 585.292 139.588 583.146 144.951C581.108 150.207 578.855 155.356 576.388 160.398C574.35 164.903 571.829 169.677 568.826 174.718C565.822 179.76 562.39 184.534 558.528 189.039C554.666 193.544 550.375 197.191 545.656 199.98C540.828 202.769 535.572 204.164 529.887 204.164Z" fill="#BEBBB6"/>
<path d="M605.615 169.087C601.217 169.087 598.16 168.229 596.443 166.512C594.727 164.796 593.869 162.704 593.869 160.237C593.869 157.126 594.673 153.801 596.282 150.261C597.999 146.721 599.608 143.718 601.11 141.25C602.826 138.676 605.132 135.994 608.028 133.205C610.925 130.416 614.089 128.056 617.522 126.125C620.954 124.195 624.28 123.229 627.498 123.229C630.287 123.229 632.218 123.926 633.29 125.321C634.363 126.608 634.899 128.164 634.899 129.987C634.899 133.312 633.88 136.048 631.842 138.193C629.911 140.339 627.498 142.109 624.602 143.503C621.705 144.79 618.916 145.863 616.234 146.721C614.625 147.15 612.748 147.579 610.603 148.008C608.457 148.437 606.419 148.652 604.489 148.652C603.738 150.583 603.148 152.46 602.719 154.284C602.29 156.107 602.075 157.77 602.075 159.272C602.075 161.095 602.504 162.597 603.362 163.777C604.328 164.957 605.883 165.547 608.028 165.547C608.887 165.547 609.906 165.44 611.086 165.225C612.266 165.011 613.553 164.689 614.947 164.26C618.165 163.187 621.33 161.471 624.441 159.111C627.551 156.751 630.394 154.23 632.969 151.548C635.65 148.759 637.688 146.453 639.083 144.629C639.405 144.951 639.566 145.327 639.566 145.756C639.566 146.292 639.19 147.15 638.439 148.33C636.294 151.334 633.505 154.445 630.072 157.663C626.64 160.881 622.832 163.616 618.648 165.869C614.465 168.014 610.12 169.087 605.615 169.087ZM605.776 145.434C607.17 145.541 608.726 145.541 610.442 145.434C612.266 145.219 614.035 144.844 615.752 144.308C620.15 143.02 623.314 140.982 625.245 138.193C627.283 135.297 628.302 132.723 628.302 130.47C628.302 129.183 628.034 128.11 627.498 127.252C626.961 126.394 626.103 125.965 624.923 125.965C621.812 125.965 619.024 127.145 616.556 129.504C614.089 131.757 611.944 134.385 610.12 137.389C608.297 140.392 606.848 143.074 605.776 145.434Z" fill="#BEBBB6"/>
</g>
<defs>
<clipPath id="clip0_2_71">
<rect width="780" height="111.866" fill="white"/>
</clipPath>
</defs>
</svg>
