<svg width="1199" height="172" viewBox="0 0 1199 172" fill="none" xmlns="http://www.w3.org/2000/svg">
<g clip-path="url(#clip0_253_4)">
<path d="M62.4145 172C71.361 172.649 80.3389 171.28 88.6862 167.992C97.0334 164.705 104.537 159.584 110.644 153.007C121.851 138.409 127.451 120.269 126.425 101.887V8.69775H103.906V106.502C104.179 114.363 102.914 122.202 100.182 129.577C98.2043 134.982 94.9853 139.846 90.7848 143.777C87.1098 147.026 82.7438 149.393 78.0182 150.7C68.3045 153.632 57.9431 153.632 48.2294 150.7C43.4361 149.28 39.0564 146.723 35.4628 143.245C31.32 139.265 28.1104 134.415 26.0651 129.045C23.3336 121.669 22.0686 113.83 22.3415 105.969V8.69775H-0.000124671V101.887C-0.988114 120.016 4.4082 137.918 15.2489 152.475C21.143 159.064 28.4431 164.241 36.608 167.621C44.7729 171.001 53.593 172.497 62.4145 172V172Z" fill="#5F4A3E" fill-opacity="0.1"/>
<path d="M171.463 99.7566C171.485 94.2919 172.506 88.8775 174.478 83.7814C178.785 73.8585 186.806 66.0206 196.819 61.9486C202.451 59.6704 208.476 58.5244 214.551 58.576H216.146H218.274L225.544 59.8186L227.672 42.0683L224.126 41.0033H218.806H214.196C210.357 40.7854 206.509 40.7854 202.671 41.0033C198.202 41.6316 193.807 42.7018 189.549 44.1983C184.608 46.239 179.957 48.9248 175.719 52.186C174.178 53.2807 172.752 54.5296 171.463 55.9135V44.1983H149.122V168.45H171.463V99.7566Z" fill="#5F4A3E" fill-opacity="0.1"/>
<path d="M264.553 154.427C266.141 155.994 267.861 157.419 269.695 158.687C274.167 162.173 279.126 164.984 284.412 167.03C289.364 168.995 294.549 170.307 299.839 170.935C304.655 171.622 309.513 171.978 314.378 172C322.839 171.963 331.21 170.275 339.025 167.03C346.841 163.817 353.995 159.183 360.126 153.362C366.542 147.581 371.832 140.66 375.729 132.949C379.486 124.584 381.362 115.495 381.226 106.324C381.296 97.1596 379.422 88.0847 375.729 79.6987C372.415 71.7592 367.53 64.5739 361.367 58.5759C355.302 52.4946 348.142 47.6163 340.266 44.1981C332.059 40.8147 323.254 39.1242 314.378 39.2281C310.303 39.0022 306.219 39.0022 302.144 39.2281C296.795 39.9413 291.554 41.3125 286.54 43.3106C280.983 45.5188 275.738 48.4427 270.936 52.0083C268.82 53.5253 266.86 55.2497 265.085 57.1558V0H242.034V168.45H264.553V154.427ZM268.099 88.0413C272.642 76.4848 281.474 67.135 292.746 61.9484C298.312 59.4008 304.357 58.0696 310.478 58.0433C316.577 58.0901 322.606 59.3574 328.209 61.7709C333.766 64.1742 338.82 67.6069 343.103 71.8886C347.282 76.4216 350.641 81.6469 353.033 87.3313C355.908 93.341 357.593 99.8507 357.998 106.502C358.036 112.943 356.832 119.332 354.451 125.317C352.202 130.918 348.822 135.994 344.522 140.227C340.283 144.653 335.224 148.21 329.627 150.7C317.704 155.311 304.492 155.311 292.569 150.7C287.061 148.462 282.057 145.142 277.852 140.937C273.608 136.694 270.287 131.618 268.099 126.027C265.631 120.068 264.424 113.661 264.553 107.212C264.38 100.643 265.588 94.1118 268.099 88.0413V88.0413Z" fill="#5F4A3E" fill-opacity="0.1"/>
<path d="M407.823 153.362C413.925 159.219 421.086 163.858 428.923 167.03C436.738 170.275 445.11 171.963 453.57 172C458.376 171.97 463.175 171.614 467.933 170.935C473.226 170.327 478.414 169.014 483.359 167.03C488.683 164.947 493.695 162.14 498.253 158.687C500.087 157.419 501.808 155.994 503.396 154.427V168.45H525.737V44.1981H503.396V58.3983C501.559 56.4889 499.54 54.7648 497.367 53.2507C488.254 46.4595 477.585 42.0653 466.337 40.4705C462.203 40.2442 458.059 40.2442 453.925 40.4705C445.429 40.0835 436.938 41.3494 428.923 44.1981C421.013 47.4107 413.79 52.1105 407.646 58.0433C401.605 64.3095 396.794 71.6552 393.461 79.6986C390.024 88.0277 388.276 96.9576 388.318 105.969C388.024 115.232 389.78 124.446 393.461 132.949C396.865 140.631 401.745 147.566 407.823 153.362V153.362ZM413.497 87.5087C415.761 81.758 419.135 76.5104 423.427 72.066C427.711 67.7844 432.764 64.3516 438.321 61.9483C446.936 58.2196 456.477 57.1905 465.688 58.9965C474.898 60.8026 483.347 65.3591 489.92 72.066C494.098 76.599 497.458 81.8243 499.849 87.5087C502.214 93.56 503.417 100.004 503.396 106.501C503.434 112.943 502.23 119.332 499.849 125.317C497.739 131.008 494.476 136.201 490.265 140.569C486.054 144.937 480.986 148.386 475.38 150.7C463.397 155.322 450.126 155.322 438.144 150.7C432.636 148.462 427.632 145.142 423.427 140.937C419.072 136.749 415.684 131.661 413.497 126.027C411.117 120.042 409.912 113.653 409.951 107.211C409.838 100.475 411.043 93.7819 413.497 87.5087V87.5087Z" fill="#5F4A3E" fill-opacity="0.1"/>
<path d="M658.368 61.9482C653.763 55.2834 647.698 49.7589 640.637 45.7955C631.776 41.406 621.971 39.2721 612.089 39.5829C601.687 39.2888 591.398 41.8026 582.301 46.8605C578.148 49.0883 574.377 51.9644 571.13 55.3806V44.198H548.611V168.45H570.775V105.791C570.711 99.3637 571.853 92.9811 574.144 86.9761C576.194 81.5036 579.129 76.4062 582.833 71.8884C586.481 67.7864 590.873 64.4136 595.776 61.9482C600.408 59.6481 605.501 58.4341 610.671 58.3982C616.746 58.1145 622.807 59.2066 628.402 61.5932C632.656 63.5764 636.367 66.5605 639.219 70.2908C642.379 74.641 644.612 79.5953 645.779 84.846C647.256 91.2476 647.97 97.8016 647.907 104.371V168.45H670.249V106.856C670.272 99.1058 669.5 91.3734 667.943 83.781C666.243 75.9354 662.987 68.5112 658.368 61.9482V61.9482Z" fill="#5F4A3E" fill-opacity="0.1"/>
<path d="M707.307 9.58501C702.023 15.9512 699.248 24.0324 699.505 32.3053V52.5406H677.164V70.2909H699.328V168.45H721.669V71.1784H758.374V53.4281H721.847V33.1929C721.752 30.4894 722.112 27.7893 722.911 25.2052C723.325 23.6824 724.191 22.3209 725.393 21.3002C726.876 20.2754 728.575 19.6072 730.358 19.3477C733.428 19.1335 736.509 19.1335 739.578 19.3477H759.437V1.5974H730.358C726.17 1.22507 721.951 1.74432 717.978 3.12101C714.005 4.4977 710.369 6.70065 707.307 9.58501V9.58501Z" fill="#5F4A3E" fill-opacity="0.1"/>
<path d="M876.819 58.3983C874.983 56.4889 872.964 54.7648 870.791 53.2507C861.678 46.4595 851.009 42.0653 839.761 40.4705C835.626 40.2442 831.483 40.2442 827.349 40.4705C818.498 39.9419 809.632 41.2099 801.284 44.1981C793.395 47.4524 786.179 52.1473 780.006 58.0433C773.896 64.2537 769.075 71.6136 765.821 79.6986C762.243 87.99 760.431 96.9372 760.501 105.969C760.263 115.245 762.079 124.459 765.821 132.949C772.83 148.53 785.514 160.846 801.284 167.385C809.098 170.63 817.47 172.318 825.93 172.355C830.736 172.325 835.535 171.969 840.293 171.29C845.586 170.682 850.774 169.369 855.719 167.385C861.621 165.331 867.18 162.399 872.209 158.687C874.043 157.419 875.764 155.994 877.351 154.427V168.45H899.693V44.1981H876.819V58.3983ZM873.273 125.317C871.163 131.008 867.9 136.201 863.689 140.569C859.478 144.937 854.41 148.386 848.804 150.7C836.821 155.322 823.55 155.322 811.568 150.7C806.06 148.462 801.056 145.142 796.851 140.937C792.497 136.749 789.108 131.661 786.921 126.027C784.51 119.808 783.364 113.17 783.552 106.501C783.53 100.004 784.733 93.56 787.098 87.5087C789.429 81.7921 792.795 76.5565 797.028 72.066C801.259 67.8027 806.251 64.371 811.745 61.9483C820.36 58.2196 829.901 57.1905 839.112 58.9965C848.322 60.8026 856.771 65.3591 863.344 72.066C867.577 76.5565 870.943 81.7921 873.273 87.5087C875.638 93.56 876.841 100.004 876.819 106.501C876.858 112.943 875.654 119.332 873.273 125.317V125.317Z" fill="#5F4A3E" fill-opacity="0.1"/>
<path d="M992.429 39.5829H987.819C983.98 39.365 980.132 39.365 976.293 39.5829C971.578 40.2215 966.943 41.3518 962.463 42.9554C957.484 45.033 952.779 47.7157 948.455 50.943C947.009 52.0871 945.646 53.3328 944.377 54.6706V44.1979H922.035V168.45H944.377V99.7563C944.398 94.2916 945.42 88.8771 947.391 83.781C951.699 73.8582 959.719 66.0202 969.733 61.9482C975.365 59.67 981.39 58.524 987.464 58.5757H989.415H991.542L998.812 59.8182L1000.94 42.0679L997.394 41.0029L992.429 39.5829Z" fill="#5F4A3E" fill-opacity="0.1"/>
<path d="M1188.89 58.2209C1184.79 52.1873 1179.16 47.3492 1172.58 44.1982C1164.27 40.5597 1155.22 38.9184 1146.16 39.4056C1137.42 39.4144 1128.86 41.9408 1121.51 46.6832C1116.06 50.2654 1111.51 55.0654 1108.21 60.7059C1107.38 59.4439 1106.61 58.1406 1105.91 56.8009C1103.52 53.1741 1100.52 49.9907 1097.04 47.3932C1093.3 44.6493 1089.1 42.6047 1084.63 41.3581C1079.32 39.9135 1073.82 39.2557 1068.32 39.4056C1064.92 39.4443 1061.54 39.8009 1058.21 40.4706C1054.39 41.2653 1050.69 42.5791 1047.22 44.3757C1043.66 46.3632 1040.38 48.81 1037.47 51.6533V44.1982H1014.95V168.45H1037.47V105.082C1037.45 99.4132 1038.05 93.7598 1039.24 88.2188C1040.35 82.8464 1042.33 77.6907 1045.09 72.9536C1047.48 68.645 1050.89 64.9884 1055.02 62.3034C1059.6 59.4792 1064.9 58.0598 1070.27 58.2209C1074.27 58.3673 1078.15 59.661 1081.44 61.9484C1084.72 63.8135 1087.52 66.4288 1089.6 69.581C1091.84 73.2949 1093.57 77.2955 1094.74 81.4737C1095.96 86.1671 1096.56 91.0016 1096.51 95.8514V168.45H1119.03V94.2539C1119.01 89.3092 1119.78 84.3933 1121.34 79.6987C1122.61 75.5805 1124.72 71.7722 1127.54 68.516C1130.05 65.5203 1133.12 63.0475 1136.59 61.2384C1139.89 59.6063 1143.53 58.7561 1147.22 58.7534C1151.84 58.6386 1156.43 59.4848 1160.7 61.2384C1164.24 62.5084 1167.28 64.8704 1169.39 67.9835C1171.86 71.3373 1173.66 75.1331 1174.71 79.1662C1175.97 84.2139 1176.57 89.4058 1176.48 94.6089V168.45H1199V97.4489C1199.01 90.4712 1198.3 83.511 1196.87 76.6811C1195.46 70.0595 1192.75 63.7846 1188.89 58.2209V58.2209Z" fill="#5F4A3E" fill-opacity="0.1"/>
</g>
<defs>
<clipPath id="clip0_253_4">
<rect width="1199" height="172" fill="white"/>
</clipPath>
</defs>
</svg>
